<?xml version="1.0" standalone="no"?>
<!DOCTYPE svg PUBLIC "-//W3C//DTD SVG 1.1//EN" "http://www.w3.org/Graphics/SVG/1.1/DTD/svg11.dtd" >
<svg xmlns="http://www.w3.org/2000/svg" xmlns:xlink="http://www.w3.org/1999/xlink" version="1.1">
<metadata>
Created by FontForge 20150102 at Fri Jan 16 00:39:50 2015
 By uniteet7
Copyright (c) 2012 Dmtr.org, Dimitre Lima.
All Rights Reserved. This font software may not be reproduced, modified, disclosed or transferred without the express written approval of
Dmtr.org / Hitype.com / Dimitre Lima
</metadata>
<defs>
<font id="ArameBold" horiz-adv-x="613" >
  <font-face 
    font-family="ArameBold"
    font-weight="700"
    font-stretch="normal"
    units-per-em="1000"
    panose-1="2 0 -68 0 2 0 0 6 0 3"
    ascent="800"
    descent="-200"
    x-height="700"
    cap-height="700"
    bbox="-86 -270 1859 1010"
    underline-thickness="50"
    underline-position="-100"
    unicode-range="U+0020-F8FF"
  />
<missing-glyph horiz-adv-x="0" 
 />
    <glyph glyph-name=".notdef" horiz-adv-x="0" 
 />
    <glyph glyph-name=".null" horiz-adv-x="0" 
 />
    <glyph glyph-name="nonmarkingreturn" horiz-adv-x="333" 
 />
    <glyph glyph-name="space" unicode=" " horiz-adv-x="400" 
 />
    <glyph glyph-name="exclam" unicode="!" horiz-adv-x="240" 
d="M190 187h-140v513h140v-513zM190 0h-140v140h140v-140z" />
    <glyph glyph-name="quotedbl" unicode="&#x22;" horiz-adv-x="440" 
d="M170 560h-120v245h120v-245zM390 560h-120v245h120v-245z" />
    <glyph glyph-name="numbersign" unicode="#" horiz-adv-x="703" 
d="M653 535v-120h-116v-130h116v-120h-116v-165h-120v165h-130v-165h-120v165h-117v120h117v130h-117v120h117v165h120v-165h130v165h120v-165h116zM287 285h130v130h-130v-130z" />
    <glyph glyph-name="dollar" unicode="$" 
d="M563 537v-35h-140v35q0 9 -6.5 16t-16.5 7h-187q-9 0 -16 -7t-7 -16v-44q2 -9 12 -15l272 -131l4 -2q51 -27 74 -82q11 -30 11 -53v-47q0 -67 -48 -115q-47 -48 -115 -48h-33v-100h-120v100h-34q-67 0 -115 48t-48 115v35h140v-35q0 -9 7 -16t16 -7h187q10 0 16.5 7
t6.5 16v44q-1 9 -12 15l-272 131l-4 2q-51 27 -74 82q-11 30 -11 53v47q0 67 48 115t115 48h34v100h120v-100h33q68 0 115 -48q48 -48 48 -115z" />
    <glyph glyph-name="percent" unicode="%" horiz-adv-x="872" 
d="M230 340h-90q-37 0 -63.5 26.5t-26.5 63.5v180q0 37 26.5 63.5t63.5 26.5h90q37 0 63.5 -26.5t26.5 -63.5v-180q0 -37 -26.5 -63.5t-63.5 -26.5zM230 430v180h-90v-180h90zM732 0h-90q-37 0 -63.5 26.5t-26.5 63.5v180q0 37 26.5 63.5t63.5 26.5h90q38 0 64 -26.5
t26 -63.5v-180q0 -37 -26 -63.5t-64 -26.5zM732 270h-90v-180h90v180zM289 130v-130h-105v152q0 21 16 37l381 381v130h105v-152q0 -21 -16 -37z" />
    <glyph glyph-name="ampersand" unicode="&#x26;" horiz-adv-x="701" 
d="M646 78l-84 -85l-120 120l-67 -67q-46 -46 -111 -46t-111 46l-57 57q-46 46 -46 111t46 111l67 67l-55 54q-31 32 -31 77t31 77l69 68q32 32 76 32q45 0 77 -32l63 -62q32 -32 32 -77t-32 -77l-60 -60l109 -109l125 125l85 -85l-125 -125zM357 198l-109 109l-67 -67
q-11 -11 -11 -26t11 -26l57 -57q11 -11 26 -11t26 11zM253 575l-52 -52l47 -46l52 52z" />
    <glyph glyph-name="quotesingle" unicode="'" horiz-adv-x="220" 
d="M170 560h-120v245h120v-245z" />
    <glyph glyph-name="parenleft" unicode="(" horiz-adv-x="408" 
d="M358 40v-140q-63 0 -120 24q-114 50 -164 164q-24 57 -24 120v284q0 63 24 120q50 114 164 164q57 24 120 24v-140q-70 0 -119 -49t-49 -119v-284q0 -70 49 -119t119 -49z" />
    <glyph glyph-name="parenright" unicode=")" horiz-adv-x="408" 
d="M50 660v140q63 0 120 -24q55 -24 97.5 -66.5t65.5 -97.5q25 -56 25 -120v-284q0 -64 -25 -120q-23 -55 -65.5 -97.5t-97.5 -66.5q-57 -24 -120 -24v140q69 0 118 49q50 50 50 119v284q0 69 -50 119q-49 49 -118 49z" />
    <glyph glyph-name="asterisk" unicode="*" horiz-adv-x="569" 
d="M405 463l114 -66l-60 -104l-114 66v-132h-120v132l-115 -66l-60 104l115 66l-115 66l60 104l115 -66v133h120v-133l114 66l60 -104z" />
    <glyph glyph-name="plus" unicode="+" horiz-adv-x="540" 
d="M340 570v-150h150v-140h-150v-150h-140v150h-150v140h150v150h140z" />
    <glyph glyph-name="comma" unicode="," horiz-adv-x="302" 
d="M235 -59l-100 -100l-85 85l82 82v112h120v-137q0 -25 -17 -42z" />
    <glyph glyph-name="hyphen" unicode="-" horiz-adv-x="427" 
d="M377 280h-327v140h327v-140z" />
    <glyph glyph-name="period" unicode="." horiz-adv-x="240" 
d="M190 0h-140v140h140v-140z" />
    <glyph glyph-name="slash" unicode="/" horiz-adv-x="607" 
d="M170 132v-132h-120v157q0 25 18 42l369 369v132h120v-157q0 -25 -18 -42z" />
    <glyph glyph-name="zero" unicode="0" 
d="M213 700h187q68 0 115 -48q48 -48 48 -115v-374q0 -67 -48 -115q-47 -48 -115 -48h-187q-67 0 -115 48t-48 115v374q0 67 48 115t115 48zM400 560h-187q-8 0 -13 -4l223 -224v205q0 9 -6.5 16t-16.5 7zM213 140h187q8 0 13 4l-223 224v-205q0 -9 7 -16t16 -7z" />
    <glyph glyph-name="one" unicode="1" horiz-adv-x="380" 
d="M330 537v-537h-140v537q0 9 -7 16t-16 7h-117v140h117q67 0 115 -48t48 -115z" />
    <glyph glyph-name="two" unicode="2" 
d="M563 140v-140h-443q-29 0 -49.5 20.5t-20.5 49.5v140q0 44 39 63l334 167v97q0 9 -6.5 16t-16.5 7h-187q-9 0 -16 -7t-7 -16v-35h-140v35q0 67 48 115t115 48h187q68 0 115 -48q48 -48 48 -115v-140q0 -43 -38 -63l-335 -167v-27h373z" />
    <glyph glyph-name="three" unicode="3" 
d="M563 537v-94q0 -50 -29 -93q29 -43 29 -93v-94q0 -67 -48 -115q-47 -48 -115 -48h-187q-67 0 -115 48t-48 115v35h140v-35q0 -9 7 -16t16 -7h187q10 0 16.5 7t6.5 16v94q0 9 -6.5 16t-16.5 7h-135v140h135q10 0 16.5 7t6.5 16v94q0 9 -6.5 16t-16.5 7h-187q-9 0 -16 -7
t-7 -16v-35h-140v35q0 67 48 115t115 48h187q68 0 115 -48q48 -48 48 -115z" />
    <glyph glyph-name="four" unicode="4" 
d="M423 397v303h140v-700h-140v257h-210q-29 0 -49 20l-93 94q-21 19 -21 49v280h140v-251l52 -52h181z" />
    <glyph glyph-name="five" unicode="5" 
d="M400 0h-187q-67 0 -115 48t-48 115v70h140v-70q0 -9 7 -16t16 -7h187q10 0 16.5 7t6.5 16v140q0 10 -6.5 17t-16.5 7h-280q-29 0 -49.5 20.5t-20.5 49.5v233q0 29 20.5 49.5t49.5 20.5h397v-140h-327v-93h210q68 0 115 -48q48 -48 48 -116v-140q0 -67 -48 -115
q-47 -48 -115 -48z" />
    <glyph glyph-name="six" unicode="6" 
d="M400 0h-187q-67 0 -115 48t-48 115v374q0 67 48 115t115 48h234v-140h-234q-9 0 -16 -7t-7 -16v-117h210q68 0 115 -48q48 -48 48 -115v-94q0 -67 -48 -115q-47 -48 -115 -48zM400 280h-210v-117q0 -9 7 -16t16 -7h187q10 0 16.5 7t6.5 16v94q0 9 -6.5 16t-16.5 7z" />
    <glyph glyph-name="seven" unicode="7" horiz-adv-x="660" 
d="M237 134v-134h-140v163q0 28 20 50l347 347h-414v140h490q29 0 49.5 -20.5t20.5 -49.5v-93q0 -29 -21 -50z" />
    <glyph glyph-name="eight" unicode="8" 
d="M563 537v-94q0 -50 -29 -93q29 -43 29 -93v-94q0 -67 -48 -115q-47 -48 -115 -48h-187q-67 0 -115 48t-48 115v94q0 50 29 93q-29 43 -29 93v94q0 67 48 115t115 48h187q68 0 115 -48q48 -48 48 -115zM190 537v-94q0 -9 7 -16t16 -7h187q10 0 16.5 7t6.5 16v94
q0 9 -6.5 16t-16.5 7h-187q-9 0 -16 -7t-7 -16zM423 163v94q0 9 -6.5 16t-16.5 7h-187q-9 0 -16 -7t-7 -16v-94q0 -9 7 -16t16 -7h187q10 0 16.5 7t6.5 16z" />
    <glyph glyph-name="nine" unicode="9" 
d="M400 0h-187q-67 0 -115 48t-48 115v35h140v-35q0 -9 7 -16t16 -7h187q10 0 16.5 7t6.5 16v117h-210q-67 0 -115 48t-48 115v94q0 67 48 115t115 48h187q68 0 115 -48q48 -48 48 -115v-374q0 -67 -48 -115q-47 -48 -115 -48zM400 560h-187q-9 0 -16 -7t-7 -16v-94
q0 -9 7 -16t16 -7h210v117q0 9 -6.5 16t-16.5 7z" />
    <glyph glyph-name="colon" unicode=":" horiz-adv-x="220" 
d="M170 0h-120v120h120v-120zM170 280h-120v120h120v-120z" />
    <glyph glyph-name="semicolon" unicode=";" horiz-adv-x="302" 
d="M252 280h-120v120h120v-120zM235 -59l-100 -100l-85 85l82 82v112h120v-137q0 -25 -17 -42z" />
    <glyph glyph-name="less" unicode="&#x3c;" horiz-adv-x="637" 
d="M587 194l-62 -125l-436 218q-39 19 -39 62q0 46 39 63l436 218l62 -125l-310 -156z" />
    <glyph glyph-name="equal" unicode="=" horiz-adv-x="540" 
d="M490 397h-440v140h440v-140zM490 163h-440v140h440v-140z" />
    <glyph glyph-name="greater" unicode="&#x3e;" horiz-adv-x="637" 
d="M50 505l63 126l436 -218q37 -19 37 -63t-37 -63l-436 -218l-63 126l311 155z" />
    <glyph glyph-name="question" unicode="?" 
d="M377 307v-120h-140v163q0 40 38 63l148 74v50q0 9 -6.5 16t-16.5 7h-187q-9 0 -16 -7t-7 -16v-70h-140v70q0 67 48 115t115 48h187q68 0 115 -48q48 -48 48 -115v-94q0 -42 -38 -62zM378 0h-140v140h140v-140z" />
    <glyph glyph-name="at" unicode="@" horiz-adv-x="633" 
d="M486 120v-120h-279q-65 0 -111 46t-46 111v386q0 65 46 111t111 46h219q65 0 111 -46t46 -111v-314q0 -25 -17.5 -42.5t-42.5 -17.5h-145q-65 0 -111 46t-46 111v48q0 65 46 111t111 46h85v12q0 15 -11 26t-26 11h-219q-15 0 -26 -11t-11 -26v-386q0 -15 11 -26t26 -11
h279zM463 411h-85q-15 0 -26 -11t-11 -26v-48q0 -15 10.5 -26t26.5 -11h85v122z" />
    <glyph glyph-name="A" unicode="A" 
d="M416 661l140 -280q7 -13 7 -31v-350h-140v187h-233v-187h-140v350q0 18 7 31l140 280q19 39 63 39h93q43 0 63 -39zM190 333v-6h233v6l-113 227h-7z" />
    <glyph glyph-name="B" unicode="B" 
d="M563 537v-94q0 -50 -29 -93q29 -43 29 -93v-94q0 -67 -48 -115q-47 -48 -115 -48h-350v700h350q68 0 115 -48q48 -48 48 -115zM400 560h-210v-140h210q10 0 16.5 6.5t6.5 16.5v94q0 9 -6.5 16t-16.5 7zM423 163v94q0 9 -6.5 16t-16.5 7h-210v-140h210q10 0 16.5 7t6.5 16
z" />
    <glyph glyph-name="C" unicode="C" 
d="M400 0h-187q-67 0 -115 48t-48 115v374q0 67 48 115t115 48h187q68 0 115 -48q48 -48 48 -115v-70h-140v70q0 9 -6.5 16t-16.5 7h-187q-9 0 -16 -7t-7 -16v-374q0 -9 7 -16t16 -7h187q10 0 16.5 6.5t6.5 16.5v70h140v-70q0 -67 -48 -115q-47 -48 -115 -48z" />
    <glyph glyph-name="D" unicode="D" 
d="M50 700h350q68 0 115 -48q48 -48 48 -115v-374q0 -67 -48 -115q-47 -48 -115 -48h-350v700zM423 163v374q0 9 -6.5 16t-16.5 7h-210v-420h210q10 0 16.5 7t6.5 16z" />
    <glyph glyph-name="E" unicode="E" 
d="M563 700v-140h-373v-140h280v-140h-280v-140h373v-140h-513v700h513z" />
    <glyph glyph-name="F" unicode="F" 
d="M563 700v-140h-373v-140h280v-140h-280v-280h-140v700h513z" />
    <glyph glyph-name="G" unicode="G" 
d="M400 0h-187q-67 0 -115 48t-48 115v374q0 67 48 115t115 48h187q68 0 115 -48q48 -48 48 -115v-70h-140v70q0 9 -6.5 16t-16.5 7h-187q-9 0 -16 -7t-7 -16v-374q0 -9 7 -16t16 -7h187q10 0 16.5 6.5t6.5 16.5v69l-146 35l32 136l200 -47q24 -6 39 -25t15 -43v-125
q0 -67 -48 -115q-47 -48 -115 -48z" />
    <glyph glyph-name="H" unicode="H" 
d="M423 420v280h140v-700h-140v280h-233v-280h-140v700h140v-280h233z" />
    <glyph glyph-name="I" unicode="I" horiz-adv-x="240" 
d="M190 0h-140v700h140v-700z" />
    <glyph glyph-name="J" unicode="J" 
d="M400 0h-187q-67 0 -115 48t-48 115v70h140v-70q0 -9 7 -16t16 -7h187q10 0 16.5 7t6.5 16v537h140v-537q0 -67 -48 -115q-47 -48 -115 -48z" />
    <glyph glyph-name="K" unicode="K" 
d="M563 700v-210q0 -29 -20 -49l-91 -91l91 -91q20 -20 20 -49v-210h-140v181l-99 99h-134v-280h-140v700h140v-280h134l99 99v181h140z" />
    <glyph glyph-name="L" unicode="L" 
d="M563 140v-140h-513v700h140v-560h373z" />
    <glyph glyph-name="M" unicode="M" horiz-adv-x="707" 
d="M353 488l164 212h140v-700h-140v470l-94 -121v-69h-140v69l-93 121v-470h-140v700h140z" />
    <glyph glyph-name="N" unicode="N" 
d="M563 700v-700h-140l-233 399v-399h-140v700h140l233 -399v399h140z" />
    <glyph glyph-name="O" unicode="O" 
d="M400 0h-187q-67 0 -115 48t-48 115v374q0 67 48 115t115 48h187q68 0 115 -48q48 -48 48 -115v-374q0 -67 -48 -115q-47 -48 -115 -48zM400 560h-187q-9 0 -16 -7t-7 -16v-374q0 -9 7 -16t16 -7h187q10 0 16.5 7t6.5 16v374q0 9 -6.5 16t-16.5 7z" />
    <glyph glyph-name="P" unicode="P" 
d="M190 280v-280h-140v700h350q68 0 115 -48q48 -48 48 -115v-94q0 -67 -48 -115t-115 -48h-210zM190 560v-140h210q10 0 16.5 7t6.5 16v94q0 10 -6.5 16.5t-16.5 6.5h-210z" />
    <glyph glyph-name="Q" unicode="Q" 
d="M213 700h187q68 0 115 -48q48 -48 48 -115v-374q0 -67 -48 -115q-47 -48 -115 -48h-187q-67 0 -115 48t-48 115v374q0 67 48 115t115 48zM190 537v-374q0 -9 7 -16t16 -7h125l-74 74l85 85l74 -74v312q0 9 -6.5 16t-16.5 7h-187q-9 0 -16 -7t-7 -16z" />
    <glyph glyph-name="R" unicode="R" 
d="M563 537v-94q0 -44 -21.5 -81t-57.5 -59l59 -59q20 -22 20 -50v-194h-140v165l-114 115h-119v-280h-140v700h350q68 0 115 -48q48 -48 48 -115zM423 443v94q0 9 -6.5 16t-16.5 7h-210v-140h210q10 0 16.5 7t6.5 16z" />
    <glyph glyph-name="S" unicode="S" 
d="M400 0h-187q-67 0 -115 48t-48 115v31h140v-31q0 -9 7 -16t16 -7h187q10 0 16.5 6.5t6.5 16.5v44q-1 9 -12 15l-274 132l-2 1q-51 27 -74 82q-11 30 -11 53v47q0 67 48 115t115 48h187q68 0 115 -48q48 -48 48 -115v-31h-140v31q0 9 -6.5 16t-16.5 7h-187q-9 0 -16 -7
t-7 -16v-44q2 -9 12 -15l274 -132l2 -1q51 -27 74 -82q11 -30 11 -53v-47q0 -67 -48 -115q-47 -48 -115 -48z" />
    <glyph glyph-name="T" unicode="T" 
d="M563 700v-140h-186v-560h-140v560h-187v140h513z" />
    <glyph glyph-name="U" unicode="U" 
d="M400 0h-187q-67 0 -115 48t-48 115v537h140v-537q0 -9 7 -16t16 -7h187q10 0 16.5 7t6.5 16v537h140v-537q0 -67 -48 -115q-47 -48 -115 -48z" />
    <glyph glyph-name="V" unicode="V" 
d="M353 0h-93q-44 0 -63 39l-140 280q-7 13 -7 31v350h140v-333l113 -227h7l113 227v333h140v-350q0 -18 -7 -31l-140 -280q-20 -39 -63 -39z" />
    <glyph glyph-name="W" unicode="W" horiz-adv-x="707" 
d="M353 212l-163 -212h-140v700h140v-470l93 121v69h140v-69l94 -121v470h140v-700h-140z" />
    <glyph glyph-name="X" unicode="X" 
d="M563 700v-163q0 -28 -20 -50l-137 -137l137 -137q20 -22 20 -50v-163h-140v134l-116 117l-117 -117v-134h-140v163q0 29 21 50l137 137l-137 137q-21 21 -21 50v163h140v-134l117 -117l116 117v134h140z" />
    <glyph glyph-name="Y" unicode="Y" 
d="M423 566v134h140v-163q0 -28 -20 -50l-166 -166v-321h-140v321l-166 166q-21 21 -21 50v163h140v-134l117 -117z" />
    <glyph glyph-name="Z" unicode="Z" horiz-adv-x="637" 
d="M566 487l-347 -347h368v-140h-514v163q0 29 21 50l347 347h-391v140h537v-163q0 -29 -21 -50z" />
    <glyph glyph-name="bracketleft" unicode="[" horiz-adv-x="306" 
d="M110 800h146v-120h-86v-660h86v-120h-146q-25 0 -42.5 17.5t-17.5 42.5v780q0 25 17.5 42.5t42.5 17.5z" />
    <glyph glyph-name="backslash" unicode="\" horiz-adv-x="607" 
d="M557 157v-157h-120v132l-369 369q-18 17 -18 42v157h120v-132l369 -369q18 -17 18 -42z" />
    <glyph glyph-name="bracketright" unicode="]" horiz-adv-x="306" 
d="M196 -100h-146v120h86v660h-86v120h146q25 0 42.5 -17.5t17.5 -42.5v-780q0 -25 -17.5 -42.5t-42.5 -17.5z" />
    <glyph glyph-name="asciicircum" unicode="^" horiz-adv-x="600" 
d="M550 325l-100 -66l-150 225l-150 -225l-100 66l250 375z" />
    <glyph glyph-name="underscore" unicode="_" horiz-adv-x="707" 
d="M657 0h-607v140h607v-140z" />
    <glyph glyph-name="grave" unicode="`" horiz-adv-x="342" 
d="M234 494l-184 129l57 82l185 -129z" />
    <glyph glyph-name="a" unicode="a" 
d="M416 661l140 -280q7 -13 7 -31v-350h-140v187h-233v-187h-140v350q0 18 7 31l140 280q19 39 63 39h93q43 0 63 -39zM190 333v-6h233v6l-113 227h-7z" />
    <glyph glyph-name="b" unicode="b" 
d="M563 537v-95q0 -52 -30 -93q30 -41 30 -93v-93q0 -67 -48 -115q-47 -48 -115 -48h-350v700h350q68 0 115 -48q48 -48 48 -115zM400 559h-210v-139h210q10 0 16.5 6.5t6.5 16.5v93q0 10 -6.5 16.5t-16.5 6.5zM423 163v94q0 10 -6.5 16.5t-16.5 6.5h-210v-140h210
q10 0 16.5 6.5t6.5 16.5z" />
    <glyph glyph-name="c" unicode="c" 
d="M400 0h-187q-67 0 -115 48t-48 115v374q0 67 48 115t115 48h187q68 0 115 -48q48 -48 48 -115v-70h-140v70q0 9 -6.5 16t-16.5 7h-187q-9 0 -16 -7t-7 -16v-374q0 -9 7 -16t16 -7h187q10 0 16.5 6.5t6.5 16.5v70h140v-70q0 -67 -48 -115q-47 -48 -115 -48z" />
    <glyph glyph-name="d" unicode="d" 
d="M50 700h350q68 0 115 -48q48 -48 48 -115v-374q0 -67 -48 -115q-47 -48 -115 -48h-350v700zM423 163v374q0 9 -6.5 16t-16.5 7h-210v-420h210q10 0 16.5 7t6.5 16z" />
    <glyph glyph-name="e" unicode="e" 
d="M563 700v-140h-373v-140h280v-140h-280v-140h373v-140h-513v700h513z" />
    <glyph glyph-name="f" unicode="f" 
d="M563 700v-140h-373v-140h280v-140h-280v-280h-140v700h513z" />
    <glyph glyph-name="g" unicode="g" 
d="M400 0l-187 -1q-66 0 -115 47q-48 48 -48 116v373q0 67 48 115t115 48h187q68 0 115 -48q48 -48 48 -115v-70h-140v70q0 10 -6.5 16.5t-16.5 6.5h-187q-10 0 -16.5 -6.5t-6.5 -16.5v-373q0 -10 6.5 -16.5t16.5 -6.5h187q10 0 16.5 6.5t6.5 16.5v69l-146 34l32 136
l200 -47q24 -5 39 -24t15 -43v-124q0 -67 -48 -115q-47 -48 -115 -48z" />
    <glyph glyph-name="h" unicode="h" 
d="M423 420v280h140v-700h-140v280h-233v-280h-140v700h140v-280h233z" />
    <glyph glyph-name="i" unicode="i" horiz-adv-x="240" 
d="M190 0h-140v700h140v-700z" />
    <glyph glyph-name="j" unicode="j" 
d="M400 0h-187q-67 0 -115 48t-48 115v70h140v-70q0 -9 7 -16t16 -7h187q10 0 16.5 7t6.5 16v537h140v-537q0 -67 -48 -115q-47 -48 -115 -48z" />
    <glyph glyph-name="k" unicode="k" 
d="M563 700v-210v2q0 -30 -20 -50l-91 -91l91 -91q20 -20 20 -50v-210h-140v181l-99 99h-134v-280h-140v700h140v-280h134l99 99v181h140z" />
    <glyph glyph-name="l" unicode="l" 
d="M563 140v-140h-513v700h140v-560h373z" />
    <glyph glyph-name="m" unicode="m" horiz-adv-x="707" 
d="M354 488l163 212h140v-700h-140v470l-93 -121v-70h-140v70l-93 121v-470h-140v700h140z" />
    <glyph glyph-name="n" unicode="n" 
d="M563 700v-700h-140l-233 399v-399h-140v700h140l233 -399v399h140z" />
    <glyph glyph-name="o" unicode="o" 
d="M400 0h-187q-67 0 -115 48t-48 115v374q0 67 48 115t115 48h187q68 0 115 -48q48 -48 48 -115v-374q0 -67 -48 -115q-47 -48 -115 -48zM400 560h-187q-9 0 -16 -7t-7 -16v-374q0 -9 7 -16t16 -7h187q10 0 16.5 7t6.5 16v374q0 9 -6.5 16t-16.5 7z" />
    <glyph glyph-name="p" unicode="p" 
d="M190 280v-280l-140 -1v700h350q68 0 115 -48q48 -47 48 -115v-93q0 -67 -48 -115q-47 -48 -115 -48h-210zM190 559v-140l210 1q10 0 16.5 6.5t6.5 16.5v93q0 10 -6.5 16.5t-16.5 6.5h-210z" />
    <glyph glyph-name="q" unicode="q" 
d="M213 700h187q68 0 115 -48q48 -48 48 -115v-374q0 -67 -48 -115q-47 -48 -115 -48h-187q-67 0 -115 48t-48 115v374q0 67 48 115t115 48zM190 537v-374q0 -9 7 -16t16 -7h125l-74 74l85 85l74 -74v312q0 9 -6.5 16t-16.5 7h-187q-9 0 -16 -7t-7 -16z" />
    <glyph glyph-name="r" unicode="r" 
d="M563 537v-94q0 -44 -21.5 -81t-57.5 -59l59 -59q20 -22 20 -50v-194h-140v165l-114 115h-119v-280h-140v700h350q68 0 115 -48q48 -48 48 -115zM423 443v94q0 9 -6.5 16t-16.5 7h-210v-140h210q10 0 16.5 7t6.5 16z" />
    <glyph glyph-name="s" unicode="s" 
d="M400 0h-187q-67 0 -115 48t-48 115v31h140v-31q0 -9 7 -16t16 -7h187q10 0 16.5 6.5t6.5 16.5v44q-1 9 -12 15l-274 132l-2 1q-51 27 -74 82q-11 30 -11 53v47q0 67 48 115t115 48h187q68 0 115 -48q48 -48 48 -115v-31h-140v31q0 9 -6.5 16t-16.5 7h-187q-9 0 -16 -7
t-7 -16v-44q2 -9 12 -15l274 -132l2 -1q51 -27 74 -82q11 -30 11 -53v-47q0 -67 -48 -115q-47 -48 -115 -48z" />
    <glyph glyph-name="t" unicode="t" 
d="M563 700v-140h-186v-560h-140v560h-187v140h513z" />
    <glyph glyph-name="u" unicode="u" 
d="M400 0h-187q-67 0 -115 48t-48 115v537h140v-537q0 -9 7 -16t16 -7h187q10 0 16.5 7t6.5 16v537h140v-537q0 -67 -48 -115q-47 -48 -115 -48z" />
    <glyph glyph-name="v" unicode="v" 
d="M353 0h-91q-44 0 -63 39l-140 280q-8 18 -8 32v350h140v-333l113 -227h7l113 227v333h140v-350q0 -14 -8 -32l-140 -280q-20 -39 -63 -39z" />
    <glyph glyph-name="w" unicode="w" horiz-adv-x="707" 
d="M353 212l-163 -212h-140v700h140v-470l93 121v70h140v-70l93 -121v470h140v-700h-140z" />
    <glyph glyph-name="x" unicode="x" 
d="M563 700v-163q0 -30 -20 -50l-137 -137l137 -137q20 -20 20 -50v-163h-140v134l-117 117l-117 -117v-134h-140v163q0 30 20 50l137 137l-137 137q-20 20 -20 50v163h140v-134l117 -117l117 117v134h140z" />
    <glyph glyph-name="y" unicode="y" 
d="M423 566v134h138v-163q0 -30 -20 -50l-166 -166v-321h-140v321l-166 166q-20 20 -20 50v163h140v-134l117 -117z" />
    <glyph glyph-name="z" unicode="z" horiz-adv-x="637" 
d="M566 487l-347 -347h367v-140h-513v163q0 30 20 50l347 347h-391v140h537v-163q0 -30 -20 -50z" />
    <glyph glyph-name="braceleft" unicode="{" horiz-adv-x="392" 
d="M255 642v-194q0 -54 -33 -98q33 -44 33 -98v-194q0 -16 11 -27t27 -11h49v-120h-49q-66 0 -112 46t-46 112v194q0 16 -11 27t-26 11h-48v120h48q15 0 26 11t11 27v194q0 66 46 112t112 46h49v-120h-49q-16 0 -27 -11t-11 -27z" />
    <glyph glyph-name="bar" unicode="|" horiz-adv-x="220" 
d="M170 -200h-120v1000h120v-1000z" />
    <glyph glyph-name="braceright" unicode="}" horiz-adv-x="392" 
d="M136 58v194q0 55 34 98q-34 43 -34 98v194q0 16 -11 27t-26 11h-49v120h49q65 0 111 -46t46 -112v-194q0 -16 11 -27t27 -11h48v-120h-48q-16 0 -27 -11t-11 -27v-194q0 -66 -46 -112t-111 -46h-49v120h49q15 0 26 11t11 27z" />
    <glyph glyph-name="asciitilde" unicode="~" horiz-adv-x="627" 
d="M207 327l-65 -77l-92 77l91 108q26 32 66 19l214 -74l64 76l92 -77l-90 -108q-26 -31 -66 -18z" />
    <glyph glyph-name="exclamdown" unicode="&#xa1;" horiz-adv-x="240" 
d="M190 -200h-140v513h140v-513zM50 500h140v-140h-140v140z" />
    <glyph glyph-name="cent" unicode="&#xa2;" horiz-adv-x="520" 
d="M350 125v30h120v-30q0 -56 -40 -96q-39 -39 -95 -39h-25v-90h-100v90h-25q-55 0 -96 39q-39 41 -39 96v250q0 56 39 95q40 40 96 40h25v90h100v-90h25q56 0 95 -40q40 -39 40 -95v-30h-120v30q0 6 -4.5 10.5t-10.5 4.5h-150q-15 0 -15 -15v-250q0 -6 4.5 -10.5t10.5 -4.5
h150q6 0 10.5 4.5t4.5 10.5z" />
    <glyph glyph-name="sterling" unicode="&#xa3;" 
d="M241 240l-25 -100h353v-140h-443q-34 0 -55 27t-13 60l45 178v15h-47v140h47v117q0 66 47 115q48 48 116 48h93q68 0 116 -48t48 -115v-35h-140v35q0 9 -7 16t-17 7h-93q-10 0 -16.5 -7t-6.5 -16v-117h140v-140h-140v-23q0 -7 -2 -17z" />
    <glyph glyph-name="currency" unicode="&#xa4;" horiz-adv-x="601" 
d="M480 242l71 -70l-71 -71l-70 70q-50 -31 -109.5 -31t-109.5 31l-70 -70l-71 71l70 70q-30 50 -30 108q0 60 31 110l-71 71l71 71l71 -72q50 30 108 30q60 0 109 -30l71 72l71 -71l-71 -71q30 -51 30 -110q0 -58 -30 -108zM300 260q37 0 63.5 26.5t26.5 63.5
q2 37 -26 63.5t-63.5 26.5t-64.5 -27q-26 -28 -26 -63t26.5 -63.5t63.5 -26.5z" />
    <glyph glyph-name="yen" unicode="&#xa5;" 
d="M423 566v134h140v-163q0 -28 -20 -50l-103 -103h80v-100h-143v-40h143v-100h-143v-144h-140v144h-144v100h144v40h-144v100h80l-102 103q-21 21 -21 50v163h140v-134l117 -117z" />
    <glyph glyph-name="brokenbar" unicode="&#xa6;" horiz-adv-x="220" 
d="M170 350h-120v450h120v-450zM170 -200h-120v450h120v-450z" />
    <glyph glyph-name="section" unicode="&#xa7;" horiz-adv-x="511" 
d="M448 167l-27 -43q51 -46 51 -117q0 -65 -46 -111t-111 -46h-98q-65 0 -111 46t-46 111v17h120v-17q0 -15 11 -26t26 -11h98q15 0 26 11t11 26q0 21 -17 32l-202 127q-55 34 -69 98q-14 65 20 119l28 43q-52 46 -52 117q0 65 46 111t111 46h98q65 0 111 -46t46 -111v-17
h-120v17q0 15 -11 26t-26 11h-98q-15 0 -26 -11t-11 -26q0 -21 17 -32l202 -127q55 -34 69 -99q15 -62 -20 -118zM320 190l26 41q9 13 5.5 28t-16.5 23l-123 78l-26 -41q-8 -13 -5 -28t16 -23z" />
    <glyph glyph-name="dieresis" unicode="&#xa8;" horiz-adv-x="420" 
d="M370 580h-120v120h120v-120zM170 580h-120v120h120v-120z" />
    <glyph glyph-name="copyright" unicode="&#xa9;" horiz-adv-x="804" 
d="M462 122h-119q-45 0 -77 32t-32 78v236q0 46 32 78t77 32h119q45 0 77 -32t32 -78v-50h-100v50q0 10 -9 10h-119q-9 0 -9 -10v-236q0 -10 9 -10h119q9 0 9 10v50h100v-50q0 -46 -32 -78t-77 -32zM265 25q-132 57 -187 188q-58 137 0 274q55 131 187 188q137 56 275 0
q132 -57 187 -188q58 -137 0 -274q-55 -131 -187 -188q-137 -56 -275 0zM402 78q110 -2 192.5 80t80.5 192q0 112 -80 192t-193 80q-112 0 -192 -80t-80 -192q0 -113 80 -193q79 -79 192 -79z" />
    <glyph glyph-name="ordfeminine" unicode="&#xaa;" horiz-adv-x="367" 
d="M242 678l70 -140q5 -10 5 -18v-180h-80v93h-107v-93h-80v180q0 10 4 18l70 140q10 22 36 22h47q25 0 35 -22zM183 617l-52 -104h104z" />
    <glyph glyph-name="guillemotleft" unicode="&#xab;" horiz-adv-x="560" 
d="M510 244l-70 -71l-142 142q-15 14 -15 35t15 35l142 142l70 -71l-106 -106zM277 244l-71 -71l-141 142q-15 14 -15 35t15 35l141 142l71 -71l-106 -106z" />
    <glyph glyph-name="logicalnot" unicode="&#xac;" horiz-adv-x="660" 
d="M610 350v-327h-140v187h-420v140h560z" />
    <glyph glyph-name="registered" unicode="&#xae;" horiz-adv-x="460" 
d="M103 647q53 53 127 53t127 -53t53 -127t-53 -127t-127 -53t-127 53t-53 127t53 127zM370 520q0 58 -41 99t-99 41q-57 0 -98.5 -41.5t-41.5 -98.5q0 -58 41 -99t99 -41t99 41t41 99zM160 623h100q20 0 34 -14t14 -34v-26q0 -25 -20 -39l14 -14q6 -8 6 -16v-57h-45v48
l-30 30h-28v-78h-45v200zM205 578v-32h55q3 0 3 3v26q0 3 -3 3h-55z" />
    <glyph glyph-name="overscore" unicode="&#xaf;" horiz-adv-x="420" 
d="M370 600h-320v100h320v-100z" />
    <glyph glyph-name="degree" unicode="&#xb0;" horiz-adv-x="505" 
d="M253 705q81 2 142.5 -59.5t59.5 -143.5q0 -83 -60 -143q-59 -59 -143 -59q-82 0 -143 59q-59 61 -59 143q0 84 59 143q60 60 144 60zM253 585q-35 0 -59 -24.5t-24 -58.5q-2 -34 24 -58t58.5 -24t58.5 24q24 26 24 58.5t-24 58.5t-58 24z" />
    <glyph glyph-name="plusminus" unicode="&#xb1;" horiz-adv-x="540" 
d="M340 653v-150h150v-140h-150v-150h-140v150h-150v140h150v150h140zM490 0h-440v140h440v-140z" />
    <glyph glyph-name="uni00B2" unicode="&#xb2;" horiz-adv-x="372" 
d="M322 435v-95h-224q-20 0 -34 14t-14 34v66q0 28 26 42l151 75v34h-82v-44h-95v47q0 38 27 65t65 27h88q38 0 65 -27t27 -65v-66q0 -28 -27 -42l-129 -65h156z" />
    <glyph glyph-name="uni00B3" unicode="&#xb3;" horiz-adv-x="372" 
d="M322 608v-44q0 -23 -12 -44q12 -21 12 -44v-44q0 -38 -27 -65t-65 -27h-88q-38 0 -65 27t-27 65v23h95v-20h82v38h-45v95h45v37h-82v-22h-95v25q0 38 27 65t65 27h88q38 0 65 -27t27 -65z" />
    <glyph glyph-name="acute" unicode="&#xb4;" horiz-adv-x="347" 
d="M113 486l-63 90l184 129l63 -90z" />
    <glyph glyph-name="uni00B5" unicode="&#xb5;" horiz-adv-x="510" 
d="M340 198v302h120v-507h-120v19q-85 -40 -170 0v-212h-120v700h120v-302q0 -35 25 -60t60 -25t60 25t25 60z" />
    <glyph glyph-name="paragraph" unicode="&#xb6;" horiz-adv-x="660" 
d="M196 700h414v-120h-99v-850h-120v850h-75v-850h-120v556q-61 6 -103.5 51t-42.5 107v98q0 62 42 107q44 47 104 51z" />
    <glyph glyph-name="middot" unicode="&#xb7;" horiz-adv-x="240" 
d="M190 280h-140v140h140v-140z" />
    <glyph glyph-name="cedilla" unicode="&#xb8;" horiz-adv-x="286" 
d="M136 0h100v-70q0 -21 -14 -35l-101 -101l-71 71l86 86v49z" />
    <glyph glyph-name="uni00B9" unicode="&#xb9;" horiz-adv-x="261" 
d="M211 608v-268h-95v265h-66v95h70q37 0 64 -27t27 -65z" />
    <glyph glyph-name="ordmasculine" unicode="&#xba;" horiz-adv-x="370" 
d="M230 340h-90q-37 0 -63.5 26.5t-26.5 63.5v180q0 37 26.5 63.5t63.5 26.5h90q37 0 63.5 -26.5t26.5 -63.5v-180q0 -37 -26.5 -63.5t-63.5 -26.5zM230 430v180h-90v-180h90z" />
    <glyph glyph-name="guillemotright" unicode="&#xbb;" horiz-adv-x="560" 
d="M50 456l71 71l141 -142q15 -14 15 -35t-15 -35l-141 -142l-71 71l106 106zM283 456l71 71l142 -142q14 -14 14 -35t-14 -35l-142 -142l-71 71l107 106z" />
    <glyph glyph-name="onequarter" unicode="&#xbc;" horiz-adv-x="872" 
d="M211 608v-268h-95v265h-66v95h70q37 0 64 -27t27 -65zM727 216v144h95v-360h-95v121h-85q-19 0 -33 14l-44 45q-14 14 -14 33v147h95v-127l16 -17h65zM238 130v-130h-105v152q0 21 16 37l381 381v130h105v-152q0 -21 -16 -37z" />
    <glyph glyph-name="onehalf" unicode="&#xbd;" horiz-adv-x="872" 
d="M211 608v-268h-95v265h-66v95h70q37 0 64 -27t27 -65zM258 130v-130h-105v152q0 21 16 37l381 381v130h105v-152q0 -21 -16 -37zM822 95v-95h-224q-19 0 -33 14t-14 34v66q0 28 26 42l150 75v34h-81v-44h-95v47q0 38 26.5 65t64.5 27h89q38 0 64.5 -27t26.5 -65v-66
q0 -28 -26 -42l-129 -65h155z" />
    <glyph glyph-name="threequarters" unicode="&#xbe;" horiz-adv-x="872" 
d="M267 130v-130h-105v152q0 21 16 37l381 381v130h105v-152q0 -21 -16 -37zM727 216v144h95v-360h-95v121h-85q-19 0 -33 14l-44 45q-14 14 -14 33v147h95v-127l16 -17h65zM322 608v-44q0 -23 -12 -44q12 -21 12 -44v-44q0 -38 -27 -65t-65 -27h-88q-38 0 -65 27t-27 65v23
h95v-20h82v38h-45v95h45v37h-82v-22h-95v25q0 38 27 65t65 27h88q38 0 65 -27t27 -65z" />
    <glyph glyph-name="questiondown" unicode="&#xbf;" 
d="M423 -37v70h140v-70q0 -67 -48 -115t-115 -48h-187q-67 0 -115 48t-48 115v94q0 43 39 62l148 74v120h140v-163q0 -44 -39 -63l-148 -74v-50q0 -9 7 -16t16 -7h187q10 0 16.5 7t6.5 16zM235 500h140v-140h-140v140z" />
    <glyph glyph-name="Agrave" unicode="&#xc0;" 
d="M416 661l140 -280q7 -13 7 -31v-350h-140v187h-233v-187h-140v350q0 18 7 31l140 280q19 39 63 39h93q43 0 63 -39zM190 327h233v6l-113 227h-7l-113 -227v-6zM180 971l184 -129l-57 -82l-185 129z" />
    <glyph glyph-name="Aacute" unicode="&#xc1;" 
d="M416 661l140 -280q7 -13 7 -31v-350h-140v187h-233v-187h-140v350q0 18 7 31l140 280q19 39 63 39h93q43 0 63 -39zM190 327h233v6l-113 227h-7l-113 -227v-6zM428 979l63 -90l-184 -129l-63 90z" />
    <glyph glyph-name="Acircumflex" unicode="&#xc2;" 
d="M416 661l140 -280q7 -13 7 -31v-350h-140v187h-233v-187h-140v350q0 18 7 31l140 280q19 39 63 39h93q43 0 63 -39zM190 327h233v6l-113 227h-7l-113 -227v-6zM471 838l-62 -78l-102 81l-103 -81l-62 78l165 131z" />
    <glyph glyph-name="Atilde" unicode="&#xc3;" 
d="M416 661l140 -280q7 -13 7 -31v-350h-140v187h-233v-187h-140v350q0 18 7 31l140 280q19 39 63 39h93q43 0 63 -39zM190 327h233v6l-113 227h-7l-113 -227v-6zM226 818l-49 -58l-76 64l71 85q22 25 54 15l161 -56l49 59l77 -65l-71 -84q-22 -25 -55 -15z" />
    <glyph glyph-name="Adieresis" unicode="&#xc4;" 
d="M416 661l140 -280q7 -13 7 -31v-350h-140v187h-233v-187h-140v350q0 18 7 31l140 280q19 39 63 39h93q43 0 63 -39zM190 327h233v6l-113 227h-7l-113 -227v-6zM467 760h-120v120h120v-120zM267 760h-120v120h120v-120z" />
    <glyph glyph-name="Aring" unicode="&#xc5;" 
d="M416 661l140 -280q7 -13 7 -31v-350h-140v187h-233v-187h-140v350q0 18 7 31l140 280q19 39 63 39h93q43 0 63 -39zM190 327h233v6l-113 227h-7l-113 -227v-6zM307 984q47 0 81 -34t34 -81q0 -48 -34 -82q-34 -33 -81.5 -33t-81.5 33q-33 35 -33 82q0 48 33.5 81.5
t81.5 33.5zM307 819q20 0 35 14.5t15 35.5t-15 35.5t-36 14.5q-20 0 -34.5 -14.5t-14.5 -35.5t14.5 -35.5t35.5 -14.5z" />
    <glyph glyph-name="AE" unicode="&#xc6;" horiz-adv-x="987" 
d="M937 700v-140h-374v-140h280v-140h-280v-140h374v-140h-514v187h-233v-187h-140v350q0 18 7 31l140 280q19 39 63 39h677zM190 327h233v233h-120l-113 -227v-6z" />
    <glyph glyph-name="Ccedilla" unicode="&#xc7;" 
d="M563 537v-70h-140v70q0 9 -6.5 16t-16.5 7h-187q-9 0 -16 -7t-7 -16v-374q0 -9 7 -16t16 -7h187q10 0 16.5 7t6.5 16v70h140v-70q0 -67 -48 -115q-47 -48 -115 -48h-33v-75q0 -25 -18 -42l-100 -100l-85 85l83 82v50h-34q-67 0 -115 48t-48 115v374q0 67 48 115t115 48
h187q67 0 115 -48t48 -115z" />
    <glyph glyph-name="Egrave" unicode="&#xc8;" 
d="M563 700v-140h-373v-140h280v-140h-280v-140h373v-140h-513v700h513zM307 760l-185 129l58 82l184 -129z" />
    <glyph glyph-name="Eacute" unicode="&#xc9;" 
d="M563 700v-140h-373v-140h280v-140h-280v-140h373v-140h-513v700h513zM428 979l63 -90l-184 -129l-63 90z" />
    <glyph glyph-name="Ecircumflex" unicode="&#xca;" 
d="M563 700v-140h-373v-140h280v-140h-280v-140h373v-140h-513v700h513zM471 838l-62 -78l-102 81l-103 -81l-62 78l165 131z" />
    <glyph glyph-name="Edieresis" unicode="&#xcb;" 
d="M563 700v-140h-373v-140h280v-140h-280v-140h373v-140h-513v700h513zM467 760h-120v120h120v-120zM267 760h-120v120h120v-120z" />
    <glyph glyph-name="Igrave" unicode="&#xcc;" horiz-adv-x="244" 
d="M-6 971l185 -129l-58 -82l-184 129zM195 0h-140v700h140v-700z" />
    <glyph glyph-name="Iacute" unicode="&#xcd;" horiz-adv-x="240" 
d="M190 0h-140v700h140v-700zM240 979l63 -90l-184 -129l-63 90z" />
    <glyph glyph-name="Icircumflex" unicode="&#xce;" horiz-adv-x="239" 
d="M284 838l-62 -78l-103 81l-102 -81l-62 78l164 131zM189 0h-140v700h140v-700z" />
    <glyph glyph-name="Idieresis" unicode="&#xcf;" horiz-adv-x="240" 
d="M280 760h-120v120h120v-120zM80 760h-120v120h120v-120zM190 0h-140v700h140v-700z" />
    <glyph glyph-name="Eth" unicode="&#xd0;" horiz-adv-x="663" 
d="M100 700h350q68 0 115 -48q48 -48 48 -115v-374q0 -67 -48 -115q-47 -48 -115 -48h-350v305h-50v90h50v305zM473 163v374q0 9 -6.5 16t-16.5 7h-210v-165h144v-90h-144v-165h210q10 0 16.5 7t6.5 16z" />
    <glyph glyph-name="Ntilde" unicode="&#xd1;" 
d="M423 301v399h140v-700h-140l-233 399v-399h-140v700h140zM226 818l-49 -58l-76 64l71 85q22 25 54 15l161 -56l49 59l77 -65l-71 -84q-22 -25 -55 -15z" />
    <glyph glyph-name="Ograve" unicode="&#xd2;" 
d="M400 0h-187q-67 0 -115 48t-48 115v374q0 67 48 115t115 48h187q68 0 115 -48q48 -48 48 -115v-374q0 -67 -48 -115q-47 -48 -115 -48zM400 560h-187q-9 0 -16 -7t-7 -16v-374q0 -9 7 -16t16 -7h187q10 0 16.5 7t6.5 16v374q0 9 -6.5 16t-16.5 7zM180 971l184 -129
l-57 -82l-185 129z" />
    <glyph glyph-name="Oacute" unicode="&#xd3;" 
d="M400 0h-187q-67 0 -115 48t-48 115v374q0 67 48 115t115 48h187q68 0 115 -48q48 -48 48 -115v-374q0 -67 -48 -115q-47 -48 -115 -48zM400 560h-187q-9 0 -16 -7t-7 -16v-374q0 -9 7 -16t16 -7h187q10 0 16.5 7t6.5 16v374q0 10 -6.5 16.5t-16.5 6.5zM428 979l63 -90
l-184 -129l-63 90z" />
    <glyph glyph-name="Ocircumflex" unicode="&#xd4;" 
d="M400 0h-187q-67 0 -115 48t-48 115v374q0 67 48 115t115 48h187q68 0 115 -48q48 -48 48 -115v-374q0 -67 -48 -115q-47 -48 -115 -48zM400 560h-187q-9 0 -16 -7t-7 -16v-374q0 -9 7 -16t16 -7h187q10 0 16.5 7t6.5 16v374q0 9 -6.5 16t-16.5 7zM471 838l-62 -78
l-102 81l-103 -81l-62 78l165 131z" />
    <glyph glyph-name="Otilde" unicode="&#xd5;" 
d="M400 0h-187q-67 0 -115 48t-48 115v374q0 67 48 115t115 48h187q68 0 115 -48q48 -48 48 -115v-374q0 -67 -48 -115q-47 -48 -115 -48zM400 560h-187q-9 0 -16 -7t-7 -16v-374q0 -9 7 -16t16 -7h187q10 0 16.5 7t6.5 16v374q0 9 -6.5 16t-16.5 7zM226 818l-49 -58l-76 64
l71 85q22 25 54 15l161 -56l49 59l77 -65l-71 -84q-22 -25 -55 -15z" />
    <glyph glyph-name="Odieresis" unicode="&#xd6;" 
d="M400 0h-187q-67 0 -115 48t-48 115v374q0 67 48 115t115 48h187q68 0 115 -48q48 -48 48 -115v-374q0 -67 -48 -115q-47 -48 -115 -48zM400 560h-187q-9 0 -16 -7t-7 -16v-374q0 -9 7 -16t16 -7h187q10 0 16.5 7t6.5 16v374q0 9 -6.5 16t-16.5 7zM467 760h-120v120h120
v-120zM267 760h-120v120h120v-120z" />
    <glyph glyph-name="multiply" unicode="&#xd7;" horiz-adv-x="487" 
d="M342 350l95 -94l-99 -99l-95 94l-92 -92l-99 99l92 92l-94 94l99 99l94 -94l93 92l99 -99z" />
    <glyph glyph-name="Oslash" unicode="&#xd8;" horiz-adv-x="612" 
d="M559 692l-31 -53q35 -46 35 -102v-374q0 -67 -48 -115q-47 -48 -115 -48h-187q-27 0 -54 9l-27 -46l-78 45l32 53q-36 45 -36 102v374q0 67 48 115t115 48h187q28 0 54 -9l27 46zM190 537v-297l187 320h-164q-9 0 -16 -7t-7 -16zM236 140h164q10 0 16.5 7t6.5 16v297z
" />
    <glyph glyph-name="Ugrave" unicode="&#xd9;" 
d="M423 163v537h140v-537q0 -67 -48 -115q-47 -48 -115 -48h-187q-67 0 -115 48t-48 115v537h140v-537q0 -9 7 -16t16 -7h187q10 0 16.5 7t6.5 16zM180 971l184 -129l-57 -82l-185 129z" />
    <glyph glyph-name="Uacute" unicode="&#xda;" 
d="M423 163v537h140v-537q0 -67 -48 -115q-47 -48 -115 -48h-187q-67 0 -115 48t-48 115v537h140v-537q0 -9 7 -16t16 -7h187q10 0 16.5 7t6.5 16zM307 760l-63 90l184 129l63 -90z" />
    <glyph glyph-name="Ucircumflex" unicode="&#xdb;" 
d="M423 163v537h140v-537q0 -67 -48 -115q-47 -48 -115 -48h-187q-67 0 -115 48t-48 115v537h140v-537q0 -9 7 -16t16 -7h187q10 0 16.5 7t6.5 16zM471 838l-62 -78l-102 81l-103 -81l-62 78l165 131z" />
    <glyph glyph-name="Udieresis" unicode="&#xdc;" 
d="M423 163v537h140v-537q0 -67 -48 -115q-47 -48 -115 -48h-187q-67 0 -115 48t-48 115v537h140v-537q0 -9 7 -16t16 -7h187q10 0 16.5 7t6.5 16zM467 760h-120v120h120v-120zM267 760h-120v120h120v-120z" />
    <glyph glyph-name="Yacute" unicode="&#xdd;" 
d="M423 566v134h140v-163q0 -28 -20 -50l-166 -166v-321h-140v321l-166 166q-21 21 -21 50v163h140v-134l117 -117zM307 760l-63 90l184 129l63 -90z" />
    <glyph glyph-name="Thorn" unicode="&#xde;" 
d="M190 560h210q68 0 115 -48q48 -48 48 -115v-94q0 -67 -48 -115q-47 -48 -115 -48h-210v-140h-140v700h140v-140zM423 303v94q0 9 -6.5 16t-16.5 7h-210v-140h210q10 0 16.5 7t6.5 16z" />
    <glyph glyph-name="germandbls" unicode="&#xdf;" horiz-adv-x="614" 
d="M550 266q14 -30 14 -57v-46q0 -67 -48 -115t-116 -48h-158v140h158q10 0 17 7t7 16v42q-3 8 -18 16l-145 73q-24 14 -24 41v39q0 18 13 31t31 13q49 0 49 33v86q0 9 -7 16t-17 7h-93q-9 0 -16 -7t-7 -16v-537h-140v537q0 67 48 115t115 48h93q68 0 116 -48t48 -115v-93
q0 -48 -25 -86l22 -12q58 -28 83 -80z" />
    <glyph glyph-name="agrave" unicode="&#xe0;" 
d="M416 661l140 -280q7 -13 7 -31v-350h-140v187h-233v-187h-140v350q0 18 7 31l140 280q19 39 63 39h93q43 0 63 -39zM190 327h233v6l-113 227h-7l-113 -227v-6zM180 971l184 -129l-57 -82l-185 129z" />
    <glyph glyph-name="aacute" unicode="&#xe1;" 
d="M416 661l140 -280q7 -13 7 -31v-350h-140v187h-233v-187h-140v350q0 18 7 31l140 280q19 39 63 39h93q43 0 63 -39zM190 327h233v6l-113 227h-7l-113 -227v-6zM428 979l63 -90l-184 -129l-63 90z" />
    <glyph glyph-name="acircumflex" unicode="&#xe2;" 
d="M416 661l140 -280q7 -13 7 -31v-350h-140v187h-233v-187h-140v350q0 18 7 31l140 280q19 39 63 39h93q43 0 63 -39zM190 327h233v6l-113 227h-7l-113 -227v-6zM471 838l-62 -78l-102 81l-103 -81l-62 78l165 131z" />
    <glyph glyph-name="atilde" unicode="&#xe3;" 
d="M416 661l140 -280q7 -13 7 -31v-350h-140v187h-233v-187h-140v350q0 18 7 31l140 280q19 39 63 39h93q43 0 63 -39zM190 327h233v6l-113 227h-7l-113 -227v-6zM226 818l-49 -58l-76 64l71 85q22 25 54 15l161 -56l49 59l77 -65l-71 -84q-22 -25 -55 -15z" />
    <glyph glyph-name="adieresis" unicode="&#xe4;" 
d="M416 661l140 -280q7 -13 7 -31v-350h-140v187h-233v-187h-140v350q0 18 7 31l140 280q19 39 63 39h93q43 0 63 -39zM190 327h233v6l-113 227h-7l-113 -227v-6zM467 760h-120v120h120v-120zM267 760h-120v120h120v-120z" />
    <glyph glyph-name="aring" unicode="&#xe5;" 
d="M416 661l140 -280q7 -13 7 -31v-350h-140v187h-233v-187h-140v350q0 18 7 31l140 280q19 39 63 39h93q43 0 63 -39zM190 327h233v6l-113 227h-7l-113 -227v-6zM307 984q47 0 81 -34t34 -81q0 -48 -34 -82q-34 -33 -81.5 -33t-81.5 33q-33 35 -33 82q0 48 33.5 81.5
t81.5 33.5zM307 819q20 0 35 14.5t15 35.5t-15 35.5t-36 14.5q-20 0 -34.5 -14.5t-14.5 -35.5t14.5 -35.5t35.5 -14.5z" />
    <glyph glyph-name="ae" unicode="&#xe6;" horiz-adv-x="987" 
d="M937 700v-140l-375 -1v-140h280v-140h-280v-140h373v-140h-513v187h-233v-187h-140v350q0 14 8 32l140 280q19 39 63 39h677zM189 326h233v1v233h-120l-113 -227v-7z" />
    <glyph glyph-name="ccedilla" unicode="&#xe7;" 
d="M563 537v-70h-140v70q0 9 -6.5 16t-16.5 7h-187q-9 0 -16 -7t-7 -16v-374q0 -9 7 -16t16 -7h187q10 0 16.5 7t6.5 16v70h140v-70q0 -67 -48 -115q-47 -48 -115 -48h-33v-75q0 -25 -18 -42l-100 -100l-85 85l83 82v50h-34q-67 0 -115 48t-48 115v374q0 67 48 115t115 48
h187q67 0 115 -48t48 -115z" />
    <glyph glyph-name="egrave" unicode="&#xe8;" 
d="M563 700v-140h-373v-140h280v-140h-280v-140h373v-140h-513v700h513zM306 760l-184 129l57 82l184 -129z" />
    <glyph glyph-name="eacute" unicode="&#xe9;" 
d="M563 700v-140h-373v-140h280v-140h-280v-140h373v-140h-513v700h513zM428 979l63 -90l-184 -129l-63 90z" />
    <glyph glyph-name="ecircumflex" unicode="&#xea;" 
d="M563 700v-140h-373v-140h280v-140h-280v-140h373v-140h-513v700h513zM471 838l-62 -78l-102 81l-102 -81l-62 78l164 131z" />
    <glyph glyph-name="edieresis" unicode="&#xeb;" 
d="M563 700v-140h-373v-140h280v-140h-280v-140h373v-140h-513v700h513zM467 760h-120v120h120v-120zM267 760h-120v120h120v-120z" />
    <glyph glyph-name="igrave" unicode="&#xec;" horiz-adv-x="245" 
d="M-5 971l184 -129l-57 -82l-184 129zM196 0h-140v700h140v-700z" />
    <glyph glyph-name="iacute" unicode="&#xed;" horiz-adv-x="240" 
d="M190 0h-140v700h140v-700zM240 979l63 -90l-184 -129l-63 90z" />
    <glyph glyph-name="icircumflex" unicode="&#xee;" horiz-adv-x="238" 
d="M284 838l-62 -78l-102 81l-102 -81l-62 78l164 131zM190 0h-140v700h140v-700z" />
    <glyph glyph-name="idieresis" unicode="&#xef;" horiz-adv-x="240" 
d="M280 760h-120v120h120v-120zM80 760h-120v120h120v-120zM190 0h-140v700h140v-700z" />
    <glyph glyph-name="eth" unicode="&#xf0;" horiz-adv-x="663" 
d="M100 700h350q68 0 115 -48q48 -48 48 -115v-374q0 -67 -48 -115q-47 -48 -115 -48h-350v305h-50v90h50v305zM473 163v374q0 9 -6.5 16t-16.5 7h-210v-165h144v-90h-144v-165h210q10 0 16.5 7t6.5 16z" />
    <glyph glyph-name="ntilde" unicode="&#xf1;" 
d="M423 301v399h140v-700h-140l-233 399v-399h-140v700h140zM226 818l-49 -58l-77 64l71 85q22 27 55 15l161 -55l49 58l77 -64l-71 -85q-22 -27 -55 -15z" />
    <glyph glyph-name="ograve" unicode="&#xf2;" 
d="M400 0h-187q-67 0 -115 48t-48 115v374q0 67 48 115t115 48h187q68 0 115 -48q48 -48 48 -115v-374q0 -67 -48 -115q-47 -48 -115 -48zM400 560h-187q-9 0 -16 -7t-7 -16v-374q0 -9 7 -16t16 -7h187q10 0 16.5 7t6.5 16v374q0 9 -6.5 16t-16.5 7zM180 971l184 -129
l-57 -82l-185 129z" />
    <glyph glyph-name="oacute" unicode="&#xf3;" 
d="M400 0h-187q-67 0 -115 48t-48 115v374q0 67 48 115t115 48h187q68 0 115 -48q48 -48 48 -115v-374q0 -67 -48 -115q-47 -48 -115 -48zM400 560h-187q-9 0 -16 -7t-7 -16v-374q0 -9 7 -16t16 -7h187q10 0 16.5 7t6.5 16v374q0 10 -6.5 16.5t-16.5 6.5zM428 979l63 -90
l-184 -129l-63 90z" />
    <glyph glyph-name="ocircumflex" unicode="&#xf4;" 
d="M400 0h-187q-67 0 -115 48t-48 115v374q0 67 48 115t115 48h187q68 0 115 -48q48 -48 48 -115v-374q0 -67 -48 -115q-47 -48 -115 -48zM400 560h-187q-9 0 -16 -7t-7 -16v-374q0 -9 7 -16t16 -7h187q10 0 16.5 7t6.5 16v374q0 9 -6.5 16t-16.5 7zM471 838l-62 -78
l-102 81l-103 -81l-62 78l165 131z" />
    <glyph glyph-name="otilde" unicode="&#xf5;" 
d="M400 0h-187q-67 0 -115 48t-48 115v374q0 67 48 115t115 48h187q68 0 115 -48q48 -48 48 -115v-374q0 -67 -48 -115q-47 -48 -115 -48zM400 560h-187q-9 0 -16 -7t-7 -16v-374q0 -9 7 -16t16 -7h187q10 0 16.5 7t6.5 16v374q0 9 -6.5 16t-16.5 7zM226 818l-49 -58l-76 64
l71 85q22 25 54 15l161 -56l49 59l77 -65l-71 -84q-22 -25 -55 -15z" />
    <glyph glyph-name="odieresis" unicode="&#xf6;" 
d="M400 0h-187q-67 0 -115 48t-48 115v374q0 67 48 115t115 48h187q68 0 115 -48q48 -48 48 -115v-374q0 -67 -48 -115q-47 -48 -115 -48zM400 560h-187q-9 0 -16 -7t-7 -16v-374q0 -9 7 -16t16 -7h187q10 0 16.5 7t6.5 16v374q0 9 -6.5 16t-16.5 7zM467 760h-120v120h120
v-120zM267 760h-120v120h120v-120z" />
    <glyph glyph-name="divide" unicode="&#xf7;" horiz-adv-x="614" 
d="M564 279h-514v140h514v-140zM377 479h-140v140h140v-140zM377 80h-140v140h140v-140z" />
    <glyph glyph-name="oslash" unicode="&#xf8;" horiz-adv-x="612" 
d="M559 692l-31 -53q35 -46 35 -102v-374q0 -67 -48 -115q-47 -48 -115 -48h-187q-27 0 -54 9l-27 -46l-78 45l32 53q-36 45 -36 102v374q0 67 48 115t115 48h187q28 0 54 -9l27 46zM190 537v-297l187 320h-164q-9 0 -16 -7t-7 -16zM236 140h164q10 0 16.5 7t6.5 16v297z
" />
    <glyph glyph-name="ugrave" unicode="&#xf9;" 
d="M423 163v537h140v-537q0 -67 -48 -115q-47 -48 -115 -48h-187q-67 0 -115 48t-48 115v537h140v-537q0 -9 7 -16t16 -7h187q10 0 16.5 7t6.5 16zM180 971l184 -129l-57 -82l-185 129z" />
    <glyph glyph-name="uacute" unicode="&#xfa;" 
d="M423 163v537h140v-537q0 -67 -48 -115q-47 -48 -115 -48h-187q-67 0 -115 48t-48 115v537h140v-537q0 -9 7 -16t16 -7h187q10 0 16.5 7t6.5 16zM307 760l-63 90l184 129l63 -90z" />
    <glyph glyph-name="ucircumflex" unicode="&#xfb;" 
d="M423 163v537h140v-537q0 -67 -48 -115q-47 -48 -115 -48h-187q-67 0 -115 48t-48 115v537h140v-537q0 -9 7 -16t16 -7h187q10 0 16.5 7t6.5 16zM471 838l-62 -78l-102 81l-103 -81l-62 78l165 131z" />
    <glyph glyph-name="udieresis" unicode="&#xfc;" 
d="M423 163v537h140v-537q0 -67 -48 -115q-47 -48 -115 -48h-187q-67 0 -115 48t-48 115v537h140v-537q0 -9 7 -16t16 -7h187q10 0 16.5 7t6.5 16zM467 760h-120v120h120v-120zM267 760h-120v120h120v-120z" />
    <glyph glyph-name="yacute" unicode="&#xfd;" 
d="M423 566v134h138v-163q0 -30 -20 -50l-166 -166v-321h-140v321l-166 166q-20 20 -20 50v163h140v-134l117 -117zM305 760l-63 90l184 129l63 -90z" />
    <glyph glyph-name="thorn" unicode="&#xfe;" 
d="M190 560h210v-1q68 0 115 -48q48 -47 48 -115v-93q0 -67 -48 -115q-47 -48 -115 -48h-210v-140h-140v700h140v-140zM423 302v94q0 10 -6.5 16.5t-16.5 6.5h-210v-140h210q10 0 16.5 6.5t6.5 16.5z" />
    <glyph glyph-name="ydieresis" unicode="&#xff;" 
d="M423 566v134h138v-163q0 -30 -20 -50l-166 -166v-321h-140v321l-166 166q-20 20 -20 50v163h140v-134l117 -117zM464 760h-120v120h120v-120zM264 760h-120v120h120v-120z" />
    <glyph glyph-name="Amacron" unicode="&#x100;" 
d="M416 661l140 -280q7 -13 7 -31v-350h-140v187h-233v-187h-140v350q0 18 7 31l140 280q19 39 63 39h93q43 0 63 -39zM190 327h233v6l-113 227h-7l-113 -227v-6zM467 760h-320v100h320v-100z" />
    <glyph glyph-name="amacron" unicode="&#x101;" 
d="M416 661l140 -280q7 -13 7 -31v-350h-140v187h-233v-187h-140v350q0 18 7 31l140 280q19 39 63 39h93q43 0 63 -39zM190 327h233v6l-113 227h-7l-113 -227v-6zM467 760h-320v100h320v-100z" />
    <glyph glyph-name="Abreve" unicode="&#x102;" 
d="M416 661l140 -280q7 -13 7 -31v-350h-140v187h-233v-187h-140v350q0 18 7 31l140 280q19 39 63 39h93q43 0 63 -39zM190 327h233v6l-113 227h-7l-113 -227v-6zM370 921h99q0 -67 -48 -115q-47 -47 -115 -47q-66 0 -115 47q-47 49 -47 115h99q0 -26 18.5 -44.5t45.5 -18.5
q25 0 44 19t19 44z" />
    <glyph glyph-name="abreve" unicode="&#x103;" 
d="M416 661l140 -280q7 -13 7 -31v-350h-140v187h-233v-187h-140v350q0 18 7 31l140 280q19 39 63 39h93q43 0 63 -39zM190 327h233v6l-113 227h-7l-113 -227v-6zM370 921h99q0 -67 -48 -115q-47 -47 -115 -47q-66 0 -115 47q-47 49 -47 115h99q0 -26 18.5 -44.5t45.5 -18.5
q25 0 44 19t19 44z" />
    <glyph glyph-name="Aogonek" unicode="&#x104;" 
d="M563 0h-28l-49 -76q-4 -5 -4 -14q0 -10 7 -17.5t17 -7.5h57v-100h-75q-42 0 -75 27q-33 28 -39 71t17 79l32 50v175h-233v-187h-140v350q0 18 7 31l140 280q19 39 63 39h93q43 0 63 -39l140 -280q7 -13 7 -31v-350zM190 333v-6h233v6l-113 227h-7z" />
    <glyph glyph-name="aogonek" unicode="&#x105;" 
d="M563 0h-28l-49 -76q-4 -5 -4 -14q0 -10 7 -17.5t17 -7.5h57v-100h-75q-42 0 -75 27q-33 28 -39 71t17 79l32 50v175h-233v-187h-140v350q0 18 7 31l140 280q19 39 63 39h93q43 0 63 -39l140 -280q7 -13 7 -31v-350zM190 333v-6h233v6l-113 227h-7z" />
    <glyph glyph-name="Cacute" unicode="&#x106;" 
d="M563 537v-70h-140v70q0 10 -6.5 16.5t-16.5 6.5h-187q-9 0 -16 -7t-7 -16v-374q0 -9 7 -16t16 -7h187q10 0 16.5 7t6.5 16v70h140v-70q0 -67 -48 -115q-47 -48 -115 -48h-187q-67 0 -115 48t-48 115v374q0 67 48 115t115 48h187q67 0 115 -48t48 -115zM428 979l63 -90
l-184 -129l-63 90z" />
    <glyph glyph-name="cacute" unicode="&#x107;" 
d="M563 537v-70h-140v70q0 10 -6.5 16.5t-16.5 6.5h-187q-9 0 -16 -7t-7 -16v-374q0 -9 7 -16t16 -7h187q10 0 16.5 7t6.5 16v70h140v-70q0 -67 -48 -115q-47 -48 -115 -48h-187q-67 0 -115 48t-48 115v374q0 67 48 115t115 48h187q67 0 115 -48t48 -115zM428 979l63 -90
l-184 -129l-63 90z" />
    <glyph glyph-name="Ccircumflex" unicode="&#x108;" 
d="M563 537v-70h-140v70q0 9 -6.5 16t-16.5 7h-187q-9 0 -16 -7t-7 -16v-374q0 -9 7 -16t16 -7h187q10 0 16.5 7t6.5 16v70h140v-70q0 -67 -48 -115q-47 -48 -115 -48h-187q-67 0 -115 48t-48 115v374q0 67 48 115t115 48h187q67 0 115 -48t48 -115zM471 838l-62 -78
l-102 81l-103 -81l-62 78l165 131z" />
    <glyph glyph-name="ccircumflex" unicode="&#x109;" 
d="M563 537v-70h-140v70q0 9 -6.5 16t-16.5 7h-187q-9 0 -16 -7t-7 -16v-374q0 -9 7 -16t16 -7h187q10 0 16.5 7t6.5 16v70h140v-70q0 -67 -48 -115q-47 -48 -115 -48h-187q-67 0 -115 48t-48 115v374q0 67 48 115t115 48h187q67 0 115 -48t48 -115zM471 838l-62 -78
l-102 81l-103 -81l-62 78l165 131z" />
    <glyph glyph-name="Cdotaccent" unicode="&#x10a;" 
d="M400 0h-187q-67 0 -115 48t-48 115v374q0 67 48 115t115 48h187q68 0 115 -48q48 -48 48 -115v-70h-140v70q0 9 -6.5 16t-16.5 7h-187q-9 0 -16 -7t-7 -16v-374q0 -9 7 -16t16 -7h187q10 0 16.5 7t6.5 16v70h140v-70q0 -67 -48 -115q-47 -48 -115 -48zM377 770h-140v140
h140v-140z" />
    <glyph glyph-name="cdotaccent" unicode="&#x10b;" 
d="M400 0h-187q-67 0 -115 48t-48 115v374q0 67 48 115t115 48h187q68 0 115 -48q48 -48 48 -115v-70h-140v70q0 9 -6.5 16t-16.5 7h-187q-9 0 -16 -7t-7 -16v-374q0 -9 7 -16t16 -7h187q10 0 16.5 7t6.5 16v70h140v-70q0 -67 -48 -115q-47 -48 -115 -48zM377 770h-140v140
h140v-140z" />
    <glyph glyph-name="Ccaron" unicode="&#x10c;" 
d="M563 537v-70h-140v70q0 9 -6.5 16t-16.5 7h-187q-9 0 -16 -7t-7 -16v-374q0 -9 7 -16t16 -7h187q10 0 16.5 7t6.5 16v70h140v-70q0 -67 -48 -115q-47 -48 -115 -48h-187q-67 0 -115 48t-48 115v374q0 67 48 115t115 48h187q67 0 115 -48t48 -115zM342 760h-70l-130 103
l62 78l103 -81l102 81l62 -78z" />
    <glyph glyph-name="ccaron" unicode="&#x10d;" 
d="M563 537v-70h-140v70q0 9 -6.5 16t-16.5 7h-187q-9 0 -16 -7t-7 -16v-374q0 -9 7 -16t16 -7h187q10 0 16.5 7t6.5 16v70h140v-70q0 -67 -48 -115q-47 -48 -115 -48h-187q-67 0 -115 48t-48 115v374q0 67 48 115t115 48h187q67 0 115 -48t48 -115zM342 760h-70l-130 103
l62 78l103 -81l102 81l62 -78z" />
    <glyph glyph-name="Dcaron" unicode="&#x10e;" 
d="M50 700h350q68 0 115 -48q48 -48 48 -115v-374q0 -67 -48 -115q-47 -48 -115 -48h-350v700zM423 163v374q0 9 -6.5 16t-16.5 7h-210v-420h210q10 0 16.5 6.5t6.5 16.5zM342 760h-70l-130 103l62 78l103 -81l102 81l62 -78z" />
    <glyph glyph-name="dcaron" unicode="&#x10f;" 
d="M50 700h350q68 0 115 -48q48 -48 48 -115v-374q0 -67 -48 -115q-47 -48 -115 -48h-350v700zM423 163v374q0 9 -6.5 16t-16.5 7h-210v-420h210q10 0 16.5 6.5t6.5 16.5zM342 760h-70l-130 103l62 78l103 -81l102 81l62 -78z" />
    <glyph glyph-name="Dcroat" unicode="&#x110;" horiz-adv-x="663" 
d="M100 700h350q68 0 115 -48q48 -48 48 -115v-374q0 -67 -48 -115q-47 -48 -115 -48h-350v305h-50v90h50v305zM473 163v374q0 10 -6.5 16.5t-16.5 6.5h-210v-165h144v-90h-144v-165h210q10 0 16.5 7t6.5 16z" />
    <glyph glyph-name="dslash" unicode="&#x111;" horiz-adv-x="663" 
d="M100 700h350q68 0 115 -48q48 -48 48 -115v-374q0 -67 -48 -115q-47 -48 -115 -48h-350v305h-50v90h50v305zM473 163v374q0 10 -6.5 16.5t-16.5 6.5h-210v-165h144v-90h-144v-165h210q10 0 16.5 7t6.5 16z" />
    <glyph glyph-name="Emacron" unicode="&#x112;" 
d="M563 700v-140h-373v-140h280v-140h-280v-140h373v-140h-513v700h513zM467 760h-320v100h320v-100z" />
    <glyph glyph-name="emacron" unicode="&#x113;" 
d="M563 700v-140h-373v-140h280v-140h-280v-140h373v-140h-513v700h513zM467 760h-320v100h320v-100z" />
    <glyph glyph-name="Ebreve" unicode="&#x114;" 
d="M563 700v-140h-373v-140h280v-140h-280v-140h373v-140h-513v700h513zM370 921h99q0 -67 -48 -115q-47 -47 -115 -47q-66 0 -115 47q-47 49 -47 115h99q0 -26 18.5 -44.5t45.5 -18.5q25 0 44 19t19 44z" />
    <glyph glyph-name="ebreve" unicode="&#x115;" 
d="M563 700v-140h-373v-140h280v-140h-280v-140h373v-140h-513v700h513zM370 921h2h99q0 -67 -48 -115q-47 -48 -115 -48t-116 48q-47 49 -47 115h99q0 -26 18.5 -44.5t44.5 -18.5t44.5 18.5t18.5 44.5z" />
    <glyph glyph-name="Edotaccent" unicode="&#x116;" 
d="M377 760h-140v140h140v-140zM563 700v-140h-373v-140h280v-140h-280v-140h373v-140h-513v700h513z" />
    <glyph glyph-name="edotaccent" unicode="&#x117;" 
d="M377 760h-140v140h140v-140zM563 700v-140h-373v-140h280v-140h-280v-140h373v-140h-513v700h513z" />
    <glyph glyph-name="Eogonek" unicode="&#x118;" 
d="M563 700v-140h-373v-140h280v-140h-280v-140h373v-140h-141l-49 -76q-5 -7 -5 -14q0 -10 7.5 -17.5t17.5 -7.5h57v-100h-76q-42 0 -74 27q-33 28 -39 71t17 79l24 38h-252v700h513z" />
    <glyph glyph-name="eogonek" unicode="&#x119;" 
d="M563 700v-140h-373v-140h280v-140h-280v-140h373v-140h-141l-49 -76q-5 -7 -5 -14q0 -10 7.5 -17.5t17.5 -7.5h57v-100h-76q-42 0 -74 27q-33 28 -39 71t17 79l24 38h-252v700h513z" />
    <glyph glyph-name="Ecaron" unicode="&#x11a;" 
d="M563 700v-140h-373v-140h280v-140h-280v-140h373v-140h-513v700h513zM342 760h-70l-130 103l62 78l103 -81l102 81l62 -78z" />
    <glyph glyph-name="ecaron" unicode="&#x11b;" 
d="M563 700v-140h-373v-140h280v-140h-280v-140h373v-140h-513v700h513zM342 760h-70l-128 103l62 78l102 -81l102 81l62 -78z" />
    <glyph glyph-name="Gcircumflex" unicode="&#x11c;" 
d="M400 0h-187q-67 0 -115 48t-48 115v374q0 67 48 115t115 48h187q68 0 115 -48q48 -48 48 -115v-70h-140v70q0 9 -6.5 16t-16.5 7h-187q-9 0 -16 -7t-7 -16v-374q0 -9 7 -16t16 -7h187q10 0 16.5 7t6.5 16v69l-146 35l32 136l200 -47q24 -6 39 -25t15 -43v-125
q0 -67 -48 -115q-47 -48 -115 -48zM471 838l-62 -78l-102 81l-103 -81l-62 78l165 131z" />
    <glyph glyph-name="gcircumflex" unicode="&#x11d;" 
d="M400 0l-187 -1q-66 0 -115 47q-48 48 -48 116v373q0 67 48 115t115 48h187q68 0 115 -48q48 -48 48 -115v-70h-140v70q0 10 -6.5 16.5t-16.5 6.5h-187q-10 0 -16.5 -6.5t-6.5 -16.5v-373q0 -10 6.5 -16.5t16.5 -6.5h187q10 0 16.5 6.5t6.5 16.5v69l-146 34l32 136
l200 -47q24 -5 39 -24t15 -43v-124q0 -67 -48 -115q-47 -48 -115 -48zM471 837l-62 -78l-102 81l-102 -81l-62 78l164 131z" />
    <glyph glyph-name="Gbreve" unicode="&#x11e;" 
d="M563 537v-70h-140v70q0 9 -6.5 16t-16.5 7h-187q-9 0 -16 -7t-7 -16v-374q0 -9 7 -16t16 -7h187q10 0 16.5 7t6.5 16v69l-146 35l32 136l200 -47q24 -6 39 -25t15 -43v-125q0 -67 -48 -115q-47 -48 -115 -48h-187q-67 0 -115 48t-48 115v374q0 67 48 115t115 48h187
q68 0 115 -48q48 -48 48 -115zM370 921h99q0 -67 -48 -115q-47 -47 -115 -47q-66 0 -115 47q-47 49 -47 115h99q0 -25 18.5 -44t44.5 -19q27 0 45.5 18.5t18.5 44.5z" />
    <glyph glyph-name="gbreve" unicode="&#x11f;" 
d="M563 537v-70v-1h-140v70q0 10 -6.5 16.5t-16.5 6.5h-187q-10 0 -16.5 -6.5t-6.5 -16.5v-373q0 -10 6.5 -16.5t16.5 -6.5h187q10 0 16.5 6.5t6.5 16.5v69l-146 34l32 136l200 -47q24 -5 39 -24t15 -43v-124q0 -68 -48 -116q-47 -47 -115 -47h-187q-66 0 -115 47
q-48 48 -48 116v373q0 67 48 115t115 48h187q68 0 115 -48q48 -48 48 -115zM370 921h2h99q0 -67 -48 -115q-47 -48 -115 -48t-116 48q-47 49 -47 115h99q0 -26 18.5 -44.5t44.5 -18.5t44.5 18.5t18.5 44.5z" />
    <glyph glyph-name="Gdotaccent" unicode="&#x120;" 
d="M563 537v-70h-140v70q0 10 -6.5 16.5t-16.5 6.5h-187q-9 0 -16 -7t-7 -16v-374q0 -9 7 -16t16 -7h187q10 0 16.5 7t6.5 16v69l-146 35l32 136l200 -47q24 -6 39 -25t15 -43v-125q0 -67 -48 -115q-47 -48 -115 -48h-187q-67 0 -115 48t-48 115v374q0 67 48 115t115 48h187
q68 0 115 -48q48 -48 48 -115zM377 760h-140v140h140v-140z" />
    <glyph glyph-name="gdotaccent" unicode="&#x121;" 
d="M563 537v-70h-140v70q0 10 -6.5 16.5t-16.5 6.5h-187q-9 0 -16 -7t-7 -16v-374q0 -9 7 -16t16 -7h187q10 0 16.5 7t6.5 16v69l-146 35l32 136l200 -47q24 -6 39 -25t15 -43v-125q0 -67 -48 -115q-47 -48 -115 -48h-187q-67 0 -115 48t-48 115v374q0 67 48 115t115 48h187
q68 0 115 -48q48 -48 48 -115zM377 760h-140v140h140v-140z" />
    <glyph glyph-name="Gcommaaccent" unicode="&#x122;" 
d="M400 0h-187q-67 0 -115 48t-48 115v374q0 67 48 115t115 48h187q68 0 115 -48q48 -48 48 -115v-70h-140v70q0 9 -6.5 16t-16.5 7h-187q-9 0 -16 -7t-7 -16v-374q0 -9 7 -16t16 -7h187q10 0 16.5 6.5t6.5 16.5v69l-146 35l32 136l200 -47q24 -6 39 -25t15 -43v-125
q0 -67 -48 -115q-47 -48 -115 -48zM200 -168l47 48v60h120v-85q0 -25 -17 -42l-66 -65z" />
    <glyph glyph-name="gcommaaccent" unicode="&#x123;" 
d="M400 0h-187q-67 0 -115 48t-48 115v374q0 67 48 115t115 48h187q68 0 115 -48q48 -48 48 -115v-70h-140v70q0 9 -6.5 16t-16.5 7h-187q-9 0 -16 -7t-7 -16v-374q0 -9 7 -16t16 -7h187q10 0 16.5 6.5t6.5 16.5v69l-146 35l32 136l200 -47q24 -6 39 -25t15 -43v-125
q0 -67 -48 -115q-47 -48 -115 -48zM200 -168l47 48v60h120v-85q0 -25 -17 -42l-66 -65z" />
    <glyph glyph-name="Hcircumflex" unicode="&#x124;" 
d="M423 420v280h140v-700h-140v280h-233v-280h-140v700h140v-280h233zM471 838l-62 -78l-102 81l-103 -81l-62 78l165 131z" />
    <glyph glyph-name="hcircumflex" unicode="&#x125;" 
d="M423 420v280h140v-700h-140v280h-233v-280h-140v700h140v-280h233zM471 838l-62 -78l-102 81l-102 -81l-62 78l164 131z" />
    <glyph glyph-name="Hbar" unicode="&#x126;" horiz-adv-x="722" 
d="M618 600h55v-90h-55v-510h-140v280h-233v-280h-140v510h-55v90h55v100h140v-100h233v100h140v-100zM245 420h233v90h-233v-90z" />
    <glyph glyph-name="hbar" unicode="&#x127;" horiz-adv-x="722" 
d="M618 600h55v-90h-55v-510h-140v280h-233v-280h-140v510h-55v90h55v100h140v-100h233v100h140v-100zM245 420h233v90h-233v-90z" />
    <glyph glyph-name="Itilde" unicode="&#x128;" horiz-adv-x="240" 
d="M39 818l-48 -58l-77 64l71 85q23 25 54 15l162 -56l49 59l76 -65l-71 -84q-23 -26 -54 -15zM190 0h-140v700h140v-700z" />
    <glyph glyph-name="itilde" unicode="&#x129;" horiz-adv-x="240" 
d="M40 818l-49 -58l-77 64l71 85q22 27 55 15l161 -55l49 58l77 -64l-71 -85q-22 -27 -55 -15zM190 0h-140v700h140v-700z" />
    <glyph glyph-name="Imacron" unicode="&#x12a;" horiz-adv-x="240" 
d="M190 0h-140v700h140v-700zM280 760h-320v100h320v-100z" />
    <glyph glyph-name="imacron" unicode="&#x12b;" horiz-adv-x="240" 
d="M190 0h-140v700h140v-700zM280 760h-320v100h320v-100z" />
    <glyph glyph-name="Ibreve" unicode="&#x12c;" horiz-adv-x="244" 
d="M186 921h99q0 -67 -48 -115q-47 -47 -115 -47q-66 0 -115 47q-47 49 -47 115h99q0 -26 18.5 -44.5t44.5 -18.5q27 0 45.5 18.5t18.5 44.5zM194 0h-140v700h140v-700z" />
    <glyph glyph-name="ibreve" unicode="&#x12d;" horiz-adv-x="244" 
d="M186 921h101q0 -67 -48 -115q-46 -48 -115 -48q-68 0 -116 48q-47 49 -47 115h99q0 -26 18.5 -44.5t44.5 -18.5t44.5 18.5t18.5 44.5zM196 0h-140v700h140v-700z" />
    <glyph glyph-name="Iogonek" unicode="&#x12e;" horiz-adv-x="239" 
d="M196 0h-28l-49 -76q-4 -5 -4 -14q0 -10 7 -17.5t17 -7.5h57v-100h-75q-43 0 -74 27q-33 28 -39.5 71t16.5 79l32 50v688h140v-700z" />
    <glyph glyph-name="iogonek" unicode="&#x12f;" horiz-adv-x="239" 
d="M196 0h-28l-49 -76q-4 -5 -4 -14q0 -10 7 -17.5t17 -7.5h57v-100h-75q-43 0 -74 27q-33 28 -39.5 71t16.5 79l32 50v688h140v-700z" />
    <glyph glyph-name="Idot" unicode="&#x130;" horiz-adv-x="240" 
d="M190 760h-140v140h140v-140zM190 0h-140v700h140v-700z" />
    <glyph glyph-name="dotlessi" unicode="&#x131;" horiz-adv-x="240" 
d="M190 0h-140v700h140v-700z" />
    <glyph glyph-name="IJ" unicode="&#x132;" horiz-adv-x="823" 
d="M610 0h-187q-68 0 -115.5 48t-47.5 115v70h140v-70q0 -9 6.5 -16t16.5 -7h187q9 0 16 7t7 16v537h140v-537q0 -67 -48 -115t-115 -48zM190 0h-140v700h140v-700z" />
    <glyph glyph-name="ij" unicode="&#x133;" horiz-adv-x="823" 
d="M610 0h-187q-68 0 -115.5 48t-47.5 115v70h140v-70q0 -9 6.5 -16t16.5 -7h187q9 0 16 7t7 16v537h140v-537q0 -67 -48 -115t-115 -48zM190 0h-140v700h140v-700z" />
    <glyph glyph-name="Jcircumflex" unicode="&#x134;" 
d="M400 0h-187q-67 0 -115 48t-48 115v70h140v-70q0 -9 7 -16t16 -7h187q10 0 16.5 7t6.5 16v537h140v-537q0 -67 -48 -115q-47 -48 -115 -48zM658 838l-62 -78l-103 81l-102 -81l-62 78l164 131z" />
    <glyph glyph-name="jcircumflex" unicode="&#x135;" 
d="M400 0h-187q-67 0 -115 48t-48 115v70h140v-70q0 -9 7 -16t16 -7h187q10 0 16.5 7t6.5 16v537h140v-537q0 -67 -48 -115q-47 -48 -115 -48zM658 838l-62 -78l-103 81l-102 -81l-62 78l164 131z" />
    <glyph glyph-name="Kcommaaccent" unicode="&#x136;" 
d="M563 700v-210q0 -29 -20 -49l-91 -91l91 -91q20 -20 20 -49v-210h-140v181l-99 99h-134v-280h-140v700h140v-280h134l99 99v181h140zM200 -168l47 48v60h120v-85q0 -25 -17 -42l-66 -65z" />
    <glyph glyph-name="kcommaaccent" unicode="&#x137;" 
d="M563 700v-210q0 -29 -20 -49l-91 -91l91 -91q20 -20 20 -49v-210h-140v181l-99 99h-134v-280h-140v700h140v-280h134l99 99v181h140zM200 -168l47 48v60h120v-85q0 -25 -17 -42l-66 -65z" />
    <glyph glyph-name="kgreenlandic" unicode="&#x138;" horiz-adv-x="510" 
d="M460 500v-160q0 -30 -21 -49l-40 -41l40 -41q21 -19 21 -49v-160h-140v131l-49 49h-81v-180h-140v500h140v-180h81l49 49v131h140z" />
    <glyph glyph-name="Lacute" unicode="&#x139;" 
d="M190 700v-560h373v-140h-513v700h140zM240 979l63 -90l-184 -129l-63 90z" />
    <glyph glyph-name="lacute" unicode="&#x13a;" 
d="M190 700v-560h373v-140h-513v700h140zM240 979l63 -90l-184 -129l-63 90z" />
    <glyph glyph-name="Lcommaaccent" unicode="&#x13b;" 
d="M190 700v-560h373v-140h-513v700h140zM200 -168l47 48v60h120v-85q0 -25 -17 -42l-66 -65z" />
    <glyph glyph-name="lcommaaccent" unicode="&#x13c;" 
d="M190 700v-560h373v-140h-513v700h140zM200 -168l47 48v60h120v-85q0 -25 -17 -42l-66 -65z" />
    <glyph glyph-name="Lcaron" unicode="&#x13d;" 
d="M190 700v-560h373v-140h-513v700h140zM424 563l-78 -78l-85 85l61 60v70h120v-95q0 -25 -18 -42z" />
    <glyph glyph-name="lcaron" unicode="&#x13e;" 
d="M190 700v-560h373v-140h-513v700h140zM424 563l-78 -78l-85 85l61 60v70h120v-95q0 -25 -18 -42z" />
    <glyph glyph-name="Ldot" unicode="&#x13f;" 
d="M563 140v-140h-513v700h140v-560h373zM540 290h-140v140h140v-140z" />
    <glyph glyph-name="ldot" unicode="&#x140;" 
d="M563 140v-140h-513v700h140v-560h373zM540 290h-140v140h140v-140z" />
    <glyph glyph-name="Lslash" unicode="&#x141;" horiz-adv-x="663" 
d="M50 253l50 28v419h140v-338l211 122v-104l-211 -122v-118h373v-140h-513v177l-50 -28v104z" />
    <glyph glyph-name="lslash" unicode="&#x142;" horiz-adv-x="663" 
d="M50 253l50 28v419h140v-338l211 122v-104l-211 -122v-118h373v-140h-513v177l-50 -28v104z" />
    <glyph glyph-name="Nacute" unicode="&#x143;" 
d="M423 301v399h140v-700h-140l-233 399v-399h-140v700h140zM428 979l63 -90l-184 -129l-63 90z" />
    <glyph glyph-name="nacute" unicode="&#x144;" 
d="M423 301v399h140v-700h-140l-233 399v-399h-140v700h140zM428 979l63 -90l-184 -129l-63 90z" />
    <glyph glyph-name="Ncommaaccent" unicode="&#x145;" 
d="M423 301v399h140v-700h-140l-233 399v-399h-140v700h140zM200 -168l47 48v60h120v-85q0 -25 -17 -42l-66 -65z" />
    <glyph glyph-name="ncommaaccent" unicode="&#x146;" 
d="M423 301v399h140v-700h-140l-233 399v-399h-140v700h140zM200 -168l47 48v60h120v-85q0 -25 -17 -42l-66 -65z" />
    <glyph glyph-name="Ncaron" unicode="&#x147;" 
d="M342 760h-70l-130 103l62 78l103 -81l102 81l62 -78zM423 301v399h140v-700h-140l-233 399v-399h-140v700h140z" />
    <glyph glyph-name="ncaron" unicode="&#x148;" 
d="M342 760h-70l-128 103l62 78l102 -81l102 81l62 -78zM425 301v399h140v-700h-140l-233 399v-399h-140v700h140z" />
    <glyph glyph-name="Eng" unicode="&#x14a;" 
d="M423 700h140v-560v-180q0 -70 -49.5 -120t-120.5 -50h-70v140h70q13 0 21.5 9t8.5 21v40l-233 399v-399h-140v700h140l233 -399v399z" />
    <glyph glyph-name="eng" unicode="&#x14b;" 
d="M423 700h140v-560v-180q0 -70 -49.5 -120t-120.5 -50h-70v140h70q13 0 21.5 9t8.5 21v40l-233 399v-399h-140v700h140l233 -399v399z" />
    <glyph glyph-name="Omacron" unicode="&#x14c;" 
d="M467 760h-320v100h320v-100zM400 0h-187q-67 0 -115 48t-48 115v374q0 67 48 115t115 48h187q67 0 115 -48t48 -115v-374q0 -67 -48 -115q-47 -48 -115 -48zM400 560h-187q-9 0 -16 -7t-7 -16v-374q0 -9 7 -16t16 -7h187q10 0 16.5 7t6.5 16v374q0 9 -6.5 16t-16.5 7z
" />
    <glyph glyph-name="omacron" unicode="&#x14d;" 
d="M467 760h-320v100h320v-100zM400 0h-187q-67 0 -115 48t-48 115v374q0 67 48 115t115 48h187q67 0 115 -48t48 -115v-374q0 -67 -48 -115q-47 -48 -115 -48zM400 560h-187q-9 0 -16 -7t-7 -16v-374q0 -9 7 -16t16 -7h187q10 0 16.5 7t6.5 16v374q0 9 -6.5 16t-16.5 7z
" />
    <glyph glyph-name="Obreve" unicode="&#x14e;" 
d="M400 0h-187q-67 0 -115 48t-48 115v374q0 67 48 115t115 48h187q68 0 115 -48q48 -48 48 -115v-374q0 -67 -48 -115q-47 -48 -115 -48zM400 560h-187q-9 0 -16 -7t-7 -16v-374q0 -9 7 -16t16 -7h187q10 0 16.5 7t6.5 16v374q0 9 -6.5 16t-16.5 7zM370 921h99
q0 -67 -48 -115q-47 -47 -115 -47q-66 0 -115 47q-47 49 -47 115h99q0 -25 18.5 -44t44.5 -19q27 0 45.5 18.5t18.5 44.5z" />
    <glyph glyph-name="obreve" unicode="&#x14f;" 
d="M400 0h-187q-67 0 -115 48t-48 115v374q0 67 48 115t115 48h187q68 0 115 -48q48 -48 48 -115v-374q0 -67 -48 -115q-47 -48 -115 -48zM400 560h-187q-9 0 -16 -7t-7 -16v-374q0 -9 7 -16t16 -7h187q10 0 16.5 7t6.5 16v374q0 9 -6.5 16t-16.5 7zM370 921h99
q0 -67 -48 -115q-47 -47 -115 -47q-66 0 -115 47q-47 49 -47 115h99q0 -25 18.5 -44t44.5 -19q27 0 45.5 18.5t18.5 44.5z" />
    <glyph glyph-name="Ohungarumlaut" unicode="&#x150;" 
d="M375 760l-87 50l117 200l87 -50zM208 760l-86 50l116 200l87 -50zM400 0h-187q-67 0 -115 48t-48 115v374q0 67 48 115t115 48h187q68 0 115 -48q48 -48 48 -115v-374q0 -67 -48 -115q-47 -48 -115 -48zM400 560h-187q-9 0 -16 -7t-7 -16v-374q0 -9 7 -16t16 -7h187
q10 0 16.5 7t6.5 16v374q0 9 -6.5 16t-16.5 7z" />
    <glyph glyph-name="ohungarumlaut" unicode="&#x151;" 
d="M375 760l-87 50l117 200l87 -50zM208 760l-86 50l116 200l87 -50zM400 0h-187q-67 0 -115 48t-48 115v374q0 67 48 115t115 48h187q68 0 115 -48q48 -48 48 -115v-374q0 -67 -48 -115q-47 -48 -115 -48zM400 560h-187q-9 0 -16 -7t-7 -16v-374q0 -9 7 -16t16 -7h187
q10 0 16.5 7t6.5 16v374q0 9 -6.5 16t-16.5 7z" />
    <glyph glyph-name="OE" unicode="&#x152;" horiz-adv-x="988" 
d="M938 700v-140h-374v-140h280v-140h-280v-140h374v-140h-725q-67 0 -115 48t-48 115v374q0 67 48 115t115 48h725zM423 163v374q0 9 -6.5 16t-16.5 7h-187q-9 0 -16 -7t-7 -16v-374q0 -9 7 -16t16 -7h187q10 0 16.5 7t6.5 16z" />
    <glyph glyph-name="oe" unicode="&#x153;" horiz-adv-x="988" 
d="M938 700v-140l-373 1v-140h280v-140h-280v-140h373v-140h-724q-67 0 -116 47q-47 49 -47 116v373q0 66 47 115q48 48 116 48h724zM424 164v373q0 10 -6.5 16.5t-16.5 6.5h-187q-10 0 -16.5 -6.5t-6.5 -16.5v-373q0 -10 6.5 -16.5t16.5 -6.5h187q10 0 16.5 6.5t6.5 16.5z
" />
    <glyph glyph-name="Racute" unicode="&#x154;" 
d="M563 537v-94q0 -44 -21.5 -81t-57.5 -59l59 -59q20 -22 20 -50v-194h-140v165l-114 115h-119v-280h-140v700h350q68 0 115 -48q48 -48 48 -115zM423 443v94q0 9 -6.5 16t-16.5 7h-210v-140h210q10 0 16.5 7t6.5 16zM428 979l63 -90l-184 -129l-63 90z" />
    <glyph glyph-name="racute" unicode="&#x155;" 
d="M563 537v-94q0 -44 -21.5 -81t-57.5 -59l59 -59q20 -22 20 -50v-194h-140v165l-114 115h-119v-280h-140v700h350q68 0 115 -48q48 -48 48 -115zM423 443v94q0 9 -6.5 16t-16.5 7h-210v-140h210q10 0 16.5 7t6.5 16zM428 979l63 -90l-184 -129l-63 90z" />
    <glyph glyph-name="Rcommaaccent" unicode="&#x156;" 
d="M563 537v-94q0 -44 -21.5 -81t-57.5 -59l59 -59q20 -22 20 -50v-194h-140v165l-114 115h-119v-280h-140v700h350q68 0 115 -48q48 -48 48 -115zM423 443v94q0 9 -6.5 16t-16.5 7h-210v-140h210q10 0 16.5 7t6.5 16zM200 -168l47 48v60h120v-85q0 -25 -17 -42l-66 -65z
" />
    <glyph glyph-name="rcommaaccent" unicode="&#x157;" 
d="M563 537v-94q0 -44 -21.5 -81t-57.5 -59l59 -59q20 -22 20 -50v-194h-140v165l-114 115h-119v-280h-140v700h350q68 0 115 -48q48 -48 48 -115zM423 443v94q0 9 -6.5 16t-16.5 7h-210v-140h210q10 0 16.5 7t6.5 16zM200 -168l47 48v60h120v-85q0 -25 -17 -42l-66 -65z
" />
    <glyph glyph-name="Rcaron" unicode="&#x158;" 
d="M563 537v-94q0 -44 -21.5 -81t-57.5 -59l59 -59q20 -22 20 -50v-194h-140v165l-114 115h-119v-280h-140v700h350q68 0 115 -48q48 -48 48 -115zM400 560h-210v-140h210q10 0 16.5 7t6.5 16v94q0 9 -6.5 16t-16.5 7zM342 760h-70l-130 103l62 78l103 -81l102 81l62 -78z
" />
    <glyph glyph-name="rcaron" unicode="&#x159;" 
d="M563 537v-94q0 -44 -21.5 -81t-57.5 -59l59 -59q20 -22 20 -50v-194h-140v165l-114 115h-119v-280h-140v700h350q68 0 115 -48q48 -48 48 -115zM400 560h-210v-140h210q10 0 16.5 7t6.5 16v94q0 9 -6.5 16t-16.5 7zM342 760h-70l-130 103l62 78l103 -81l102 81l62 -78z
" />
    <glyph glyph-name="Sacute" unicode="&#x15a;" 
d="M400 0h-187q-67 0 -115 48t-48 115v31h140v-31q0 -9 7 -16t16 -7h187q10 0 16.5 6.5t6.5 16.5v44q-1 9 -12 15l-274 132l-2 1q-51 27 -74 82q-11 30 -11 53v47q0 67 48 115t115 48h187q68 0 115 -48q48 -48 48 -115v-31h-140v31q0 9 -6.5 16t-16.5 7h-187q-9 0 -16 -7
t-7 -16v-44q2 -9 12 -15l274 -132l2 -1q51 -27 74 -82q11 -30 11 -53v-47q0 -67 -48 -115q-47 -48 -115 -48zM307 760l-63 90l184 129l63 -90z" />
    <glyph glyph-name="sacute" unicode="&#x15b;" 
d="M400 0h-187q-67 0 -115 48t-48 115v31h140v-31q0 -9 7 -16t16 -7h187q10 0 16.5 6.5t6.5 16.5v44q-1 9 -12 15l-274 132l-2 1q-51 27 -74 82q-11 30 -11 53v47q0 67 48 115t115 48h187q68 0 115 -48q48 -48 48 -115v-31h-140v31q0 9 -6.5 16t-16.5 7h-187q-9 0 -16 -7
t-7 -16v-44q2 -9 12 -15l274 -132l2 -1q51 -27 74 -82q11 -30 11 -53v-47q0 -67 -48 -115q-47 -48 -115 -48zM307 760l-63 90l184 129l63 -90z" />
    <glyph glyph-name="Scircumflex" unicode="&#x15c;" 
d="M400 0h-187q-67 0 -115 48t-48 115v31h140v-31q0 -9 7 -16t16 -7h187q10 0 16.5 6.5t6.5 16.5v44q-1 9 -12 15l-274 132l-2 1q-51 27 -74 82q-11 30 -11 53v47q0 67 48 115t115 48h187q68 0 115 -48q48 -48 48 -115v-31h-140v31q0 9 -6.5 16t-16.5 7h-187q-9 0 -16 -7
t-7 -16v-44q2 -9 12 -15l274 -132l2 -1q51 -27 74 -82q11 -30 11 -53v-47q0 -67 -48 -115q-47 -48 -115 -48zM471 838l-62 -78l-102 81l-103 -81l-62 78l165 131z" />
    <glyph glyph-name="scircumflex" unicode="&#x15d;" 
d="M400 0h-187q-67 0 -115 48t-48 115v31h140v-31q0 -9 7 -16t16 -7h187q10 0 16.5 6.5t6.5 16.5v44q-1 9 -12 15l-274 132l-2 1q-51 27 -74 82q-11 30 -11 53v47q0 67 48 115t115 48h187q68 0 115 -48q48 -48 48 -115v-31h-140v31q0 9 -6.5 16t-16.5 7h-187q-9 0 -16 -7
t-7 -16v-44q2 -9 12 -15l274 -132l2 -1q51 -27 74 -82q11 -30 11 -53v-47q0 -67 -48 -115q-47 -48 -115 -48zM471 838l-62 -78l-102 81l-103 -81l-62 78l165 131z" />
    <glyph glyph-name="Scedilla" unicode="&#x15e;" 
d="M552 263q11 -30 11 -53v-47q0 -67 -48 -115q-47 -48 -115 -48h-33v-75q0 -25 -18 -42l-100 -100l-85 85l83 82v50h-34q-67 0 -115 48t-48 115v31h140v-31q0 -9 7 -16t16 -7h187q10 0 16.5 6.5t6.5 16.5v44q-1 9 -12 15l-274 132l-2 1q-51 27 -74 82q-11 30 -11 53v47
q0 67 48 115t115 48h187q67 0 115 -48t48 -115v-31h-140v31q0 9 -6.5 16t-16.5 7h-187q-9 0 -16 -7t-7 -16v-44q2 -9 12 -15l274 -132l2 -1q51 -27 74 -82z" />
    <glyph glyph-name="scedilla" unicode="&#x15f;" 
d="M552 263q11 -30 11 -53v-47q0 -67 -48 -115q-47 -48 -115 -48h-33v-75q0 -25 -18 -42l-100 -100l-85 85l83 82v50h-34q-67 0 -115 48t-48 115v31h140v-31q0 -9 7 -16t16 -7h187q10 0 16.5 6.5t6.5 16.5v44q-1 9 -12 15l-274 132l-2 1q-51 27 -74 82q-11 30 -11 53v47
q0 67 48 115t115 48h187q67 0 115 -48t48 -115v-31h-140v31q0 9 -6.5 16t-16.5 7h-187q-9 0 -16 -7t-7 -16v-44q2 -9 12 -15l274 -132l2 -1q51 -27 74 -82z" />
    <glyph glyph-name="Scaron" unicode="&#x160;" 
d="M400 0h-187q-67 0 -115 48t-48 115v31h140v-31q0 -9 7 -16t16 -7h187q10 0 16.5 6.5t6.5 16.5v44q-1 9 -12 15l-274 132l-2 1q-51 27 -74 82q-11 30 -11 53v47q0 67 48 115t115 48h187q68 0 115 -48q48 -48 48 -115v-31h-140v31q0 9 -6.5 16t-16.5 7h-187q-9 0 -16 -7
t-7 -16v-44q2 -9 12 -15l274 -132l2 -1q51 -27 74 -82q11 -30 11 -53v-47q0 -67 -48 -115q-47 -48 -115 -48zM342 760h-70l-130 103l62 78l103 -81l102 81l62 -78z" />
    <glyph glyph-name="scaron" unicode="&#x161;" 
d="M400 0h-187q-67 0 -115 48t-48 115v31h140v-31q0 -9 7 -16t16 -7h187q10 0 16.5 6.5t6.5 16.5v44q-1 9 -12 15l-274 132l-2 1q-51 27 -74 82q-11 30 -11 53v47q0 67 48 115t115 48h187q68 0 115 -48q48 -48 48 -115v-31h-140v31q0 9 -6.5 16t-16.5 7h-187q-9 0 -16 -7
t-7 -16v-44q2 -9 12 -15l274 -132l2 -1q51 -27 74 -82q11 -30 11 -53v-47q0 -67 -48 -115q-47 -48 -115 -48zM342 760h-70l-130 103l62 78l103 -81l102 81l62 -78z" />
    <glyph glyph-name="Tcommaaccent" unicode="&#x162;" 
d="M563 700v-140h-186v-560h-140v560h-187v140h513zM200 -168l47 48v60h120v-85q0 -25 -17 -42l-66 -65z" />
    <glyph glyph-name="tcommaaccent" unicode="&#x163;" 
d="M563 700v-140h-186v-560h-140v560h-187v140h513zM200 -168l47 48v60h120v-85q0 -25 -17 -42l-66 -65z" />
    <glyph glyph-name="Tcaron" unicode="&#x164;" 
d="M563 700v-140h-186v-560h-140v560h-187v140h513zM342 760h-70l-130 103l62 78l103 -81l102 81l62 -78z" />
    <glyph glyph-name="tcaron" unicode="&#x165;" 
d="M563 700v-140h-186v-560h-140v560h-187v140h513zM342 760h-70l-128 103l62 78l102 -81l102 81l62 -78z" />
    <glyph glyph-name="Tbar" unicode="&#x166;" 
d="M563 700v-140h-186v-185h100v-90h-100v-285h-140v285h-100v90h100v185h-187v140h513z" />
    <glyph glyph-name="tbar" unicode="&#x167;" 
d="M563 700v-140h-186v-185h100v-90h-100v-285h-140v285h-100v90h100v185h-187v140h513z" />
    <glyph glyph-name="Utilde" unicode="&#x168;" 
d="M423 163v537h140v-537q0 -67 -48 -115q-47 -48 -115 -48h-187q-67 0 -115 48t-48 115v537h140v-537q0 -9 7 -16t16 -7h187q10 0 16.5 7t6.5 16zM226 818l-49 -58l-76 64l71 85q22 25 54 15l161 -56l49 59l77 -65l-71 -84q-22 -25 -55 -15z" />
    <glyph glyph-name="utilde" unicode="&#x169;" 
d="M423 163v537h140v-537q0 -67 -48 -115q-47 -48 -115 -48h-187q-67 0 -115 48t-48 115v537h140v-537q0 -9 7 -16t16 -7h187q10 0 16.5 7t6.5 16zM226 818l-49 -58l-76 64l71 85q22 25 54 15l161 -56l49 59l77 -65l-71 -84q-22 -25 -55 -15z" />
    <glyph glyph-name="Umacron" unicode="&#x16a;" 
d="M467 760h-320v100h320v-100zM423 163v537h140v-537q0 -67 -48 -115q-47 -48 -115 -48h-187q-67 0 -115 48t-48 115v537h140v-537q0 -9 7 -16t16 -7h187q10 0 16.5 6.5t6.5 16.5z" />
    <glyph glyph-name="umacron" unicode="&#x16b;" 
d="M467 760h-320v100h320v-100zM423 163v537h140v-537q0 -67 -48 -115q-47 -48 -115 -48h-187q-67 0 -115 48t-48 115v537h140v-537q0 -9 7 -16t16 -7h187q10 0 16.5 6.5t6.5 16.5z" />
    <glyph glyph-name="Ubreve" unicode="&#x16c;" 
d="M400 0h-187q-67 0 -115 48t-48 115v537h140v-537q0 -9 7 -16t16 -7h187q10 0 16.5 6.5t6.5 16.5v537h140v-537q0 -67 -48 -115q-47 -48 -115 -48zM370 921h99q0 -67 -48 -115q-47 -47 -115 -47q-66 0 -115 47q-47 49 -47 115h99q0 -26 18.5 -44.5t45.5 -18.5q25 0 44 19
t19 44z" />
    <glyph glyph-name="ubreve" unicode="&#x16d;" 
d="M400 0h-187q-67 0 -115 48t-48 115v537h140v-537q0 -9 7 -16t16 -7h187q10 0 16.5 6.5t6.5 16.5v537h140v-537q0 -67 -48 -115q-47 -48 -115 -48zM370 921h99q0 -67 -48 -115q-47 -47 -115 -47q-66 0 -115 47q-47 49 -47 115h99q0 -26 18.5 -44.5t45.5 -18.5q25 0 44 19
t19 44z" />
    <glyph glyph-name="Uring" unicode="&#x16e;" 
d="M400 0h-187q-67 0 -115 48t-48 115v537h140v-537q0 -9 7 -16t16 -7h187q10 0 16.5 7t6.5 16v537h140v-537q0 -67 -48 -115q-47 -48 -115 -48zM307 984q47 0 81 -34q34 -33 34 -81t-34 -82q-34 -33 -81 -33q-48 0 -81.5 34t-33.5 81q0 48 33.5 81.5t81.5 33.5zM307 819
q20 0 35 14.5t15 35.5t-15 35.5t-36 14.5q-20 0 -34.5 -14.5t-14.5 -35.5t14.5 -35.5t35.5 -14.5z" />
    <glyph glyph-name="uring" unicode="&#x16f;" 
d="M400 0h-187q-67 0 -115 48t-48 115v537h140v-537q0 -9 7 -16t16 -7h187q10 0 16.5 7t6.5 16v537h140v-537q0 -67 -48 -115q-47 -48 -115 -48zM307 984q47 0 81 -34q34 -33 34 -81t-34 -82q-34 -33 -81 -33q-48 0 -81.5 34t-33.5 81q0 48 33.5 81.5t81.5 33.5zM307 819
q20 0 35 14.5t15 35.5t-15 35.5t-36 14.5q-20 0 -34.5 -14.5t-14.5 -35.5t14.5 -35.5t35.5 -14.5z" />
    <glyph glyph-name="Uhungarumlaut" unicode="&#x170;" 
d="M423 163v537h140v-537q0 -67 -48 -115q-47 -48 -115 -48h-187q-67 0 -115 48t-48 115v537h140v-537q0 -9 7 -16t16 -7h187q10 0 16.5 7t6.5 16zM375 760l-87 50l117 200l87 -50zM208 760l-86 50l116 200l87 -50z" />
    <glyph glyph-name="uhungarumlaut" unicode="&#x171;" 
d="M423 163v537h140v-537q0 -67 -48 -115q-47 -48 -115 -48h-187q-67 0 -115 48t-48 115v537h140v-537q0 -9 7 -16t16 -7h187q10 0 16.5 7t6.5 16zM375 760l-87 50l117 200l87 -50zM208 760l-86 50l116 200l87 -50z" />
    <glyph glyph-name="Uogonek" unicode="&#x172;" 
d="M423 163v537h140v-537q0 -67 -48 -115q-47 -48 -115 -48l-49 -76q-4 -5 -4 -14q0 -10 7 -17.5t17 -7.5h57v-100h-75q-43 0 -74 27q-33 28 -39.5 71t16.5 79l25 38h-68q-67 0 -115 48t-48 115v537h140v-537q0 -9 7 -16t16 -7h187q10 0 16.5 6.5t6.5 16.5z" />
    <glyph glyph-name="uogonek" unicode="&#x173;" 
d="M423 163v537h140v-537q0 -67 -48 -115q-47 -48 -115 -48l-49 -76q-4 -5 -4 -14q0 -10 7 -17.5t17 -7.5h57v-100h-75q-43 0 -74 27q-33 28 -39.5 71t16.5 79l25 38h-68q-67 0 -115 48t-48 115v537h140v-537q0 -9 7 -16t16 -7h187q10 0 16.5 6.5t6.5 16.5z" />
    <glyph glyph-name="Wcircumflex" unicode="&#x174;" horiz-adv-x="707" 
d="M518 838l-62 -78l-103 81l-102 -81l-62 78l164 131zM353 212l-163 -212h-140v700h140v-470l93 121v69h140v-69l94 -121v470h140v-700h-140z" />
    <glyph glyph-name="wcircumflex" unicode="&#x175;" horiz-adv-x="707" 
d="M518 838l-62 -78l-103 81l-102 -81l-62 78l164 131zM353 212l-163 -212h-140v700h140v-470l93 121v69h140v-69l94 -121v470h140v-700h-140z" />
    <glyph glyph-name="Ycircumflex" unicode="&#x176;" 
d="M423 566v134h140v-163q0 -28 -20 -50l-166 -166v-321h-140v321l-166 166q-21 21 -21 50v163h140v-134l117 -117zM471 838l-62 -78l-102 81l-103 -81l-62 78l165 131z" />
    <glyph glyph-name="ycircumflex" unicode="&#x177;" 
d="M423 566v134h140v-163q0 -28 -20 -50l-166 -166v-321h-140v321l-166 166q-21 21 -21 50v163h140v-134l117 -117zM471 838l-62 -78l-102 81l-103 -81l-62 78l165 131z" />
    <glyph glyph-name="Ydieresis" unicode="&#x178;" 
d="M423 566v134h140v-163q0 -28 -20 -50l-166 -166v-321h-140v321l-166 166q-21 21 -21 50v163h140v-134l117 -117zM467 760h-120v120h120v-120zM267 760h-120v120h120v-120z" />
    <glyph glyph-name="Zacute" unicode="&#x179;" horiz-adv-x="637" 
d="M566 487l-347 -347h368v-140h-514v163q0 29 21 50l347 347h-391v140h537v-163q0 -29 -21 -50zM307 760l-63 90l184 129l63 -90z" />
    <glyph glyph-name="zacute" unicode="&#x17a;" horiz-adv-x="637" 
d="M566 487l-347 -347h368v-140h-514v163q0 29 21 50l347 347h-391v140h537v-163q0 -29 -21 -50zM307 760l-63 90l184 129l63 -90z" />
    <glyph glyph-name="Zdotaccent" unicode="&#x17b;" horiz-adv-x="637" 
d="M566 487l-347 -347h368v-140h-514v163q0 29 21 50l347 347h-391v140h537v-163q0 -29 -21 -50zM377 760h-140v140h140v-140z" />
    <glyph glyph-name="zdotaccent" unicode="&#x17c;" horiz-adv-x="637" 
d="M566 487l-347 -347h368v-140h-514v163q0 29 21 50l347 347h-391v140h537v-163q0 -29 -21 -50zM377 760h-140v140h140v-140z" />
    <glyph glyph-name="Zcaron" unicode="&#x17d;" horiz-adv-x="637" 
d="M566 487l-347 -347h368v-140h-514v163q0 29 21 50l347 347h-391v140h537v-163q0 -29 -21 -50zM342 760h-70l-130 103l62 78l103 -81l102 81l62 -78z" />
    <glyph glyph-name="zcaron" unicode="&#x17e;" horiz-adv-x="637" 
d="M566 487l-347 -347h367v-140h-513v163q0 30 20 50l347 347h-391v140h537v-163q0 -30 -20 -50zM341 760h-70l-128 103l62 78l102 -81l102 81l62 -78z" />
    <glyph glyph-name="longs" unicode="&#x17f;" horiz-adv-x="430" 
d="M263 700h117v-140h-117q-9 0 -16 -7t-7 -16v-537h-140v383h-50v120h50v34q0 67 48 115t115 48z" />
    <glyph glyph-name="florin" unicode="&#x192;" horiz-adv-x="526" 
d="M371 538l-3 -27h84v-140h-102l-55 -427q-8 -62 -57.5 -103t-117.5 -41h-70v140h70q33 0 36 21l53 410h-77v140h95l5 43q7 67 62 109q47 37 112 37h70v-140h-70q-33 0 -35 -22z" />
    <glyph glyph-name="Gcaron" unicode="&#x1e6;" 
d="M563 537v-70h-140v70q0 9 -6.5 16t-16.5 7h-187q-9 0 -16 -7t-7 -16v-374q0 -9 7 -16t16 -7h187q10 0 16.5 7t6.5 16v69l-146 35l32 136l200 -47q24 -6 39 -25t15 -43v-125q0 -67 -48 -115q-47 -48 -115 -48h-187q-67 0 -115 48t-48 115v374q0 67 48 115t115 48h187
q68 0 115 -48q48 -48 48 -115zM342 760h-70l-130 103l62 78l103 -81l102 81l62 -78z" />
    <glyph glyph-name="gcaron" unicode="&#x1e7;" 
d="M563 537v-70v-1h-140v70q0 10 -6.5 16.5t-16.5 6.5h-187q-10 0 -16.5 -6.5t-6.5 -16.5v-373q0 -10 6.5 -16.5t16.5 -6.5h187q10 0 16.5 6.5t6.5 16.5v69l-146 34l32 136l200 -47q24 -5 39 -24t15 -43v-124q0 -68 -48 -116q-47 -47 -115 -47h-187q-66 0 -115 47
q-48 48 -48 116v373q0 67 48 115t115 48h187q68 0 115 -48q48 -48 48 -115zM341 759h-70l-128 103l62 78l102 -81l102 81l62 -78z" />
    <glyph glyph-name="AEacute" unicode="&#x1fc;" horiz-adv-x="1000" 
 />
    <glyph glyph-name="circumflex" unicode="&#x2c6;" horiz-adv-x="429" 
d="M379 574l-62 -78l-103 81l-102 -81l-62 78l164 131z" />
    <glyph glyph-name="caron" unicode="&#x2c7;" horiz-adv-x="429" 
d="M249 524h-69l-130 103l62 78l102 -81l103 81l62 -78z" />
    <glyph glyph-name="breve" unicode="&#x2d8;" horiz-adv-x="425" 
d="M276 700h99q0 -67 -48 -115q-47 -47 -115 -47q-66 0 -115 47q-47 49 -47 115h99q0 -26 18.5 -44.5t44.5 -18.5q27 0 45.5 18.5t18.5 44.5z" />
    <glyph glyph-name="dotaccent" unicode="&#x2d9;" horiz-adv-x="240" 
d="M190 560h-140v140h140v-140z" />
    <glyph glyph-name="ring" unicode="&#x2da;" horiz-adv-x="330" 
d="M83 671q34 34 82 34t81 -34q34 -33 34 -81t-34 -82q-33 -33 -81 -33q-47 0 -82 33q-33 34 -33 82t33 81zM129 554q15 -14 36 -14t35 14q15 15 15 36t-15 35q-14 15 -35 15t-36 -15q-14 -14 -14 -35t14 -36z" />
    <glyph glyph-name="ogonek" unicode="&#x2db;" horiz-adv-x="290" 
d="M74 -38l25 38h119l-49 -76q-4 -5 -4 -14q0 -10 7 -17.5t17 -7.5h57v-100h-75q-43 0 -74 27q-33 28 -39.5 71t16.5 79z" />
    <glyph glyph-name="tilde" unicode="&#x2dc;" horiz-adv-x="512" 
d="M175 597l-48 -59l-77 65l71 84q23 25 54 15l162 -55l49 58l76 -64l-71 -85q-23 -26 -54 -15z" />
    <glyph glyph-name="hungarumlaut" unicode="&#x2dd;" horiz-adv-x="470" 
d="M303 455l-86 50l116 200l87 -50zM136 455l-86 50l117 200l86 -50z" />
    <glyph glyph-name="uni0400" unicode="&#x400;" 
d="M563 700v-140h-373v-140h280v-140h-280v-140h373v-140h-513v700h513zM180 971l184 -129l-57 -82l-185 129z" />
    <glyph glyph-name="afii10023" unicode="&#x401;" 
d="M563 700v-140h-373v-140h280v-140h-280v-140h373v-140h-513v700h513zM467 760h-120v120h120v-120zM267 760h-120v120h120v-120z" />
    <glyph glyph-name="afii10051" unicode="&#x402;" horiz-adv-x="753" 
d="M353 467h187q67 0 115 -48t48 -116v-140q0 -67 -48 -115q-47 -48 -115 -48h-93v140h93q10 0 16.5 7t6.5 16v140q0 10 -6.5 17t-16.5 7h-187q-9 0 -16 -7t-7 -17v-303h-140v560h-140v140h513v-140h-233v-95q16 2 23 2z" />
    <glyph glyph-name="afii10052" unicode="&#x403;" horiz-adv-x="567" 
d="M190 560v-560h-140v700h467v-140h-327zM259 760l-64 90l185 129l63 -90z" />
    <glyph glyph-name="afii10053" unicode="&#x404;" 
d="M563 537v-70h-140v70q0 9 -6.5 16t-16.5 7h-187q-9 0 -16 -7t-7 -16v-117h233v-140h-233v-117q0 -9 7 -16t16 -7h187q10 0 16.5 7t6.5 16v70h140v-70q0 -67 -48 -115q-47 -48 -115 -48h-187q-67 0 -115 48t-48 115v374q0 67 48 115t115 48h187q68 0 115 -48
q48 -48 48 -115z" />
    <glyph glyph-name="afii10054" unicode="&#x405;" 
d="M400 0h-187q-67 0 -115 48t-48 115v31h140v-31q0 -9 7 -16t16 -7h187q10 0 16.5 6.5t6.5 16.5v44q-1 9 -12 15l-274 132l-2 1q-51 27 -74 82q-11 30 -11 53v47q0 67 48 115t115 48h187q68 0 115 -48q48 -48 48 -115v-31h-140v31q0 9 -6.5 16t-16.5 7h-187q-9 0 -16 -7
t-7 -16v-44q2 -9 12 -15l274 -132l2 -1q51 -27 74 -82q11 -30 11 -53v-47q0 -67 -48 -115q-47 -48 -115 -48z" />
    <glyph glyph-name="afii10055" unicode="&#x406;" horiz-adv-x="240" 
d="M190 0h-140v700h140v-700z" />
    <glyph glyph-name="afii10056" unicode="&#x407;" horiz-adv-x="420" 
d="M370 760h-120v120h120v-120zM170 760h-120v120h120v-120zM280 0h-140v700h140v-700z" />
    <glyph glyph-name="afii10057" unicode="&#x408;" 
d="M400 0h-187q-67 0 -115 48t-48 115v70h140v-70q0 -9 7 -16t16 -7h187q10 0 16.5 7t6.5 16v537h140v-537q0 -67 -48 -115q-47 -48 -115 -48z" />
    <glyph glyph-name="afii10058" unicode="&#x409;" horiz-adv-x="987" 
d="M563 420h210q68 0 116 -48t48 -115v-94q0 -67 -48 -115t-116 -48h-350v560h-140v-397q0 -67 -48 -115q-47 -48 -115 -48h-70v140h70q10 0 16.5 7t6.5 16v537h420v-280zM797 163v94q0 9 -7 16t-17 7h-210v-140h210q10 0 17 7t7 16z" />
    <glyph glyph-name="afii10059" unicode="&#x40a;" horiz-adv-x="987" 
d="M563 420h210q68 0 116 -48t48 -115v-94q0 -67 -48 -115t-116 -48h-350v280h-233v-280h-140v700h140v-280h233v280h140v-280zM797 163v94q0 9 -7 16t-17 7h-210v-140h210q10 0 17 7t7 16z" />
    <glyph glyph-name="afii10060" unicode="&#x40b;" horiz-adv-x="753" 
d="M353 467h187q68 0 115 -48q48 -48 48 -116v-303h-140v303q0 10 -6.5 17t-16.5 7h-187q-9 0 -16 -7t-7 -17v-303h-140v560h-140v140h513v-140h-233v-95q16 2 23 2z" />
    <glyph glyph-name="afii10061" unicode="&#x40c;" 
d="M563 700v-140h-52l-167 -200l178 -142q26 -21 26 -55v-163h-140v130l-188 150h-30v-280h-140v700h140v-280h22l212 255q21 25 54 25h85z" />
    <glyph glyph-name="uni040D" unicode="&#x40d;" 
d="M180 971l184 -129l-57 -82l-185 129zM50 0v700h140v-399l233 399h140v-700h-140v399l-233 -399h-140z" />
    <glyph glyph-name="afii10062" unicode="&#x40e;" 
d="M141 867h111q19 -34 54 -34q36 0 55 34h111q-18 -52 -63.5 -84.5t-102.5 -32.5q-56 0 -101 32.5t-64 84.5zM423 556v144h140v-163q0 -20 -10 -36l-280 -467q-19 -34 -60 -34h-163v140h124l51 86l-165 275q-10 16 -10 36v163h140v-144l117 -194z" />
    <glyph glyph-name="afii10145" unicode="&#x40f;" 
d="M423 700h140v-700h-173v-150h-140v150h-200v700h140v-560h233v560z" />
    <glyph glyph-name="afii10017" unicode="&#x410;" 
d="M416 661l140 -280q7 -13 7 -31v-350h-140v187h-233v-187h-140v350q0 18 7 31l140 280q19 39 63 39h93q43 0 63 -39zM190 333v-6h233v6l-113 227h-7z" />
    <glyph glyph-name="afii10018" unicode="&#x411;" 
d="M190 420h210q68 0 115 -48q48 -48 48 -115v-94q0 -67 -48 -115q-47 -48 -115 -48h-350v700h467v-140h-327v-140zM423 163v94q0 9 -6.5 16t-16.5 7h-210v-140h210q10 0 16.5 7t6.5 16z" />
    <glyph glyph-name="afii10019" unicode="&#x412;" 
d="M563 537v-94q0 -50 -29 -93q29 -43 29 -93v-94q0 -67 -48 -115q-47 -48 -115 -48h-350v700h350q68 0 115 -48q48 -48 48 -115zM400 560h-210v-140h210q10 0 16.5 6.5t6.5 16.5v94q0 9 -6.5 16t-16.5 7zM423 163v94q0 9 -6.5 16t-16.5 7h-210v-140h210q10 0 16.5 7t6.5 16
z" />
    <glyph glyph-name="afii10020" unicode="&#x413;" horiz-adv-x="567" 
d="M190 560v-560h-140v700h467v-140h-327z" />
    <glyph glyph-name="afii10021" unicode="&#x414;" horiz-adv-x="790" 
d="M658 700v-560h132v-290h-140v150h-460v-150h-140v290h80q15 13 29 43q22 45 42 124q37 154 37 323v70h420zM293 140h225v420h-141q-7 -164 -45 -303q-16 -67 -39 -117z" />
    <glyph glyph-name="afii10022" unicode="&#x415;" 
d="M563 700v-140h-373v-140h280v-140h-280v-140h373v-140h-513v700h513z" />
    <glyph glyph-name="afii10024" unicode="&#x416;" horiz-adv-x="924" 
d="M874 700v-140h-49l-145 -201l156 -144q23 -21 23 -52v-163h-140v133l-160 147h-27v-280h-140v280h-27l-159 -147v-133h-140v163q0 31 22 52l156 144l-144 201h-50v140h86q35 0 56 -29l181 -251h19v280h140v-280h20l180 251q21 29 57 29h85z" />
    <glyph glyph-name="afii10025" unicode="&#x417;" 
d="M563 537v-94q0 -50 -29 -93q29 -43 29 -93v-94q0 -67 -48 -115q-47 -48 -115 -48h-187q-67 0 -115 48t-48 115v35h140v-35q0 -9 7 -16t16 -7h187q10 0 16.5 7t6.5 16v94q0 9 -6.5 16t-16.5 7h-135v140h135q10 0 16.5 7t6.5 16v94q0 9 -6.5 16t-16.5 7h-187q-9 0 -16 -7
t-7 -16v-35h-140v35q0 67 48 115t115 48h187q68 0 115 -48q48 -48 48 -115z" />
    <glyph glyph-name="afii10026" unicode="&#x418;" 
d="M50 0v700h140v-399l233 399h140v-700h-140v399l-233 -399h-140z" />
    <glyph glyph-name="afii10027" unicode="&#x419;" 
d="M50 0v700h140v-399l233 399h140v-700h-140v399l-233 -399h-140zM135 867h110q19 -34 55 -34t55 34h110q-18 -52 -63 -84.5t-102 -32.5t-102 32.5t-63 84.5z" />
    <glyph glyph-name="afii10028" unicode="&#x41a;" 
d="M563 700v-140h-52l-167 -200l178 -142q26 -21 26 -55v-163h-140v130l-188 150h-30v-280h-140v700h140v-280h22l212 255q21 25 54 25h85z" />
    <glyph glyph-name="afii10029" unicode="&#x41b;" 
d="M563 700v-700h-140v560h-140v-397q0 -67 -48 -115t-115 -48h-70v140h70q10 0 16.5 7t6.5 16v537h420z" />
    <glyph glyph-name="afii10030" unicode="&#x41c;" horiz-adv-x="707" 
d="M353 488l164 212h140v-700h-140v470l-94 -121v-69h-140v69l-93 121v-470h-140v700h140z" />
    <glyph glyph-name="afii10031" unicode="&#x41d;" 
d="M423 420v280h140v-700h-140v280h-233v-280h-140v700h140v-280h233z" />
    <glyph glyph-name="afii10032" unicode="&#x41e;" 
d="M400 0h-187q-67 0 -115 48t-48 115v374q0 67 48 115t115 48h187q68 0 115 -48q48 -48 48 -115v-374q0 -67 -48 -115q-47 -48 -115 -48zM400 560h-187q-9 0 -16 -7t-7 -16v-374q0 -9 7 -16t16 -7h187q10 0 16.5 7t6.5 16v374q0 9 -6.5 16t-16.5 7z" />
    <glyph glyph-name="afii10033" unicode="&#x41f;" 
d="M563 700v-700h-140v560h-233v-560h-140v700h513z" />
    <glyph glyph-name="afii10034" unicode="&#x420;" 
d="M190 280v-280h-140v700h350q68 0 115 -48q48 -48 48 -115v-94q0 -67 -48 -115t-115 -48h-210zM190 560v-140h210q10 0 16.5 7t6.5 16v94q0 10 -6.5 16.5t-16.5 6.5h-210z" />
    <glyph glyph-name="afii10035" unicode="&#x421;" 
d="M400 0h-187q-67 0 -115 48t-48 115v374q0 67 48 115t115 48h187q68 0 115 -48q48 -48 48 -115v-70h-140v70q0 9 -6.5 16t-16.5 7h-187q-9 0 -16 -7t-7 -16v-374q0 -9 7 -16t16 -7h187q10 0 16.5 6.5t6.5 16.5v70h140v-70q0 -67 -48 -115q-47 -48 -115 -48z" />
    <glyph glyph-name="afii10036" unicode="&#x422;" 
d="M563 700v-140h-186v-560h-140v560h-187v140h513z" />
    <glyph glyph-name="afii10037" unicode="&#x423;" 
d="M423 556v144h140v-163q0 -20 -10 -36l-280 -467q-19 -34 -60 -34h-163v140h124l51 86l-165 275q-10 16 -10 36v163h140v-144l117 -194z" />
    <glyph glyph-name="afii10038" unicode="&#x424;" horiz-adv-x="800" 
d="M470 607h117q67 0 115 -48t48 -116v-186q0 -68 -48 -116t-115 -48h-117v-93h-140v93h-117q-67 0 -115 48t-48 116v186q0 68 48 116t115 48h117v93h140v-93zM213 233h117v234h-117q-9 0 -16 -7t-7 -17v-186q0 -10 7 -17t16 -7zM610 257v186q0 10 -7 17t-16 7h-117v-234
h117q9 0 16 7t7 17z" />
    <glyph glyph-name="afii10039" unicode="&#x425;" 
d="M563 700v-163q0 -28 -20 -50l-137 -137l137 -137q20 -22 20 -50v-163h-140v134l-116 117l-117 -117v-134h-140v163q0 29 21 50l137 137l-137 137q-21 21 -21 50v163h140v-134l117 -117l116 117v134h140z" />
    <glyph glyph-name="afii10040" unicode="&#x426;" horiz-adv-x="740" 
d="M563 700v-560h127v-290h-140v150h-500v700h140v-560h233v560h140z" />
    <glyph glyph-name="afii10041" unicode="&#x427;" 
d="M423 397v303h140v-700h-140v235q-14 -2 -23 -2h-187q-67 0 -115 48t-48 116v303h140v-303q0 -10 7 -17t16 -7h187q10 0 16.5 7t6.5 17z" />
    <glyph glyph-name="afii10042" unicode="&#x428;" horiz-adv-x="800" 
d="M610 140v560h140v-700h-700v700h140v-560h140v560h140v-560h140z" />
    <glyph glyph-name="afii10043" unicode="&#x429;" horiz-adv-x="940" 
d="M750 700v-560h140v-290h-140v150h-700v700h140v-560h140v560h140v-560h140v560h140z" />
    <glyph glyph-name="afii10044" unicode="&#x42a;" horiz-adv-x="753" 
d="M330 420h210q68 0 115 -48q48 -48 48 -115v-94q0 -67 -48 -115q-47 -48 -115 -48h-350v560h-140v140h280v-280zM563 163v94q0 9 -6.5 16t-16.5 7h-210v-140h210q10 0 16.5 7t6.5 16z" />
    <glyph glyph-name="afii10045" unicode="&#x42b;" horiz-adv-x="773" 
d="M190 420h210q68 0 115 -48q48 -48 48 -115v-94q0 -67 -48 -115q-47 -48 -115 -48h-350v700h140v-280zM423 163v94q0 9 -6.5 16t-16.5 7h-210v-140h210q10 0 16.5 7t6.5 16zM723 0h-140v700h140v-700z" />
    <glyph glyph-name="afii10046" unicode="&#x42c;" 
d="M190 420h210q68 0 115 -48q48 -48 48 -115v-94q0 -67 -48 -115q-47 -48 -115 -48h-350v700h140v-280zM423 163v94q0 9 -6.5 16t-16.5 7h-210v-140h210q10 0 16.5 7t6.5 16z" />
    <glyph glyph-name="afii10047" unicode="&#x42d;" 
d="M190 537v-70h-140v70q0 67 48 115t115 48h187q68 0 115 -48q48 -48 48 -115v-374q0 -67 -48 -115q-47 -48 -115 -48h-187q-67 0 -115 48t-48 115v70h140v-70q0 -9 7 -16t16 -7h187q10 0 16.5 7t6.5 16v117h-233v140h233v117q0 9 -6.5 16t-16.5 7h-187q-9 0 -16 -7t-7 -16
z" />
    <glyph glyph-name="afii10048" unicode="&#x42e;" horiz-adv-x="893" 
d="M493 700h187q68 0 115 -48q48 -48 48 -115v-374q0 -67 -48 -115q-47 -48 -115 -48h-187q-67 0 -115 48t-48 115v117h-140v-280h-140v700h140v-280h140v117q0 67 48 115t115 48zM703 163v374q0 9 -6.5 16t-16.5 7h-187q-9 0 -16 -7t-7 -16v-374q0 -9 7 -16t16 -7h187
q10 0 16.5 7t6.5 16z" />
    <glyph glyph-name="afii10049" unicode="&#x42f;" 
d="M71 244l59 59q-37 22 -58.5 59t-21.5 81v94q0 67 48 115t115 48h350v-700h-140v280h-118l-115 -115v-165h-140v194q0 29 21 50zM190 537v-94q0 -10 6.5 -16.5t16.5 -6.5h210v140h-210q-9 0 -16 -7t-7 -16z" />
    <glyph glyph-name="afii10065" unicode="&#x430;" 
d="M416 661l140 -280q7 -13 7 -31v-350h-140v187h-233v-187h-140v350q0 18 7 31l140 280q19 39 63 39h93q43 0 63 -39zM190 333v-6h233v6l-113 227h-7z" />
    <glyph glyph-name="afii10066" unicode="&#x431;" 
d="M190 420h210q68 0 115 -48q48 -48 48 -115v-94q0 -67 -48 -115q-47 -48 -115 -48h-350v700h467v-140h-327v-140zM423 163v94q0 9 -6.5 16t-16.5 7h-210v-140h210q10 0 16.5 7t6.5 16z" />
    <glyph glyph-name="afii10067" unicode="&#x432;" 
d="M563 537v-94q0 -50 -29 -93q29 -43 29 -93v-94q0 -67 -48 -115q-47 -48 -115 -48h-350v700h350q68 0 115 -48q48 -48 48 -115zM400 560h-210v-140h210q10 0 16.5 6.5t6.5 16.5v94q0 9 -6.5 16t-16.5 7zM423 163v94q0 9 -6.5 16t-16.5 7h-210v-140h210q10 0 16.5 7t6.5 16
z" />
    <glyph glyph-name="afii10068" unicode="&#x433;" horiz-adv-x="567" 
d="M190 560v-560h-140v700h467v-140h-327z" />
    <glyph glyph-name="afii10069" unicode="&#x434;" horiz-adv-x="840" 
d="M658 700v-560h132v-290h-140v150h-460v-150h-140v290h80q15 13 29 43q22 45 42 124q37 154 37 323v70h420zM293 140h225v420h-141q-7 -164 -45 -303q-16 -67 -39 -117z" />
    <glyph glyph-name="afii10070" unicode="&#x435;" 
d="M563 700v-140h-373v-140h280v-140h-280v-140h373v-140h-513v700h513z" />
    <glyph glyph-name="afii10072" unicode="&#x436;" horiz-adv-x="924" 
d="M874 700v-140h-49l-145 -201l156 -144q23 -21 23 -52v-163h-140v133l-160 147h-27v-280h-140v280h-27l-159 -147v-133h-140v163q0 31 22 52l156 144l-144 201h-50v140h86q35 0 56 -29l181 -251h19v280h140v-280h20l180 251q21 29 57 29h85z" />
    <glyph glyph-name="afii10073" unicode="&#x437;" 
d="M563 537v-94q0 -50 -29 -93q29 -43 29 -93v-94q0 -67 -48 -115q-47 -48 -115 -48h-187q-67 0 -115 48t-48 115v35h140v-35q0 -9 7 -16t16 -7h187q10 0 16.5 7t6.5 16v94q0 9 -6.5 16t-16.5 7h-135v140h135q10 0 16.5 7t6.5 16v94q0 9 -6.5 16t-16.5 7h-187q-9 0 -16 -7
t-7 -16v-35h-140v35q0 67 48 115t115 48h187q68 0 115 -48q48 -48 48 -115z" />
    <glyph glyph-name="afii10074" unicode="&#x438;" 
d="M50 0v700h140v-399l233 399h140v-700h-140v399l-233 -399h-140z" />
    <glyph glyph-name="afii10075" unicode="&#x439;" 
d="M50 0v700h140v-399l233 399h140v-700h-140v399l-233 -399h-140zM135 867h110q19 -34 55 -34t55 34h110q-18 -52 -63 -84.5t-102 -32.5t-102 32.5t-63 84.5z" />
    <glyph glyph-name="afii10076" unicode="&#x43a;" 
d="M563 700v-140h-52l-167 -200l178 -142q26 -21 26 -55v-163h-140v130l-188 150h-30v-280h-140v700h140v-280h22l212 255q21 25 54 25h85z" />
    <glyph glyph-name="afii10077" unicode="&#x43b;" 
d="M563 700v-700h-140v560h-140v-397q0 -67 -48 -115t-115 -48h-70v140h70q10 0 16.5 7t6.5 16v537h420z" />
    <glyph glyph-name="afii10078" unicode="&#x43c;" horiz-adv-x="707" 
d="M353 488l164 212h140v-700h-140v470l-94 -121v-69h-140v69l-93 121v-470h-140v700h140z" />
    <glyph glyph-name="afii10079" unicode="&#x43d;" 
d="M423 420v280h140v-700h-140v280h-233v-280h-140v700h140v-280h233z" />
    <glyph glyph-name="afii10080" unicode="&#x43e;" 
d="M400 0h-187q-67 0 -115 48t-48 115v374q0 67 48 115t115 48h187q68 0 115 -48q48 -48 48 -115v-374q0 -67 -48 -115q-47 -48 -115 -48zM400 560h-187q-9 0 -16 -7t-7 -16v-374q0 -9 7 -16t16 -7h187q10 0 16.5 7t6.5 16v374q0 9 -6.5 16t-16.5 7z" />
    <glyph glyph-name="afii10081" unicode="&#x43f;" 
d="M563 700v-700h-140v560h-233v-560h-140v700h513z" />
    <glyph glyph-name="afii10082" unicode="&#x440;" 
d="M190 280v-280h-140v700h350q68 0 115 -48q48 -48 48 -115v-94q0 -67 -48 -115t-115 -48h-210zM190 560v-140h210q10 0 16.5 7t6.5 16v94q0 10 -6.5 16.5t-16.5 6.5h-210z" />
    <glyph glyph-name="afii10083" unicode="&#x441;" 
d="M400 0h-187q-67 0 -115 48t-48 115v374q0 67 48 115t115 48h187q68 0 115 -48q48 -48 48 -115v-70h-140v70q0 9 -6.5 16t-16.5 7h-187q-9 0 -16 -7t-7 -16v-374q0 -9 7 -16t16 -7h187q10 0 16.5 6.5t6.5 16.5v70h140v-70q0 -67 -48 -115q-47 -48 -115 -48z" />
    <glyph glyph-name="afii10084" unicode="&#x442;" 
d="M563 700v-140h-186v-560h-140v560h-187v140h513z" />
    <glyph glyph-name="afii10085" unicode="&#x443;" 
d="M423 556v144h140v-163q0 -20 -10 -36l-280 -467q-19 -34 -60 -34h-163v140h124l51 86l-165 275q-10 16 -10 36v163h140v-144l117 -194z" />
    <glyph glyph-name="afii10086" unicode="&#x444;" horiz-adv-x="800" 
d="M470 607h117q67 0 115 -48t48 -116v-186q0 -68 -48 -116t-115 -48h-117v-93h-140v93h-117q-67 0 -115 48t-48 116v186q0 68 48 116t115 48h117v93h140v-93zM213 233h117v234h-117q-9 0 -16 -7t-7 -17v-186q0 -10 7 -17t16 -7zM610 257v186q0 10 -7 17t-16 7h-117v-234
h117q9 0 16 7t7 17z" />
    <glyph glyph-name="afii10087" unicode="&#x445;" 
d="M563 700v-163q0 -28 -20 -50l-137 -137l137 -137q20 -22 20 -50v-163h-140v134l-116 117l-117 -117v-134h-140v163q0 29 21 50l137 137l-137 137q-21 21 -21 50v163h140v-134l117 -117l116 117v134h140z" />
    <glyph glyph-name="afii10088" unicode="&#x446;" horiz-adv-x="740" 
d="M563 700v-560h127v-290h-140v150h-500v700h140v-560h233v560h140z" />
    <glyph glyph-name="afii10089" unicode="&#x447;" 
d="M423 397v303h140v-700h-140v235q-14 -2 -23 -2h-187q-67 0 -115 48t-48 116v303h140v-303q0 -10 7 -17t16 -7h187q10 0 16.5 7t6.5 17z" />
    <glyph glyph-name="afii10090" unicode="&#x448;" horiz-adv-x="800" 
d="M610 140v560h140v-700h-700v700h140v-560h140v560h140v-560h140z" />
    <glyph glyph-name="afii10091" unicode="&#x449;" horiz-adv-x="940" 
d="M750 700v-560h140v-290h-140v150h-700v700h140v-560h140v560h140v-560h140v560h140z" />
    <glyph glyph-name="afii10092" unicode="&#x44a;" horiz-adv-x="753" 
d="M330 420h210q68 0 115 -48q48 -48 48 -115v-94q0 -67 -48 -115q-47 -48 -115 -48h-350v560h-140v140h280v-280zM563 163v94q0 9 -6.5 16t-16.5 7h-210v-140h210q10 0 16.5 7t6.5 16z" />
    <glyph glyph-name="afii10093" unicode="&#x44b;" horiz-adv-x="773" 
d="M190 420h210q68 0 115 -48q48 -48 48 -115v-94q0 -67 -48 -115q-47 -48 -115 -48h-350v700h140v-280zM423 163v94q0 9 -6.5 16t-16.5 7h-210v-140h210q10 0 16.5 7t6.5 16zM723 0h-140v700h140v-700z" />
    <glyph glyph-name="afii10094" unicode="&#x44c;" 
d="M190 420h210q68 0 115 -48q48 -48 48 -115v-94q0 -67 -48 -115q-47 -48 -115 -48h-350v700h140v-280zM423 163v94q0 9 -6.5 16t-16.5 7h-210v-140h210q10 0 16.5 7t6.5 16z" />
    <glyph glyph-name="afii10095" unicode="&#x44d;" 
d="M190 537v-70h-140v70q0 67 48 115t115 48h187q68 0 115 -48q48 -48 48 -115v-374q0 -67 -48 -115q-47 -48 -115 -48h-187q-67 0 -115 48t-48 115v70h140v-70q0 -9 7 -16t16 -7h187q10 0 16.5 7t6.5 16v117h-233v140h233v117q0 9 -6.5 16t-16.5 7h-187q-9 0 -16 -7t-7 -16
z" />
    <glyph glyph-name="afii10096" unicode="&#x44e;" horiz-adv-x="893" 
d="M493 700h187q68 0 115 -48q48 -48 48 -115v-374q0 -67 -48 -115q-47 -48 -115 -48h-187q-67 0 -115 48t-48 115v117h-140v-280h-140v700h140v-280h140v117q0 67 48 115t115 48zM703 163v374q0 9 -6.5 16t-16.5 7h-187q-9 0 -16 -7t-7 -16v-374q0 -9 7 -16t16 -7h187
q10 0 16.5 7t6.5 16z" />
    <glyph glyph-name="afii10097" unicode="&#x44f;" 
d="M71 244l59 59q-37 22 -58.5 59t-21.5 81v94q0 67 48 115t115 48h350v-700h-140v280h-118l-115 -115v-165h-140v194q0 29 21 50zM190 537v-94q0 -10 6.5 -16.5t16.5 -6.5h210v140h-210q-9 0 -16 -7t-7 -16z" />
    <glyph glyph-name="uni0450" unicode="&#x450;" 
d="M563 700v-140h-373v-140h280v-140h-280v-140h373v-140h-513v700h513zM180 971l184 -129l-57 -82l-185 129z" />
    <glyph glyph-name="afii10071" unicode="&#x451;" 
d="M563 700v-140h-373v-140h280v-140h-280v-140h373v-140h-513v700h513zM467 760h-120v120h120v-120zM267 760h-120v120h120v-120z" />
    <glyph glyph-name="afii10099" unicode="&#x452;" horiz-adv-x="753" 
d="M353 467h187q67 0 115 -48t48 -116v-140q0 -67 -48 -115q-47 -48 -115 -48h-93v140h93q10 0 16.5 7t6.5 16v140q0 10 -6.5 17t-16.5 7h-187q-9 0 -16 -7t-7 -17v-303h-140v560h-140v140h513v-140h-233v-95q16 2 23 2z" />
    <glyph glyph-name="afii10100" unicode="&#x453;" horiz-adv-x="567" 
d="M190 560v-560h-140v700h467v-140h-327zM259 760l-64 90l185 129l63 -90z" />
    <glyph glyph-name="afii10101" unicode="&#x454;" 
d="M563 537v-70h-140v70q0 9 -6.5 16t-16.5 7h-187q-9 0 -16 -7t-7 -16v-117h233v-140h-233v-117q0 -9 7 -16t16 -7h187q10 0 16.5 7t6.5 16v70h140v-70q0 -67 -48 -115q-47 -48 -115 -48h-187q-67 0 -115 48t-48 115v374q0 67 48 115t115 48h187q68 0 115 -48
q48 -48 48 -115z" />
    <glyph glyph-name="afii10102" unicode="&#x455;" 
d="M400 0h-187q-67 0 -115 48t-48 115v31h140v-31q0 -9 7 -16t16 -7h187q10 0 16.5 6.5t6.5 16.5v44q-1 9 -12 15l-274 132l-2 1q-51 27 -74 82q-11 30 -11 53v47q0 67 48 115t115 48h187q68 0 115 -48q48 -48 48 -115v-31h-140v31q0 9 -6.5 16t-16.5 7h-187q-9 0 -16 -7
t-7 -16v-44q2 -9 12 -15l274 -132l2 -1q51 -27 74 -82q11 -30 11 -53v-47q0 -67 -48 -115q-47 -48 -115 -48z" />
    <glyph glyph-name="afii10103" unicode="&#x456;" horiz-adv-x="240" 
d="M190 0h-140v700h140v-700z" />
    <glyph glyph-name="afii10104" unicode="&#x457;" horiz-adv-x="420" 
d="M370 760h-120v120h120v-120zM170 760h-120v120h120v-120zM280 0h-140v700h140v-700z" />
    <glyph glyph-name="afii10105" unicode="&#x458;" 
d="M400 0h-187q-67 0 -115 48t-48 115v70h140v-70q0 -9 7 -16t16 -7h187q10 0 16.5 7t6.5 16v537h140v-537q0 -67 -48 -115q-47 -48 -115 -48z" />
    <glyph glyph-name="afii10106" unicode="&#x459;" horiz-adv-x="987" 
d="M563 420h210q68 0 116 -48t48 -115v-94q0 -67 -48 -115t-116 -48h-350v560h-140v-397q0 -67 -48 -115q-47 -48 -115 -48h-70v140h70q10 0 16.5 7t6.5 16v537h420v-280zM797 163v94q0 9 -7 16t-17 7h-210v-140h210q10 0 17 7t7 16z" />
    <glyph glyph-name="afii10107" unicode="&#x45a;" horiz-adv-x="987" 
d="M563 420h210q68 0 116 -48t48 -115v-94q0 -67 -48 -115t-116 -48h-350v280h-233v-280h-140v700h140v-280h233v280h140v-280zM797 163v94q0 9 -7 16t-17 7h-210v-140h210q10 0 17 7t7 16z" />
    <glyph glyph-name="afii10108" unicode="&#x45b;" horiz-adv-x="753" 
d="M353 467h187q68 0 115 -48q48 -48 48 -116v-303h-140v303q0 10 -6.5 17t-16.5 7h-187q-9 0 -16 -7t-7 -17v-303h-140v560h-140v140h513v-140h-233v-95q16 2 23 2z" />
    <glyph glyph-name="afii10109" unicode="&#x45c;" 
d="M563 700v-140h-52l-167 -200l178 -142q26 -21 26 -55v-163h-140v130l-188 150h-30v-280h-140v700h140v-280h22l212 255q21 25 54 25h85z" />
    <glyph glyph-name="uni045D" unicode="&#x45d;" 
d="M180 971l184 -129l-57 -82l-185 129zM50 0v700h140v-399l233 399h140v-700h-140v399l-233 -399h-140z" />
    <glyph glyph-name="afii10110" unicode="&#x45e;" 
d="M141 867h111q19 -34 54 -34q36 0 55 34h111q-18 -52 -63.5 -84.5t-102.5 -32.5q-56 0 -101 32.5t-64 84.5zM423 556v144h140v-163q0 -20 -10 -36l-280 -467q-19 -34 -60 -34h-163v140h124l51 86l-165 275q-10 16 -10 36v163h140v-144l117 -194z" />
    <glyph glyph-name="afii10193" unicode="&#x45f;" 
d="M423 700h140v-700h-173v-150h-140v150h-200v700h140v-560h233v560z" />
    <glyph glyph-name="endash" unicode="&#x2013;" horiz-adv-x="520" 
d="M470 280h-420v140h420v-140z" />
    <glyph glyph-name="emdash" unicode="&#x2014;" horiz-adv-x="987" 
d="M937 280h-887v140h887v-140z" />
    <glyph glyph-name="quoteleft" unicode="&#x2018;" horiz-adv-x="277" 
d="M170 527h-120v160q0 25 18 42l75 76l85 -85l-58 -58v-135z" />
    <glyph glyph-name="quoteright" unicode="&#x2019;" horiz-adv-x="278" 
d="M108 670v135h120v-160q0 -25 -17 -42l-76 -76l-85 85z" />
    <glyph glyph-name="quotesinglbase" unicode="&#x201a;" horiz-adv-x="278" 
d="M108 5v135h120v-160q0 -25 -17 -42l-76 -76l-85 85z" />
    <glyph glyph-name="quotereversed" unicode="&#x201b;" horiz-adv-x="278" 
d="M50 805h120v-135l58 -58l-85 -85l-75 76q-18 17 -18 42v160z" />
    <glyph glyph-name="quotedblleft" unicode="&#x201c;" horiz-adv-x="478" 
d="M170 527h-120v160q0 25 18 42l75 76l85 -85l-58 -58v-135zM370 662v-135h-120v160q0 25 18 42l75 76l85 -85z" />
    <glyph glyph-name="quotedblright" unicode="&#x201d;" horiz-adv-x="478" 
d="M308 805h120v-160q0 -25 -17 -42l-76 -76l-85 85l58 58v135zM108 670v135h120v-160q0 -25 -17 -42l-76 -76l-85 85z" />
    <glyph glyph-name="quotedblbase" unicode="&#x201e;" horiz-adv-x="478" 
d="M411 -62l-76 -76l-85 85l58 58v135h120v-160q0 -25 -17 -42zM211 -62l-76 -76l-85 85l58 58v135h120v-160q0 -25 -17 -42z" />
    <glyph glyph-name="uni201F" unicode="&#x201f;" horiz-adv-x="478" 
d="M228 612l-85 -85l-75 76q-18 17 -18 42v160h120v-135zM428 612l-85 -85l-75 76q-18 17 -18 42v160h120v-135z" />
    <glyph glyph-name="dagger" unicode="&#x2020;" horiz-adv-x="620" 
d="M380 370v-370h-140v370h-190v140h190v190h140v-190h190v-140h-190z" />
    <glyph glyph-name="daggerdbl" unicode="&#x2021;" horiz-adv-x="620" 
d="M570 510v-140h-190v-240h190v-140h-190v-190h-140v190h-190v140h190v240h-190v140h190v190h140v-190h190z" />
    <glyph glyph-name="bullet" unicode="&#x2022;" horiz-adv-x="340" 
d="M170 230q-120 0 -120 120t120 120t120 -120t-120 -120z" />
    <glyph glyph-name="ellipsis" unicode="&#x2026;" horiz-adv-x="673" 
d="M190 0h-140v140h140v-140zM407 0h-140v140h140v-140zM623 0h-140v140h140v-140z" />
    <glyph glyph-name="perthousand" unicode="&#x2030;" horiz-adv-x="1225" 
d="M230 340h-90q-37 0 -63.5 26.5t-26.5 63.5v180q0 37 26.5 63.5t63.5 26.5h90q37 0 63.5 -26.5t26.5 -63.5v-180q0 -37 -26.5 -63.5t-63.5 -26.5zM230 430v180h-90v-180h90zM732 0h-90q-37 0 -63.5 26.5t-26.5 63.5v180q0 37 26.5 63.5t63.5 26.5h90q38 0 64 -26.5
t26 -63.5v-180q0 -37 -26 -63.5t-64 -26.5zM732 270h-90v-180h90v180zM1085 0h-90q-37 0 -63.5 26.5t-26.5 63.5v180q0 37 26.5 63.5t63.5 26.5h90q37 0 63.5 -26.5t26.5 -63.5v-180q0 -37 -26.5 -63.5t-63.5 -26.5zM1085 270h-90v-180h90v180zM289 130v-130h-105v152
q0 21 16 37l381 381v130h105v-152q0 -21 -16 -37z" />
    <glyph glyph-name="minute" unicode="&#x2032;" horiz-adv-x="299" 
d="M250 800l-80 -245h-120l80 245h120z" />
    <glyph glyph-name="second" unicode="&#x2033;" horiz-adv-x="499" 
d="M250 800l-80 -245h-120l80 245h120zM450 800l-80 -245h-120l80 245h120z" />
    <glyph glyph-name="uni2034" unicode="&#x2034;" horiz-adv-x="699" 
d="M250 800l-80 -245h-120l80 245h120zM450 800l-80 -245h-120l80 245h120zM650 800l-80 -245h-120l80 245h120z" />
    <glyph glyph-name="guilsinglleft" unicode="&#x2039;" horiz-adv-x="327" 
d="M277 244l-71 -71l-141 142q-15 14 -15 35t15 35l141 142l71 -71l-106 -106z" />
    <glyph glyph-name="guilsinglright" unicode="&#x203a;" horiz-adv-x="327" 
d="M50 456l71 71l141 -142q15 -14 15 -35t-15 -35l-141 -142l-71 71l106 106z" />
    <glyph glyph-name="fraction" unicode="&#x2044;" horiz-adv-x="618" 
d="M187 0h-137l381 700h137z" />
    <glyph glyph-name="Euro" unicode="&#x20ac;" horiz-adv-x="581" 
d="M531 560h-125q-47 0 -86 -26.5t-57 -68.5h188v-90h-200v-58h130v-90h-115q20 -40 57.5 -63.5t82.5 -23.5h125v-140h-125q-58 0 -115 23q-113 49 -157 157q-10 22 -15 47h-69v90h61v58h-61v90h67q5 25 17 55q44 108 157 157q57 23 115 23h125v-140z" />
    <glyph glyph-name="trademark" unicode="&#x2122;" horiz-adv-x="525" 
d="M50 645v55h192v-55h-69v-205h-55v205h-68zM304 700l58 -75l58 75h55v-260h-55v170l-31 -40v-26h-55v26l-30 40v-170h-55v260h55z" />
    <glyph glyph-name="uniF8FF" unicode="&#xf8ff;" horiz-adv-x="1909" 
d="M207 571v-292h-23v134h-112v-134h-22v292h22v-135h112v135h23zM290 571v-292h-23v292h23zM507 571v-23h-67v-269h-23v269h-67v23h157zM715 571v-79q0 -28 -16 -48q-16 -22 -51 -31v-134h-22v134q-35 9 -51 31q-16 20 -16 48v79h22v-79q0 -23 16.5 -39.5t39.5 -16.5
t39.5 17t16.5 39v79h22zM924 492q0 -32 -24 -56q-23 -23 -55 -23h-56v-134h-22v292h78q33 0 55 -24q24 -23 24 -55zM901 492q0 24 -16 40t-40 16h-56v-112h56q24 0 40 16t16 40zM1124 301v-22h-157v292h157v-23h-135v-112h90v-23h-90v-112h135zM1180 279v22h22v-22h-22z
M1388 346h23q-5 -25 -23 -44q-23 -23 -55 -23t-57 23q-21 24 -21 55v135q0 33 22 56q25 23 56 23q33 0 55 -24q18 -19 23 -44h-23q-3 21 -18 33t-37 12q-23 0 -40 -16.5t-17 -39.5v-135q0 -22 17 -39t40 -17q19 0 34.5 13.5t20.5 31.5zM1607 492v-135q0 -31 -24 -55
q-23 -23 -55 -23q-31 0 -56 23q-21 24 -21 55v135q0 33 22 56q25 23 55 23q32 0 55 -24q24 -23 24 -55zM1585 357v135q0 24 -16.5 40t-40.5 16q-22 0 -39 -16.5t-17 -39.5v-135q0 -22 17 -39t39 -17q23 0 40 17t17 39zM1859 571v-292h-23v269q-27 0 -47 -16t-20 -40v-79h-23
v79q0 24 -19.5 40t-46.5 16v-269h-23v292h34q35 0 66 -36q33 36 69 36h33z" />
    <glyph glyph-name="NULL" horiz-adv-x="0" 
 />
    <glyph glyph-name="CR" horiz-adv-x="333" 
 />
    <glyph glyph-name="G.alt" horiz-adv-x="1000" 
 />
    <glyph glyph-name="idotaccent" horiz-adv-x="1000" 
 />
    <glyph glyph-name="M.alt" horiz-adv-x="1000" 
 />
    <glyph glyph-name="S.alt" horiz-adv-x="1000" 
 />
    <glyph glyph-name="W.alt" horiz-adv-x="1000" 
 />
    </font>
</defs>
</svg>
