<?xml version="1.0" standalone="no"?>
<!DOCTYPE svg PUBLIC "-//W3C//DTD SVG 1.1//EN" "http://www.w3.org/Graphics/SVG/1.1/DTD/svg11.dtd" >
<svg xmlns="http://www.w3.org/2000/svg" xmlns:xlink="http://www.w3.org/1999/xlink" version="1.1">
<metadata>
Created by FontForge 20150102 at Sun Feb 15 17:55:33 2015
 By uniteet7
Copyright (c) 2002, 2006 Parachute :, www.parachute.gr.  All rights reserved.
</metadata>
<defs>
<font id="PFMechanicaAProBold" horiz-adv-x="583" >
  <font-face 
    font-family="PFMechanicaAProBold"
    font-weight="700"
    font-stretch="normal"
    units-per-em="1000"
    panose-1="2 0 8 3 8 0 0 2 0 3"
    ascent="750"
    descent="-250"
    x-height="478"
    cap-height="724"
    bbox="-260 -280 1118 1016"
    underline-thickness="80"
    underline-position="-35"
    unicode-range="U+0020-F6D4"
  />
<missing-glyph horiz-adv-x="450" 
d="M0 660h450v-660h-450v660zM333 77l-112 188l-104 -188h216zM333 584h-216l104 -179zM77 155l98 180l-98 170v-350zM373 155v350l-106 -170z" />
    <glyph glyph-name=".notdef" horiz-adv-x="450" 
d="M0 660h450v-660h-450v660zM333 77l-112 188l-104 -188h216zM333 584h-216l104 -179zM77 155l98 180l-98 170v-350zM373 155v350l-106 -170z" />
    <glyph glyph-name=".null" horiz-adv-x="0" 
 />
    <glyph glyph-name="nonmarkingreturn" horiz-adv-x="333" 
 />
    <glyph glyph-name="space" unicode=" " horiz-adv-x="295" 
 />
    <glyph glyph-name="exclam" unicode="!" horiz-adv-x="249" 
d="M145 155l-80 74v495h119v-569h-39zM65 0v128h119v-128h-119z" />
    <glyph glyph-name="quotedbl" unicode="&#x22;" horiz-adv-x="391" 
d="M223 480v228h103v-228h-103zM65 480v228h103v-228h-103z" />
    <glyph glyph-name="numbersign" unicode="#" horiz-adv-x="564" 
d="M424 0h-98v202h-85v-202h-99v202h-115v91h115v114h-115v91h115v210h99v-210h85v210h98v-210h113v-91h-113v-114h113v-91h-113v-202zM241 407v-114h85v114h-85z" />
    <glyph glyph-name="dollar" unicode="$" horiz-adv-x="543" 
d="M151 604v-169h86v169h-86zM391 120v193h-92v-193h92zM398 0h-99v-68h-62v68h-108l-89 86v34h197v193h-92l-113 113v185l113 113h92v47h62v-47h97l90 -86v-34h-187v-169h99l112 -112v-210z" />
    <glyph glyph-name="percent" unicode="%" horiz-adv-x="817" 
d="M681 0h-134l-80 73v211l80 75h134l79 -75v-211zM191 0h-105l537 724h106zM661 265h-94v-171h94v171zM268 365h-134l-79 73v212l79 74h134l80 -74v-212zM248 630h-94v-171h94v171z" />
    <glyph glyph-name="ampersand" unicode="&#x26;" horiz-adv-x="612" 
d="M533 317v-204l-113 -113h-251l-113 113v182l68 67l-68 68v181l113 113h298v-120h-288v-169h230v69l124 -1v-68h42v-118h-42zM409 317h-230v-198h230v198z" />
    <glyph glyph-name="quotesingle" unicode="'" horiz-adv-x="233" 
d="M65 480v228h103v-228h-103z" />
    <glyph glyph-name="parenleft" unicode="(" horiz-adv-x="300" 
d="M184 -88l-143 143v526l143 143h57v-120h-76v-572h76v-120h-57z" />
    <glyph glyph-name="parenright" unicode=")" horiz-adv-x="300" 
d="M116 -88h-57v120h76v572h-76v120h57l143 -143v-526z" />
    <glyph glyph-name="asterisk" unicode="*" horiz-adv-x="435" 
d="M279 523l92 -93l-90 -62l-64 112l-63 -112l-91 62l92 93l-132 25l34 99l122 -55l-17 127h110l-17 -127l123 55l33 -99z" />
    <glyph glyph-name="plus" unicode="+" horiz-adv-x="524" 
d="M316 203v-203h-108v203h-203v108h203v203h108v-203h203v-108h-203z" />
    <glyph glyph-name="comma" unicode="," horiz-adv-x="193" 
d="M178 -2l-113 -134v264h113v-130z" />
    <glyph glyph-name="hyphen" unicode="-" horiz-adv-x="380" 
d="M65 200v112h250v-112h-250z" />
    <glyph glyph-name="period" unicode="." horiz-adv-x="247" 
d="M65 0v128h117v-128h-117z" />
    <glyph glyph-name="slash" unicode="/" horiz-adv-x="321" 
d="M111 0h-107l206 724h107z" />
    <glyph glyph-name="zero" unicode="0" horiz-adv-x="581" 
d="M385 0h-190l-143 143v438l143 143h190l143 -143v-438zM405 605h-231v-486h231v486z" />
    <glyph glyph-name="one" unicode="1" horiz-adv-x="349" 
d="M137 0v605h-86v119h96l112 -114v-610h-122z" />
    <glyph glyph-name="two" unicode="2" horiz-adv-x="593" 
d="M452 0h-394l-1 269l143 143l209 -1v193h-333v34l89 86h251l112 -114v-209l-112 -113l-239 1v-169h365v-34z" />
    <glyph glyph-name="three" unicode="3" horiz-adv-x="572" 
d="M523 143l-143 -143h-243l-86 86v34h350v207l-163 -1l-85 85v34h248v159h-350v34l86 86h243l143 -143v-141l-67 -68l67 -67v-162z" />
    <glyph glyph-name="four" unicode="4" horiz-adv-x="614" 
d="M510 184v-184h-123v184h-228l-113 113v427h122v-420h219l1 420h122v-419h62v-121h-62z" />
    <glyph glyph-name="five" unicode="5" 
d="M423 0h-282l-89 86v34h364v193h-236l-113 113v298h348l90 -86v-34h-319v-169h237l112 -112v-210z" />
    <glyph glyph-name="six" unicode="6" horiz-adv-x="579" 
d="M183 329v-209h230v209h-230zM183 604v-156h240l113 -114v-221l-113 -113h-251l-113 113v519l90 92h242l86 -86v-34h-294z" />
    <glyph glyph-name="seven" unicode="7" horiz-adv-x="523" 
d="M380 510l-1 96h-345v118h467v-268l-221 -226v-230h-121v285z" />
    <glyph glyph-name="eight" unicode="8" horiz-adv-x="594" 
d="M538 611v-181l-68 -68l68 -67v-182l-113 -113h-258l-112 113v182l67 67l-67 68v181l112 113h258zM415 604h-238v-169h238v169zM415 317h-238v-198h238v198z" />
    <glyph glyph-name="nine" unicode="9" horiz-adv-x="579" 
d="M395 395v209h-231v-209h231zM395 120v156h-241l-112 114v221l112 113h251l114 -113v-519l-90 -92h-242l-86 86v35z" />
    <glyph glyph-name="colon" unicode=":" horiz-adv-x="245" 
d="M65 387v127h115v-127h-115zM65 0v127h115v-127h-115z" />
    <glyph glyph-name="semicolon" unicode=";" horiz-adv-x="204" 
d="M63 387v127h115v-127h-115zM177 -2l-113 -134v264h113v-130z" />
    <glyph glyph-name="less" unicode="&#x3c;" horiz-adv-x="573" 
d="M-4 303l514 227v-113l-361 -160l361 -160v-113l-514 227v92z" />
    <glyph glyph-name="equal" unicode="=" horiz-adv-x="644" 
d="M65 404h514v-105h-514v105zM65 215h514v-105h-514v105z" />
    <glyph glyph-name="greater" unicode="&#x3e;" horiz-adv-x="575" 
d="M65 97l361 160l-361 160v113l514 -227v-92l-514 -227v113z" />
    <glyph glyph-name="question" unicode="?" horiz-adv-x="500" 
d="M131 0v128h136v-128h-136zM252 171h-35l-87 92v179h229v162h-327v34l86 86h250l113 -114v-175l-113 -112h-116v-152z" />
    <glyph glyph-name="at" unicode="@" horiz-adv-x="759" 
d="M352 178l-117 112v132l117 112h233v82h-413v-508h448v-108h-445l-117 112v500l117 112h407l116 -112v-322l-116 -112h-230zM349 425v-139h236v139h-236z" />
    <glyph glyph-name="A" unicode="A" 
d="M216 724h154l159 -187v-451l-86 -86h-34v275h-233l-1 -275h-34l-87 86l-1 451zM293 627l-117 -133v-101h234v101z" />
    <glyph glyph-name="B" unicode="B" horiz-adv-x="597" 
d="M429 0h-364v724h364l113 -113v-181l-68 -68l68 -67v-182zM419 604h-230v-169h230v169zM419 317h-230v-198h230v198z" />
    <glyph glyph-name="C" unicode="C" horiz-adv-x="593" 
d="M455 0h-283l-114 113v497l114 114h283l86 -86v-34h-360v-484h360v-34z" />
    <glyph glyph-name="D" unicode="D" horiz-adv-x="598" 
d="M428 0h-363v724h363l112 -114v-497zM418 605h-230v-485h230v485z" />
    <glyph glyph-name="E" unicode="E" horiz-adv-x="532" 
d="M61 0v610l113 114h293v-120h-283v-169h283v-119h-283v-196h283v-120h-406z" />
    <glyph glyph-name="F" unicode="F" horiz-adv-x="472" 
d="M464 604h-283v-169h283v-119h-283v-316h-123l-1 581l143 143h264v-120z" />
    <glyph glyph-name="G" unicode="G" horiz-adv-x="588" 
d="M427 0h-255l-114 113v497l114 114h260l86 -86v-34h-337v-484h236v197h-105v118h115l112 -113v-209z" />
    <glyph glyph-name="H" unicode="H" 
d="M137 0l-86 86v552l86 86h34v-289h240v289h34l86 -86v-552l-86 -86h-34v317h-240v-317h-34z" />
    <glyph glyph-name="I" unicode="I" horiz-adv-x="280" 
d="M80 0v724h120v-724h-120z" />
    <glyph glyph-name="J" unicode="J" horiz-adv-x="570" 
d="M377 0h-249l-114 113v97h123v-90h230v516l89 88h34v-611z" />
    <glyph glyph-name="K" unicode="K" horiz-adv-x="589" 
d="M531 92l-87 -92h-35v317h-222v-317h-122v724h122v-251l209 251h134v-35l-211 -253h116l97 -96z" />
    <glyph glyph-name="L" unicode="L" horiz-adv-x="498" 
d="M171 0l-112 113v523l88 88h34v-604h316v-120h-326z" />
    <glyph glyph-name="M" unicode="M" horiz-adv-x="869" 
d="M806 92l-87 -92h-35v603h-194v-478h-123v478h-183v-603h-35l-87 92v518l114 114h201l113 -114v113h219l97 -96v-535z" />
    <glyph glyph-name="N" unicode="N" horiz-adv-x="621" 
d="M446 0v272l-271 274l-1 -546h-119v724h111l280 -283v197l86 86h34v-724h-120z" />
    <glyph glyph-name="O" unicode="O" horiz-adv-x="591" 
d="M421 0h-250l-113 113v497l113 114h250l112 -114v-497zM411 604h-230v-484h230v484z" />
    <glyph glyph-name="P" unicode="P" horiz-adv-x="547" 
d="M424 276h-240v-276h-34l-90 92v519l113 113h251l113 -113v-221zM414 604h-230v-209h230v209z" />
    <glyph glyph-name="Q" unicode="Q" horiz-adv-x="591" 
d="M354 -86h-114v86h-69l-113 113v497l113 114h250l112 -114v-497l-112 -113h-67v-86zM354 170v-50h57v484h-230v-484h59v50h114z" />
    <glyph glyph-name="R" unicode="R" horiz-adv-x="599" 
d="M416 604h-230v-209h230v209zM540 0h-124v128l-110 148h-120v-276h-124v611l113 113h251l113 -113v-221l-94 -94l95 -128v-168z" />
    <glyph glyph-name="S" unicode="S" horiz-adv-x="576" 
d="M416 0h-269l-89 86v34h351v193h-246l-113 113v185l113 113h251l90 -86v-34h-335v-169h247l112 -112v-210z" />
    <glyph glyph-name="T" unicode="T" horiz-adv-x="597" 
d="M356 604v-604h-119v604h-219v34l90 86h382l89 -86v-34h-223z" />
    <glyph glyph-name="U" unicode="U" horiz-adv-x="595" 
d="M423 0h-250l-113 113v525l89 86h34v-604h230v604h35l87 -86v-525z" />
    <glyph glyph-name="V" unicode="V" horiz-adv-x="586" 
d="M531 187l-159 -187h-154l-163 187l1 537h34l87 -86l1 -408l117 -133l117 133l-1 408l86 86h34v-537z" />
    <glyph glyph-name="W" unicode="W" horiz-adv-x="867" 
d="M708 0h-219v113l-113 -113h-201l-114 113v519l87 92h35v-605h183v480h123v-480h194v605h35l87 -92v-535z" />
    <glyph glyph-name="X" unicode="X" horiz-adv-x="609" 
d="M422 0v144l-116 133l-117 -133v-144h-123v187l159 182l-159 184v171h123v-129l117 -132l116 132v129h121v-171l-157 -183l157 -183v-187h-121z" />
    <glyph glyph-name="Y" unicode="Y" horiz-adv-x="532" 
d="M327 305v-305h-120v306l-180 206v212h123v-170l117 -132l116 132v170h121v-212z" />
    <glyph glyph-name="Z" unicode="Z" horiz-adv-x="615" 
d="M62 245l365 307v51h-345v121h466v-226l-365 -308v-70h366v-120h-487v245z" />
    <glyph glyph-name="bracketleft" unicode="[" horiz-adv-x="346" 
d="M66 -96v820h222v-120h-97v-581h97v-119h-222z" />
    <glyph glyph-name="backslash" unicode="\" horiz-adv-x="322" 
d="M210 0l-206 724h107l206 -724h-107z" />
    <glyph glyph-name="bracketright" unicode="]" horiz-adv-x="345" 
d="M57 -96v119h97v581h-97v120h222v-820h-222z" />
    <glyph glyph-name="asciicircum" unicode="^" horiz-adv-x="627" 
d="M449 492l-136 133l-136 -133l-155 1l246 231h90l246 -231z" />
    <glyph glyph-name="underscore" unicode="_" horiz-adv-x="632" 
d="M66 -155v80h500v-80h-500z" />
    <glyph glyph-name="grave" unicode="`" horiz-adv-x="561" 
d="M231 528l-147 145h140l99 -145h-92z" />
    <glyph glyph-name="a" unicode="a" horiz-adv-x="561" 
d="M89 358v40l82 79h197l143 -143v-238l-102 -96h-269l-102 96v114l102 96h216l33 -35v87h-300zM389 191h-229v-78h229v78z" />
    <glyph glyph-name="b" unicode="b" 
d="M416 0h-249l-114 113v585h34l90 -92v-189l61 62h178l113 -114v-252zM406 358h-229v-238h229v238z" />
    <glyph glyph-name="c" unicode="c" horiz-adv-x="484" 
d="M363 0h-200l-113 113v252l113 114h200l86 -86v-35h-277v-238h277v-34z" />
    <glyph glyph-name="d" unicode="d" horiz-adv-x="594" 
d="M442 0h-34v62l-61 -62h-179l-112 113l-1 221l143 145h149l61 -64v191l90 92h34v-606zM408 358h-230v-239h230v239z" />
    <glyph glyph-name="e" unicode="e" horiz-adv-x="567" 
d="M411 173l-239 -1v-52h327v-34l-89 -86h-248l-113 113v222l142 143h220l113 -113v-79zM401 358h-229v-65h229v65z" />
    <glyph glyph-name="f" unicode="f" horiz-adv-x="332" 
d="M231 358h-55v-358h-122v545l143 143h121v-121h-142v-89h142v-34z" />
    <glyph glyph-name="g" unicode="g" horiz-adv-x="574" 
d="M516 -86l-113 -114h-281v34l91 90h179v138l-61 -62h-179l-112 112l-1 222l143 143h220l114 -113v-450zM392 357h-230v-238h230v238z" />
    <glyph glyph-name="h" unicode="h" horiz-adv-x="598" 
d="M540 92l-88 -92h-34v358h-231v-358h-35l-88 90v608h35l88 -92v-189l63 62h193l97 -97v-290z" />
    <glyph glyph-name="i" unicode="i" horiz-adv-x="262" 
d="M70 564v125h121v-125h-121zM70 478h122v-386l-87 -92h-35v478z" />
    <glyph glyph-name="j" unicode="j" horiz-adv-x="319" 
d="M128 564v125h120v-125h-120zM106 -198h-101v120h122v556h122v-533z" />
    <glyph glyph-name="k" unicode="k" horiz-adv-x="494" 
d="M454 92l-88 -92h-34v206h-144v-206h-122v688h122v-334l134 124h126v-35l-139 -124h48l97 -96v-131z" />
    <glyph glyph-name="l" unicode="l" horiz-adv-x="303" 
d="M203 0l-143 143v545h122v-568h103v-120h-82z" />
    <glyph glyph-name="m" unicode="m" horiz-adv-x="752" 
d="M692 92l-87 -92h-35v358h-134v-223h-123v223h-132l-1 -358h-35l-87 92v273l114 114h151l113 -114v113h159l97 -96v-290z" />
    <glyph glyph-name="n" unicode="n" horiz-adv-x="596" 
d="M538 92l-88 -92h-34v358h-231l-1 -358h-35l-87 92v386h123v-61l62 61h194l97 -96v-290z" />
    <glyph glyph-name="o" unicode="o" horiz-adv-x="582" 
d="M416 0h-250l-113 113v252l113 114h250l112 -114v-252zM406 358h-231v-238h231v238z" />
    <glyph glyph-name="p" unicode="p" horiz-adv-x="556" 
d="M134 477h34v-62l61 62h179l112 -113l1 -221l-143 -143h-149l-61 62v-192l-90 -91h-34v606zM168 119h230v238h-230v-238z" />
    <glyph glyph-name="q" unicode="q" horiz-adv-x="550" 
d="M143 478h250l114 -113v-584h-34l-90 91v190l-61 -62h-179l-112 113v252zM153 119h230v239h-230v-239z" />
    <glyph glyph-name="r" unicode="r" horiz-adv-x="325" 
d="M148 0l-88 92v243l143 143h112v-120h-133v-358h-34z" />
    <glyph glyph-name="s" unicode="s" horiz-adv-x="563" 
d="M53 86v34h351v65h-246l-113 113v67l113 113h251l90 -86v-34h-335v-51h247l112 -112v-52l-141 -143h-240z" />
    <glyph glyph-name="t" unicode="t" horiz-adv-x="327" 
d="M101 0h-35v601h122v-123h148v-34l-87 -86h-61v-266z" />
    <glyph glyph-name="u" unicode="u" horiz-adv-x="593" 
d="M527 0h-123v61l-62 -61h-148l-143 143v243l87 92h35v-359h231v267l88 92h35v-478z" />
    <glyph glyph-name="v" unicode="v" horiz-adv-x="547" 
d="M498 149l-153 -149h-143l-153 149v237l87 92h35v-272l102 -103l103 103v272h34l88 -92v-237z" />
    <glyph glyph-name="w" unicode="w" horiz-adv-x="752" 
d="M595 1l-159 -1v113l-113 -113h-151l-114 113v274l87 92h36v-360h132v225h123v-225h134v360h35l87 -92v-290z" />
    <glyph glyph-name="x" unicode="x" horiz-adv-x="545" 
d="M378 0l-112 146l-112 -146h-113v35l160 204l-160 205v35h121l114 -148l114 148h111v-35l-160 -205l160 -204v-35h-123z" />
    <glyph glyph-name="y" unicode="y" horiz-adv-x="581" 
d="M409 -200h-282v34l92 90h178v76h-255l-97 96v290l88 92h34v-359h232v359h35l87 -92v-472z" />
    <glyph glyph-name="z" unicode="z" horiz-adv-x="572" 
d="M64 140l262 218h-252v121h425v-133l-269 -227h278v-119h-444v140z" />
    <glyph glyph-name="braceleft" unicode="{" horiz-adv-x="320" 
d="M206 -88l-141 141v211l-58 56l58 57v205l141 140h53v-118h-75v-250l-38 -34l38 -33v-256h75v-119h-53z" />
    <glyph glyph-name="bar" unicode="|" horiz-adv-x="226" 
d="M66 -40v780h94v-780h-94z" />
    <glyph glyph-name="braceright" unicode="}" horiz-adv-x="321" 
d="M255 264v-211l-141 -141h-53v119h75v256l38 33l-38 34v250h-75v118h53l141 -140v-205l58 -57z" />
    <glyph glyph-name="asciitilde" unicode="~" horiz-adv-x="604" 
d="M450 174l-265 50l-81 -62l-55 101l108 73l265 -50l82 64l56 -102z" />
    <glyph glyph-name="exclamdown" unicode="&#xa1;" horiz-adv-x="251" 
d="M105 323l80 -74v-495h-119v569h39zM185 478v-128h-119v128h119z" />
    <glyph glyph-name="cent" unicode="&#xa2;" horiz-adv-x="439" 
d="M196 -100v100h-56l-113 113v252l113 114h56v102h83v-102h61l86 -86v-35h-277v-238h277v-34l-86 -86h-61v-100h-83z" />
    <glyph glyph-name="sterling" unicode="&#xa3;" horiz-adv-x="587" 
d="M116 610l114 114h166l142 -143v-80h-122v104h-177v-190h154v-113h-154v-182h288v-120h-485v120h74v182h-67v113h67v195z" />
    <glyph glyph-name="currency" unicode="&#xa4;" horiz-adv-x="627" 
d="M197 117l-24 26l-26 -26h-71l-18 17l65 65l-25 29v155l24 27l-64 65l18 17h71l25 -26l25 27h219l31 -34l32 33h71l18 -17l-71 -71l21 -21v-155l-22 -23l72 -71l-18 -17h-71l-33 33l-30 -33h-219zM397 383h-178v-155h178v155z" />
    <glyph glyph-name="yen" unicode="&#xa5;" horiz-adv-x="548" 
d="M431 417h65v-76h-131l-30 -36v-29h161v-77h-161v-199h-120v199h-163v77h163v30l-30 35h-133v76h66l-83 95v212h123v-170l117 -132l116 132v170h121v-212z" />
    <glyph glyph-name="brokenbar" unicode="&#xa6;" horiz-adv-x="224" 
d="M65 -40v378h94v-378h-94zM65 360v378h94v-378h-94z" />
    <glyph glyph-name="section" unicode="&#xa7;" horiz-adv-x="577" 
d="M409 380h-240v-129h240v129zM50 494v117l113 114h251l90 -87v-34h-335v-101h247l112 -113v-148l-51 -52l51 -52v-131l-112 -113h-269l-89 86v34h351v114h-246l-113 114v147l52 52z" />
    <glyph glyph-name="dieresis" unicode="&#xa8;" horiz-adv-x="446" 
d="M265 534v128h115v-128h-115zM66 534v128h115v-128h-115z" />
    <glyph glyph-name="copyright" unicode="&#xa9;" horiz-adv-x="824" 
d="M412 -6q-73 0 -140 25.5t-118 72.5t-81 113.5t-30 148.5t30 148.5t81 113.5t118 72.5t140 25.5t140 -25.5t118 -72.5t81 -113.5t30 -148.5t-30 -148.5t-81 -113.5t-118 -72.5t-140 -25.5zM412 638q-57 0 -107 -21t-87 -58.5t-58 -90t-21 -114.5t21 -114.5t58 -90
t87 -58.5t107 -21t106.5 21t86.5 58.5t58.5 90t21.5 114.5t-21.5 114.5t-58.5 90t-86.5 58.5t-106.5 21zM259 241v226l90 85h197v-78h-204v-240h204v-78h-197z" />
    <glyph glyph-name="ordfeminine" unicode="&#xaa;" horiz-adv-x="409" 
d="M278 409h-152q-17 15 -34 30.5t-33 30.5v49q16 15 33 30.5t34 30.5h119l23 -24v49h-180v22q13 11 26 23t27 25h119q21 -20 43 -40t43 -40v-125zM268 511h-132v-33h132v33z" />
    <glyph glyph-name="guillemotleft" unicode="&#xab;" horiz-adv-x="518" 
d="M468 390l-133 -131l133 -133l-68 -67l-154 152v93l154 153zM256 390l-133 -131l133 -133l-68 -67l-154 152v93l154 153z" />
    <glyph glyph-name="logicalnot" unicode="&#xac;" horiz-adv-x="504" 
d="M354 253h-356v84h440v-262h-84v178z" />
    <glyph glyph-name="sfthyphen" unicode="&#xad;" horiz-adv-x="382" 
d="M66 200v112h250v-112h-250z" />
    <glyph glyph-name="registered" unicode="&#xae;" horiz-adv-x="824" 
d="M412 -6q-73 0 -140 25.5t-118 72.5t-81 113.5t-30 148.5t30 148.5t81 113.5t118 72.5t140 25.5t140 -25.5t118 -72.5t81 -113.5t30 -148.5t-30 -148.5t-81 -113.5t-118 -72.5t-140 -25.5zM412 638q-57 0 -107 -21t-87 -58.5t-58 -90t-21 -114.5t21 -114.5t58 -90
t87 -58.5t107 -21t106.5 21t86.5 58.5t58.5 90t21.5 114.5t-21.5 114.5t-58.5 90t-86.5 58.5t-106.5 21zM493 322h-163v-165h-74v318l81 78h229v-155l-36 -38l36 -37v-166h-73v165zM330 483v-92h163v92h-163z" />
    <glyph glyph-name="macron" unicode="&#xaf;" horiz-adv-x="561" 
d="M88 528v92h349v-92h-349z" />
    <glyph glyph-name="degree" unicode="&#xb0;" horiz-adv-x="372" 
d="M328 565q0 -30 -11 -56t-30.5 -45.5t-45.5 -30.5t-56 -11t-56 11t-45.5 30.5t-30.5 45.5t-11 56t11 56t30.5 45.5t45.5 30.5t56 11t56 -11t45.5 -30.5t30.5 -45.5t11 -56zM255 565q0 31 -20 52.5t-50 21.5t-50 -21.5t-20 -52.5t20 -52.5t50 -21.5t50 21.5t20 52.5z" />
    <glyph glyph-name="plusminus" unicode="&#xb1;" horiz-adv-x="578" 
d="M339 146h-100v149h-207v100h207v149h100v-149h207v-100h-207v-149zM32 100h514v-100h-514v100z" />
    <glyph glyph-name="twosuperior" unicode="&#xb2;" horiz-adv-x="408" 
d="M299 319h-241v155l87 81l125 -1v90h-207v29l56 50h164l70 -65v-118l-70 -66l-141 1v-78h215v-28z" />
    <glyph glyph-name="threesuperior" unicode="&#xb3;" horiz-adv-x="393" 
d="M343 400l-88 -81h-149l-55 50v28h206v98q-23 0 -46.5 -0.5t-44.5 -0.5l-54 50v29h145v71h-206v29l55 50h149l88 -80v-83l-37 -33q9 -8 18.5 -16.5t18.5 -16.5v-94z" />
    <glyph glyph-name="acute" unicode="&#xb4;" horiz-adv-x="561" 
d="M327 528h-92l99 145h140z" />
    <glyph glyph-name="mu" unicode="&#xb5;" horiz-adv-x="585" 
d="M87 -221h-34l1 607l87 92h35v-359h231v267l88 92h35v-478h-123v61l-62 -61h-170v-130z" />
    <glyph glyph-name="mu" unicode="&#x3bc;" horiz-adv-x="585" 
d="M87 -221h-34l1 607l87 92h35v-359h231v267l88 92h35v-478h-123v61l-62 -61h-170v-130z" />
    <glyph glyph-name="paragraph" unicode="&#xb6;" horiz-adv-x="565" 
d="M349 176l-55 55h-158l-96 90v287l96 91h395v-93l-73 -1v-649l-138 -142h-111v105h140v257z" />
    <glyph glyph-name="periodcentered" unicode="&#xb7;" horiz-adv-x="247" 
d="M66 227v127h115v-127h-115z" />
    <glyph glyph-name="cedilla" unicode="&#xb8;" horiz-adv-x="561" 
d="M241 -236h-101v77h101v170h88v-170z" />
    <glyph glyph-name="onesuperior" unicode="&#xb9;" horiz-adv-x="218" 
d="M74 319v326h-51v78h67l70 -65v-339h-86z" />
    <glyph glyph-name="ordmasculine" unicode="&#xba;" horiz-adv-x="395" 
d="M273 409h-152q-17 15 -35 31t-34 31v143l69 64h152q17 -16 34.5 -33t34.5 -31v-143zM258 602h-122v-118h122v118z" />
    <glyph glyph-name="guillemotright" unicode="&#xbb;" horiz-adv-x="518" 
d="M329 59l-68 67l133 133l-133 131l68 67l154 -153v-93zM117 59l-68 67l133 133l-133 131l68 67l155 -153v-93z" />
    <glyph glyph-name="onequarter" unicode="&#xbc;" horiz-adv-x="905" 
d="M57 0l545 724h105l-545 -724h-105zM121 320v326h-51v78h67l70 -65v-339h-86zM829 99v-99h-86v99h-135l-71 65v239l86 1v-227q32 0 60 0.5t60 0.5q0 56 0.5 113t0.5 113h85v-226h37v-79h-37z" />
    <glyph glyph-name="onehalf" unicode="&#xbd;" horiz-adv-x="872" 
d="M121 320v326h-51v78h67l70 -65v-339h-86zM775 0h-241v154l87 81h125v90h-207v29l56 50h164l70 -65v-118l-70 -66h-141v-77h215v-28zM57 0l545 724h105l-545 -724h-105z" />
    <glyph glyph-name="threequarters" unicode="&#xbe;" horiz-adv-x="935" 
d="M109 0l545 724h105l-545 -724h-105zM855 99v-99h-86v99h-135l-71 65v239l86 1v-227q32 0 60 0.5t60 0.5q0 56 0.5 113t0.5 113h85v-226h37v-79h-37zM334 400l-88 -81h-149l-55 50v28h206v98h-91l-54 49v29h145v71h-206v29l55 50h149l88 -80v-83l-37 -33q9 -8 18.5 -16.5
t18.5 -16.5v-94z" />
    <glyph glyph-name="questiondown" unicode="&#xbf;" horiz-adv-x="502" 
d="M384 479v-128h-136v128h136zM263 308h35l87 -92v-179h-229v-162h327v-34l-86 -86h-250l-113 114v175l113 112h116v152z" />
    <glyph glyph-name="Agrave" unicode="&#xc0;" 
d="M216 724h154l159 -187v-451l-86 -86h-34v275h-233l-1 -275h-34l-87 86l-1 451zM293 627l-117 -133v-101h234v101zM245 773l-147 145h140l99 -145h-92z" />
    <glyph glyph-name="Aacute" unicode="&#xc1;" 
d="M216 724h154l159 -187v-451l-86 -86h-34v275h-233l-1 -275h-34l-87 86l-1 451zM293 627l-117 -133v-101h234v101zM348 773h-92l99 145h140z" />
    <glyph glyph-name="Acircumflex" unicode="&#xc2;" 
d="M216 724h154l159 -187v-451l-86 -86h-34v275h-233l-1 -275h-34l-87 86l-1 451zM293 627l-117 -133v-101h234v101zM361 773l-67 85l-68 -85h-100l118 170h100l118 -170h-101z" />
    <glyph glyph-name="Atilde" unicode="&#xc3;" 
d="M216 724h154l159 -187v-451l-86 -86h-34v275h-233l-1 -275h-34l-87 86l-1 451zM293 627l-117 -133v-101h234v101zM357 767l-140 55l-87 -41l-36 91l121 48l141 -55l87 41l37 -91z" />
    <glyph glyph-name="Adieresis" unicode="&#xc4;" 
d="M216 724h154l159 -187v-451l-86 -86h-34v275h-233l-1 -275h-34l-87 86l-1 451zM293 627l-117 -133v-101h234v101zM336 773v128h115v-128h-115zM137 773v128h115v-128h-115z" />
    <glyph glyph-name="Aring" unicode="&#xc5;" 
d="M216 724h154l159 -187v-451l-86 -86h-34v275h-233l-1 -275h-34l-87 86l-1 451zM293 627l-117 -133v-101h234v101zM227 775q-6 4 -14.5 14t-17.5 21.5t-17.5 21t-13.5 14.5v100l63 70h141l65 -70v-100l-65 -71h-141zM354 944h-111v-96h111v96z" />
    <glyph glyph-name="AE" unicode="&#xc6;" horiz-adv-x="883" 
d="M411 0v275h-230l-1 -275h-34l-87 86l-1 451l163 187h154l72 -75l77 75h293v-120h-283v-169h283v-119h-283v-196h283v-120h-406zM181 393h230v105l-113 129l-117 -133v-101z" />
    <glyph glyph-name="Ccedilla" unicode="&#xc7;" horiz-adv-x="593" 
d="M270 -170h-101v77h101v93h-98l-114 113v497l114 114h283l86 -86v-34h-360v-484h360v-34l-86 -86h-97v-93z" />
    <glyph glyph-name="Egrave" unicode="&#xc8;" horiz-adv-x="532" 
d="M61 0v610l113 114h293v-120h-283v-169h283v-119h-283v-196h283v-120h-406zM276 773l-147 145h140l99 -145h-92z" />
    <glyph glyph-name="Eacute" unicode="&#xc9;" horiz-adv-x="532" 
d="M61 0v610l113 114h293v-120h-283v-169h283v-119h-283v-196h283v-120h-406zM328 773h-92l99 145h140z" />
    <glyph glyph-name="Ecircumflex" unicode="&#xca;" horiz-adv-x="532" 
d="M61 0v610l113 114h293v-120h-283v-169h283v-119h-283v-196h283v-120h-406zM359 773l-67 85l-68 -85h-100l118 170h100l118 -170h-101z" />
    <glyph glyph-name="Edieresis" unicode="&#xcb;" horiz-adv-x="532" 
d="M61 0v610l113 114h293v-120h-283v-169h283v-119h-283v-196h283v-120h-406zM340 773v128h115v-128h-115zM141 773v128h115v-128h-115z" />
    <glyph glyph-name="Igrave" unicode="&#xcc;" horiz-adv-x="280" 
d="M80 0v724h120v-724h-120zM79 773l-147 145h140l99 -145h-92z" />
    <glyph glyph-name="Iacute" unicode="&#xcd;" horiz-adv-x="280" 
d="M80 0v724h120v-724h-120zM179 773h-92l99 145h140z" />
    <glyph glyph-name="Icircumflex" unicode="&#xce;" horiz-adv-x="280" 
d="M80 0v724h120v-724h-120zM201 773l-67 85l-68 -85h-100l118 170h100l118 -170h-101z" />
    <glyph glyph-name="Idieresis" unicode="&#xcf;" horiz-adv-x="280" 
d="M80 0v724h120v-724h-120zM184 773v128h115v-128h-115zM-15 773v128h115v-128h-115z" />
    <glyph glyph-name="Eth" unicode="&#xd0;" horiz-adv-x="635" 
d="M464 0h-363v319h-61v92h61v313h363l112 -114v-497zM224 319v-199h230v485h-230v-194h96v-92h-96z" />
    <glyph glyph-name="Ntilde" unicode="&#xd1;" horiz-adv-x="621" 
d="M446 0v272l-271 274l-1 -546h-119v724h111l280 -283v197l86 86h34v-724h-120zM362 766l-140 55l-87 -41l-36 91l121 48l141 -55l87 41l37 -91z" />
    <glyph glyph-name="Ograve" unicode="&#xd2;" horiz-adv-x="591" 
d="M421 0h-250l-113 113v497l113 114h250l112 -114v-497zM411 604h-230v-484h230v484zM259 773l-147 145h140l99 -145h-92z" />
    <glyph glyph-name="Oacute" unicode="&#xd3;" horiz-adv-x="591" 
d="M421 0h-250l-113 113v497l113 114h250l112 -114v-497zM411 604h-230v-484h230v484zM356 773h-92l99 145h140z" />
    <glyph glyph-name="Ocircumflex" unicode="&#xd4;" horiz-adv-x="591" 
d="M421 0h-250l-113 113v497l113 114h250l112 -114v-497zM411 604h-230v-484h230v484zM364 773l-67 85l-68 -85h-100l118 170h100l118 -170h-101z" />
    <glyph glyph-name="Otilde" unicode="&#xd5;" horiz-adv-x="591" 
d="M421 0h-250l-113 113v497l113 114h250l112 -114v-497zM411 604h-230v-484h230v484zM371 765l-140 55l-87 -41l-36 91l121 48l141 -55l87 41l37 -91z" />
    <glyph glyph-name="Odieresis" unicode="&#xd6;" horiz-adv-x="591" 
d="M421 0h-250l-113 113v497l113 114h250l112 -114v-497zM411 604h-230v-484h230v484zM347 773v128h115v-128h-115zM148 773v128h115v-128h-115z" />
    <glyph glyph-name="multiply" unicode="&#xd7;" horiz-adv-x="533" 
d="M266 181l-144 -144l-76 76l144 144l-144 144l76 76l144 -144l144 144l76 -76l-144 -144l144 -144l-76 -76z" />
    <glyph glyph-name="Oslash" unicode="&#xd8;" horiz-adv-x="667" 
d="M550 632l22 -22v-497l-112 -113h-250l-26 26l-16 -26h-107l56 93l-20 20v497l113 114h250l23 -24l15 24h107zM450 467l-210 -347h210v347zM220 263l206 342h-206v-342z" />
    <glyph glyph-name="Ugrave" unicode="&#xd9;" horiz-adv-x="595" 
d="M423 0h-250l-113 113v525l89 86h34v-604h230v604h35l87 -86v-525zM254 773l-147 145h140l99 -145h-92z" />
    <glyph glyph-name="Uacute" unicode="&#xda;" horiz-adv-x="595" 
d="M423 0h-250l-113 113v525l89 86h34v-604h230v604h35l87 -86v-525zM357 773h-92l99 145h140z" />
    <glyph glyph-name="Ucircumflex" unicode="&#xdb;" horiz-adv-x="595" 
d="M423 0h-250l-113 113v525l89 86h34v-604h230v604h35l87 -86v-525zM378 773l-67 85l-68 -85h-100l118 170h100l118 -170h-101z" />
    <glyph glyph-name="Udieresis" unicode="&#xdc;" horiz-adv-x="595" 
d="M423 0h-250l-113 113v525l89 86h34v-604h230v604h35l87 -86v-525zM344 773v128h115v-128h-115zM145 773v128h115v-128h-115z" />
    <glyph glyph-name="Yacute" unicode="&#xdd;" horiz-adv-x="532" 
d="M327 305v-305h-120v306l-180 206v212h123v-170l117 -132l116 132v170h121v-212zM324 773h-92l99 145h140z" />
    <glyph glyph-name="Thorn" unicode="&#xde;" horiz-adv-x="570" 
d="M424 156h-240v-156h-34l-90 92v520l91 112l32 1v-121h241l113 -113v-221zM414 484h-230v-209h230v209z" />
    <glyph glyph-name="germandbls" unicode="&#xdf;" horiz-adv-x="610" 
d="M448 0h-192v119h182v214q-60 0 -111 -0.5t-108 -0.5v-376h-124v376h-57v120h57v128l143 144h198l113 -113v-165l-63 -62l75 -73v-198zM426 604h-207v-152q54 0 102 -0.5t105 -0.5v153z" />
    <glyph glyph-name="agrave" unicode="&#xe0;" horiz-adv-x="561" 
d="M89 358v40l82 79h197l143 -143v-238l-102 -96h-269l-102 96v114l102 96h216l33 -35v87h-300zM389 191h-229v-78h229v78zM248 528l-147 145h140l99 -145h-92z" />
    <glyph glyph-name="aacute" unicode="&#xe1;" horiz-adv-x="561" 
d="M89 358v40l82 79h197l143 -143v-238l-102 -96h-269l-102 96v114l102 96h216l33 -35v87h-300zM389 191h-229v-78h229v78zM328 528h-92l99 145h140z" />
    <glyph glyph-name="acircumflex" unicode="&#xe2;" horiz-adv-x="561" 
d="M89 358v40l82 79h197l143 -143v-238l-102 -96h-269l-102 96v114l102 96h216l33 -35v87h-300zM389 191h-229v-78h229v78zM334 528l-67 85l-68 -85h-100l118 170h100l118 -170h-101z" />
    <glyph glyph-name="atilde" unicode="&#xe3;" horiz-adv-x="561" 
d="M89 358v40l82 79h197l143 -143v-238l-102 -96h-269l-102 96v114l102 96h216l33 -35v87h-300zM389 191h-229v-78h229v78zM340 527l-140 55l-87 -41l-36 91l121 48l141 -55l87 41l37 -91z" />
    <glyph glyph-name="adieresis" unicode="&#xe4;" horiz-adv-x="561" 
d="M89 358v40l82 79h197l143 -143v-238l-102 -96h-269l-102 96v114l102 96h216l33 -35v87h-300zM389 191h-229v-78h229v78zM334 522v128h115v-128h-115zM135 522v128h115v-128h-115z" />
    <glyph glyph-name="aring" unicode="&#xe5;" horiz-adv-x="561" 
d="M89 358v40l82 79h197l143 -143v-238l-102 -96h-269l-102 96v114l102 96h216l33 -35v87h-300zM389 191h-229v-78h229v78zM208 528q-6 4 -14.5 14t-17.5 21.5t-17.5 21t-13.5 14.5v100l63 70h141l65 -70v-100l-65 -71h-141zM335 697h-111v-96h111v96z" />
    <glyph glyph-name="ae" unicode="&#xe6;" horiz-adv-x="909" 
d="M753 173l-239 -1v-52h327v-34l-89 -86h-248l-52 51l-51 -51h-250l-113 113v79l113 113l193 1l46 -47v99h-301v34l86 86h196l80 -82l82 82h220l113 -113v-79zM390 185h-229v-65h229v65zM743 358h-229v-65h229v65z" />
    <glyph glyph-name="ccedilla" unicode="&#xe7;" horiz-adv-x="484" 
d="M217 -169h-101v77h101v92h-54l-113 113v252l113 114h200l86 -86v-35h-277v-238h277v-34l-86 -86h-58v-92z" />
    <glyph glyph-name="egrave" unicode="&#xe8;" horiz-adv-x="567" 
d="M411 173l-239 -1v-52h327v-34l-89 -86h-248l-113 113v222l142 143h220l113 -113v-79zM401 358h-229v-65h229v65zM246 528l-147 145h140l99 -145h-92z" />
    <glyph glyph-name="eacute" unicode="&#xe9;" horiz-adv-x="567" 
d="M411 173l-239 -1v-52h327v-34l-89 -86h-248l-113 113v222l142 143h220l113 -113v-79zM401 358h-229v-65h229v65zM337 528h-92l99 145h140z" />
    <glyph glyph-name="ecircumflex" unicode="&#xea;" horiz-adv-x="567" 
d="M411 173l-239 -1v-52h327v-34l-89 -86h-248l-113 113v222l142 143h220l113 -113v-79zM401 358h-229v-65h229v65zM344 528l-67 85l-68 -85h-100l118 170h100l118 -170h-101z" />
    <glyph glyph-name="edieresis" unicode="&#xeb;" horiz-adv-x="567" 
d="M411 173l-239 -1v-52h327v-34l-89 -86h-248l-113 113v222l142 143h220l113 -113v-79zM401 358h-229v-65h229v65zM323 522v128h115v-128h-115zM124 522v128h115v-128h-115z" />
    <glyph glyph-name="igrave" unicode="&#xec;" horiz-adv-x="221" 
d="M56 478h122v-386l-87 -92h-35v478zM85 528l-147 145h140l99 -145h-92z" />
    <glyph glyph-name="iacute" unicode="&#xed;" horiz-adv-x="221" 
d="M56 478h122v-386l-87 -92h-35v478zM154 528h-92l99 145h140z" />
    <glyph glyph-name="icircumflex" unicode="&#xee;" horiz-adv-x="221" 
d="M56 478h122v-386l-87 -92h-35v478zM190 526l-67 85l-68 -85h-100l118 170h100l118 -170h-101z" />
    <glyph glyph-name="idieresis" unicode="&#xef;" horiz-adv-x="221" 
d="M56 478h122v-386l-87 -92h-35v478zM149 522v128h115v-128h-115zM-50 522v128h115v-128h-115z" />
    <glyph glyph-name="eth" unicode="&#xf0;" horiz-adv-x="606" 
d="M380 388v234h-160v34l86 68h108l90 -94h93v-99h-93v-418l-114 -113h-249l-113 113v223l113 114h178zM151 120h229v209h-229v-209z" />
    <glyph glyph-name="ntilde" unicode="&#xf1;" horiz-adv-x="596" 
d="M538 92l-88 -92h-34v358h-231l-1 -358h-35l-87 92v386h123v-61l62 61h194l97 -96v-290zM366 517l-140 55l-87 -41l-36 91l121 48l141 -55l87 41l37 -91z" />
    <glyph glyph-name="ograve" unicode="&#xf2;" horiz-adv-x="582" 
d="M416 0h-250l-113 113v252l113 114h250l112 -114v-252zM406 358h-231v-238h231v238zM251 528l-147 145h140l99 -145h-92z" />
    <glyph glyph-name="oacute" unicode="&#xf3;" horiz-adv-x="582" 
d="M416 0h-250l-113 113v252l113 114h250l112 -114v-252zM406 358h-231v-238h231v238zM356 528h-92l99 145h140z" />
    <glyph glyph-name="ocircumflex" unicode="&#xf4;" horiz-adv-x="582" 
d="M416 0h-250l-113 113v252l113 114h250l112 -114v-252zM406 358h-231v-238h231v238zM344 528l-67 85l-68 -85h-100l118 170h100l118 -170h-101z" />
    <glyph glyph-name="otilde" unicode="&#xf5;" horiz-adv-x="582" 
d="M416 0h-250l-113 113v252l113 114h250l112 -114v-252zM406 358h-231v-238h231v238zM357 517l-140 55l-87 -41l-36 91l121 48l141 -55l87 41l37 -91z" />
    <glyph glyph-name="odieresis" unicode="&#xf6;" horiz-adv-x="582" 
d="M416 0h-250l-113 113v252l113 114h250l112 -114v-252zM406 358h-231v-238h231v238zM333 522v128h115v-128h-115zM134 522v128h115v-128h-115z" />
    <glyph glyph-name="divide" unicode="&#xf7;" horiz-adv-x="525" 
d="M6 203v108h514v-108h-514zM204 387v127h115v-127h-115zM204 0v127h115v-127h-115z" />
    <glyph glyph-name="oslash" unicode="&#xf8;" horiz-adv-x="653" 
d="M532 403l38 -38v-252l-112 -113h-250l-37 36l-35 -36h-98l84 85l-27 28v252l113 114h250l25 -26l27 27h98zM448 317l-195 -197h195v197zM217 181l175 179h-175v-179z" />
    <glyph glyph-name="ugrave" unicode="&#xf9;" horiz-adv-x="593" 
d="M527 0h-123v61l-62 -61h-148l-143 143v243l87 92h35v-359h231v267l88 92h35v-478zM271 528l-147 145h140l99 -145h-92z" />
    <glyph glyph-name="uacute" unicode="&#xfa;" horiz-adv-x="593" 
d="M527 0h-123v61l-62 -61h-148l-143 143v243l87 92h35v-359h231v267l88 92h35v-478zM354 528h-92l99 145h140z" />
    <glyph glyph-name="ucircumflex" unicode="&#xfb;" horiz-adv-x="593" 
d="M527 0h-123v61l-62 -61h-148l-143 143v243l87 92h35v-359h231v267l88 92h35v-478zM359 528l-67 85l-68 -85h-100l118 170h100l118 -170h-101z" />
    <glyph glyph-name="udieresis" unicode="&#xfc;" horiz-adv-x="593" 
d="M527 0h-123v61l-62 -61h-148l-143 143v243l87 92h35v-359h231v267l88 92h35v-478zM351 522v128h115v-128h-115zM152 522v128h115v-128h-115z" />
    <glyph glyph-name="yacute" unicode="&#xfd;" horiz-adv-x="581" 
d="M409 -200h-282v34l92 90h178v76h-255l-97 96v290l88 92h34v-359h232v359h35l87 -92v-472zM335 528h-92l99 145h140z" />
    <glyph glyph-name="thorn" unicode="&#xfe;" horiz-adv-x="568" 
d="M154 724h34v-309l61 62h179l112 -113l1 -221l-143 -143h-149l-61 62v-192l-90 -91h-34v853zM188 119h230v238h-230v-238z" />
    <glyph glyph-name="ydieresis" unicode="&#xff;" horiz-adv-x="581" 
d="M409 -200h-282v34l92 90h178v76h-255l-97 96v290l88 92h34v-359h232v359h35l87 -92v-472zM327 522v128h115v-128h-115zM128 522v128h115v-128h-115z" />
    <glyph glyph-name="Amacron" unicode="&#x100;" 
d="M216 724h154l159 -187v-451l-86 -86h-34v275h-233l-1 -275h-34l-87 86l-1 451zM293 627l-117 -133v-101h234v101zM119 773v84h349v-84h-349z" />
    <glyph glyph-name="amacron" unicode="&#x101;" horiz-adv-x="561" 
d="M89 358v40l82 79h197l143 -143v-238l-102 -96h-269l-102 96v114l102 96h216l33 -35v87h-300zM389 191h-229v-78h229v78zM101 528v92h349v-92h-349z" />
    <glyph glyph-name="Abreve" unicode="&#x102;" 
d="M216 724h154l159 -187v-451l-86 -86h-34v275h-233l-1 -275h-34l-87 86l-1 451zM293 627l-117 -133v-101h234v101zM342 773h-100l-98 105v45h112v-78h73v78h116v-45z" />
    <glyph glyph-name="abreve" unicode="&#x103;" horiz-adv-x="561" 
d="M89 358v40l82 79h197l143 -143v-238l-102 -96h-269l-102 96v114l102 96h216l33 -35v87h-300zM389 191h-229v-78h229v78zM320 528h-100l-98 105v45h112v-78h73v78h116v-45z" />
    <glyph glyph-name="Aogonek" unicode="&#x104;" 
d="M409 -93v368h-234v-275h-34l-87 86l-1 451l163 187h154l159 -187v-451l-33 -33v-146h102v-77h-101zM293 627l-117 -133v-101h234v101z" />
    <glyph glyph-name="aogonek" unicode="&#x105;" horiz-adv-x="561" 
d="M233 -93v93h-82l-113 113v79l113 113h193l46 -46v99h-301v34l86 86h196l142 -145v-220l-112 -113h-80v-93h101v-77h-101zM390 185h-229v-65h229v65z" />
    <glyph glyph-name="Cacute" unicode="&#x106;" horiz-adv-x="593" 
d="M455 0h-283l-114 113v497l114 114h283l86 -86v-34h-360v-484h360v-34zM319 773h-92l99 145h140z" />
    <glyph glyph-name="cacute" unicode="&#x107;" horiz-adv-x="484" 
d="M363 0h-200l-113 113v252l113 114h200l86 -86v-35h-277v-238h277v-34zM287 528h-92l99 145h140z" />
    <glyph glyph-name="Ccircumflex" unicode="&#x108;" horiz-adv-x="593" 
d="M455 0h-283l-114 113v497l114 114h283l86 -86v-34h-360v-484h360v-34zM364 773l-67 85l-68 -85h-100l118 170h100l118 -170h-101z" />
    <glyph glyph-name="ccircumflex" unicode="&#x109;" horiz-adv-x="484" 
d="M363 0h-200l-113 113v252l113 114h200l86 -86v-35h-277v-238h277v-34zM334 528l-67 85l-68 -85h-100l118 170h100l118 -170h-101z" />
    <glyph glyph-name="Cdotaccent" unicode="&#x10a;" horiz-adv-x="593" 
d="M455 0h-283l-114 113v497l114 114h283l86 -86v-34h-360v-484h360v-34zM258 775v128h115v-128h-115z" />
    <glyph glyph-name="cdotaccent" unicode="&#x10b;" horiz-adv-x="484" 
d="M363 0h-200l-113 113v252l113 114h200l86 -86v-35h-277v-238h277v-34zM205 528v128h115v-128h-115z" />
    <glyph glyph-name="Ccaron" unicode="&#x10c;" horiz-adv-x="593" 
d="M455 0h-283l-114 113v497l114 114h283l86 -86v-34h-360v-484h360v-34zM230 943l67 -85l68 85h100l-118 -170h-100l-118 170h101z" />
    <glyph glyph-name="ccaron" unicode="&#x10d;" horiz-adv-x="484" 
d="M363 0h-200l-113 113v252l113 114h200l86 -86v-35h-277v-238h277v-34zM184 698l67 -85l68 85h100l-118 -170h-100l-118 170h101z" />
    <glyph glyph-name="Dcaron" unicode="&#x10e;" horiz-adv-x="598" 
d="M428 0h-363v724h363l112 -114v-497zM418 605h-230v-485h230v485zM199 943l67 -85l68 85h100l-118 -170h-100l-118 170h101z" />
    <glyph glyph-name="dcaron" unicode="&#x10f;" horiz-adv-x="689" 
d="M680 616l-113 -114v244h113v-130zM418 0h-34v62l-61 -62h-179l-112 113l-1 221l143 145h149l61 -64v191l90 92h34v-606zM384 358h-230v-239h230v239z" />
    <glyph glyph-name="Dcroat" unicode="&#x110;" horiz-adv-x="637" 
d="M465 0h-363v319h-61v92h61v313h363l112 -114v-497zM225 319v-199h230v485h-230v-194h96v-92h-96z" />
    <glyph glyph-name="dcroat" unicode="&#x111;" horiz-adv-x="604" 
d="M404 0h-34v62l-61 -62h-179l-112 113l-1 181l143 143h149l61 -62v107h-136v86h136v38l90 92h34v-130h49l57 -54v-32h-106v-390zM370 318h-230v-198h230v198z" />
    <glyph glyph-name="Emacron" unicode="&#x112;" horiz-adv-x="532" 
d="M61 0v610l113 114h293v-120h-283v-169h283v-119h-283v-196h283v-120h-406zM120 773v84h349v-84h-349z" />
    <glyph glyph-name="emacron" unicode="&#x113;" horiz-adv-x="567" 
d="M411 173l-239 -1v-52h327v-34l-89 -86h-248l-113 113v222l142 143h220l113 -113v-79zM401 358h-229v-65h229v65zM93 528v92h349v-92h-349z" />
    <glyph glyph-name="Ebreve" unicode="&#x114;" horiz-adv-x="532" 
d="M61 0v610l113 114h293v-120h-283v-169h283v-119h-283v-196h283v-120h-406zM344 773h-100l-98 105v45h112v-78h73v78h116v-45z" />
    <glyph glyph-name="ebreve" unicode="&#x115;" horiz-adv-x="567" 
d="M411 173l-239 -1v-52h327v-34l-89 -86h-248l-113 113v222l142 143h220l113 -113v-79zM401 358h-229v-65h229v65zM342 528h-100l-98 105v45h112v-78h73v78h116v-45z" />
    <glyph glyph-name="Edotaccent" unicode="&#x116;" horiz-adv-x="532" 
d="M61 0v610l113 114h293v-120h-283v-169h283v-119h-283v-196h283v-120h-406zM255 776v128h115v-128h-115z" />
    <glyph glyph-name="edotaccent" unicode="&#x117;" horiz-adv-x="567" 
d="M411 173l-239 -1v-52h327v-34l-89 -86h-248l-113 113v222l142 143h220l113 -113v-79zM401 358h-229v-65h229v65zM231 528v128h115v-128h-115z" />
    <glyph glyph-name="Eogonek" unicode="&#x118;" horiz-adv-x="532" 
d="M278 0h-217v610l113 114h293v-120h-283v-169h283v-119h-283v-196h283v-120h-102l1 -93h101v-77h-101l-88 77v93z" />
    <glyph glyph-name="eogonek" unicode="&#x119;" horiz-adv-x="567" 
d="M247 0h-85l-113 113v222l142 143h220l113 -113v-79l-113 -113l-239 -1v-52h327v-34l-89 -86h-76l1 -93h101v-77h-101l-88 77v93zM401 358h-229v-65h229v65z" />
    <glyph glyph-name="Ecaron" unicode="&#x11a;" horiz-adv-x="532" 
d="M61 0v610l113 114h293v-120h-283v-169h283v-119h-283v-196h283v-120h-406zM228 943l67 -85l68 85h100l-118 -170h-100l-118 170h101z" />
    <glyph glyph-name="ecaron" unicode="&#x11b;" horiz-adv-x="567" 
d="M411 173l-239 -1v-52h327v-34l-89 -86h-248l-113 113v222l142 143h220l113 -113v-79zM401 358h-229v-65h229v65zM213 698l67 -85l68 85h100l-118 -170h-100l-118 170h101z" />
    <glyph glyph-name="Gcircumflex" unicode="&#x11c;" horiz-adv-x="588" 
d="M427 0h-255l-114 113v497l114 114h260l86 -86v-34h-337v-484h236v197h-105v118h115l112 -113v-209zM364 773l-67 85l-68 -85h-100l118 170h100l118 -170h-101z" />
    <glyph glyph-name="gcircumflex" unicode="&#x11d;" horiz-adv-x="574" 
d="M516 -86l-113 -114h-281v34l91 90h179v138l-61 -62h-179l-112 112l-1 222l143 143h220l114 -113v-450zM392 357h-230v-238h230v238zM344 528l-67 85l-68 -85h-100l118 170h100l118 -170h-101z" />
    <glyph glyph-name="Gbreve" unicode="&#x11e;" horiz-adv-x="588" 
d="M427 0h-255l-114 113v497l114 114h260l86 -86v-34h-337v-484h236v197h-105v118h115l112 -113v-209zM336 773h-100l-98 105v45h112v-78h73v78h116v-45z" />
    <glyph glyph-name="gbreve" unicode="&#x11f;" horiz-adv-x="574" 
d="M516 -86l-113 -114h-281v34l91 90h179v138l-61 -62h-179l-112 112l-1 222l143 143h220l114 -113v-450zM392 357h-230v-238h230v238zM322 528h-100l-98 105v45h112v-78h73v78h116v-45z" />
    <glyph glyph-name="Gdotaccent" unicode="&#x120;" horiz-adv-x="588" 
d="M427 0h-255l-114 113v497l114 114h260l86 -86v-34h-337v-484h236v197h-105v118h115l112 -113v-209zM246 775v128h115v-128h-115z" />
    <glyph glyph-name="gdotaccent" unicode="&#x121;" horiz-adv-x="574" 
d="M516 -86l-113 -114h-281v34l91 90h179v138l-61 -62h-179l-112 112l-1 222l143 143h220l114 -113v-450zM392 357h-230v-238h230v238zM229 528v128h115v-128h-115z" />
    <glyph glyph-name="Gcommaaccent" unicode="&#x122;" horiz-adv-x="588" 
d="M427 0h-255l-114 113v497l114 114h260l86 -86v-34h-337v-484h236v197h-105v118h115l112 -113v-209zM347 -166l-113 -114v244h113v-130z" />
    <glyph glyph-name="gcommaaccent" unicode="&#x123;" horiz-adv-x="574" 
d="M235 658l113 134v-264h-113v130zM516 -86l-113 -114h-281v34l91 90h179v138l-61 -62h-179l-112 112l-1 222l143 143h220l114 -113v-450zM392 357h-230v-238h230v238z" />
    <glyph glyph-name="Hcircumflex" unicode="&#x124;" 
d="M137 0l-86 86v552l86 86h34v-289h240v289h34l86 -86v-552l-86 -86h-34v317h-240v-317h-34zM360 773l-67 85l-68 -85h-100l118 170h100l118 -170h-101z" />
    <glyph glyph-name="hcircumflex" unicode="&#x125;" horiz-adv-x="598" 
d="M540 92l-88 -92h-34v358h-231v-358h-35l-88 90v608h35l88 -92v-189l63 62h193l97 -97v-290zM191 718l-67 85l-68 -85h-100l118 170h100l118 -170h-101z" />
    <glyph glyph-name="Hbar" unicode="&#x126;" 
d="M3 587h48v51l86 86h34v-137h240v137h34l86 -86v-51h52v-75h-52v-426l-86 -86h-34v317h-240v-317h-34l-86 86v426h-48v75zM411 435v77h-240v-77h240z" />
    <glyph glyph-name="hbar" unicode="&#x127;" horiz-adv-x="556" 
d="M8 497v82h73v46l73 71h34v-117h155l61 -60v-22h-217v-144l58 61h197l97 -92v-249l-75 -73h-29v315h-248v-315h-28l-77 72v425h-74z" />
    <glyph glyph-name="Itilde" unicode="&#x128;" horiz-adv-x="280" 
d="M80 0v724h120v-724h-120zM200 764l-140 55l-87 -41l-36 91l121 48l141 -55l87 41l37 -91z" />
    <glyph glyph-name="itilde" unicode="&#x129;" horiz-adv-x="321" 
d="M98 478h122v-386l-87 -92h-35v478zM237 517l-140 55l-87 -41l-36 91l121 48l141 -55l87 41l37 -91z" />
    <glyph glyph-name="Imacron" unicode="&#x12a;" horiz-adv-x="280" 
d="M80 0v724h120v-724h-120zM-35 773v84h349v-84h-349z" />
    <glyph glyph-name="imacron" unicode="&#x12b;" horiz-adv-x="314" 
d="M103 478h122v-386l-87 -92h-35v478zM-19 528v92h349v-92h-349z" />
    <glyph glyph-name="Ibreve" unicode="&#x12c;" horiz-adv-x="248" 
d="M154 773h-100l-98 105v45h112v-78h73v78h116v-45zM55 0v724h120v-724h-120z" />
    <glyph glyph-name="ibreve" unicode="&#x12d;" horiz-adv-x="245" 
d="M56 478h122v-386l-87 -92h-35v478zM162 534h-100l-98 105v45h112v-78h73v78h116v-45z" />
    <glyph glyph-name="Iogonek" unicode="&#x12e;" horiz-adv-x="262" 
d="M64 -93v817h120v-724h-32v-93h101v-77h-101z" />
    <glyph glyph-name="iogonek" unicode="&#x12f;" horiz-adv-x="256" 
d="M66 -93l-1 571h122v-386l-34 -36v-149h102v-77h-101zM65 564v125h121v-125h-121z" />
    <glyph glyph-name="Idotaccent" unicode="&#x130;" horiz-adv-x="280" 
d="M80 0v724h120v-724h-120zM83 776v128h115v-128h-115z" />
    <glyph glyph-name="dotlessi" unicode="&#x131;" horiz-adv-x="245" 
d="M66 478h122v-386l-87 -92h-35v478z" />
    <glyph glyph-name="IJ" unicode="&#x132;" horiz-adv-x="796" 
d="M80 0v724h120v-724h-120zM604 0h-249l-114 113v97h123v-90h230v516l89 88h34v-611z" />
    <glyph glyph-name="ij" unicode="&#x133;" horiz-adv-x="472" 
d="M70 564v125h121v-125h-121zM70 478h122v-386l-87 -92h-35v478zM273 564v125h120v-125h-120zM251 -198h-101v120h122v556h122v-533z" />
    <glyph glyph-name="Jcircumflex" unicode="&#x134;" horiz-adv-x="570" 
d="M377 1h-249l-114 113v97h123v-90h230v516l89 88h34v-611zM500 775l-67 85l-68 -85h-100l118 170h100l118 -170h-101z" />
    <glyph glyph-name="jcircumflex" unicode="&#x135;" horiz-adv-x="302" 
d="M106 -198h-101v120h122v556h122v-533zM246 528l-67 85l-68 -85h-100l118 170h100l118 -170h-101z" />
    <glyph glyph-name="Kcommaaccent" unicode="&#x136;" horiz-adv-x="589" 
d="M531 92l-87 -92h-35v317h-222v-317h-122v724h122v-251l209 251h134v-35l-211 -253h116l97 -96zM346 -146l-113 -114v244h113v-130z" />
    <glyph glyph-name="kcommaaccent" unicode="&#x137;" horiz-adv-x="494" 
d="M454 92l-88 -92h-34v206h-144v-206h-122v688h122v-334l134 124h126v-35l-139 -124h48l97 -96v-131zM321 -166l-113 -114v244h113v-130z" />
    <glyph glyph-name="kgreenlandic" unicode="&#x138;" horiz-adv-x="509" 
d="M454 92l-88 -92h-34v221h-144v-221h-122v478h122v-124l134 124h126v-35l-139 -124h48l97 -96v-131z" />
    <glyph glyph-name="Lacute" unicode="&#x139;" horiz-adv-x="498" 
d="M171 0l-112 113v523l88 88h34v-604h316v-120h-326zM197 773h-92l99 145h140z" />
    <glyph glyph-name="lacute" unicode="&#x13a;" horiz-adv-x="303" 
d="M203 0l-143 143v545h122v-568h103v-120h-82zM158 773h-92l99 145h140z" />
    <glyph glyph-name="Lcommaaccent" unicode="&#x13b;" horiz-adv-x="498" 
d="M171 0l-112 113v523l88 88h34v-604h316v-120h-326zM359 -166l-113 -114v244h113v-130z" />
    <glyph glyph-name="lcommaaccent" unicode="&#x13c;" horiz-adv-x="303" 
d="M203 0l-143 143v545h122v-568h103v-120h-82zM208 -164l-113 -114v244h113v-130z" />
    <glyph glyph-name="Lcaron" unicode="&#x13d;" horiz-adv-x="498" 
d="M171 0l-112 113v523l88 88h34v-604h316v-120h-326zM438 586l-113 -114v244h113v-130z" />
    <glyph glyph-name="lcaron" unicode="&#x13e;" horiz-adv-x="354" 
d="M348 615l-113 -114v244h113v-130zM184 0l-143 143v545h122v-568h103v-120h-82z" />
    <glyph glyph-name="Ldot" unicode="&#x13f;" horiz-adv-x="498" 
d="M171 0l-112 113v523l88 88h34v-604h316v-120h-326zM303 430v128h115v-128h-115z" />
    <glyph glyph-name="ldot" unicode="&#x140;" horiz-adv-x="351" 
d="M241 411v128h115v-128h-115zM184 0l-143 143v545h122v-568h103v-120h-82z" />
    <glyph glyph-name="Lslash" unicode="&#x141;" horiz-adv-x="566" 
d="M359 521v-103l-117 -78v-220h316v-120h-326l-112 113v145l-92 -61v103l92 61v275l88 88h34v-281z" />
    <glyph glyph-name="lslash" unicode="&#x142;" horiz-adv-x="360" 
d="M320 525v-103l-100 -65v-237h103v-120h-82l-143 143v136l-89 -57v103l89 57v306h122v-228z" />
    <glyph glyph-name="Nacute" unicode="&#x143;" horiz-adv-x="621" 
d="M446 0v272l-271 274l-1 -546h-119v724h111l280 -283v197l86 86h34v-724h-120zM369 773h-92l99 145h140z" />
    <glyph glyph-name="nacute" unicode="&#x144;" horiz-adv-x="596" 
d="M538 92l-88 -92h-34v358h-231l-1 -358h-35l-87 92v386h123v-61l62 61h194l97 -96v-290zM327 528h-92l99 145h140z" />
    <glyph glyph-name="Ncommaaccent" unicode="&#x145;" horiz-adv-x="621" 
d="M446 0v272l-271 274l-1 -546h-119v724h111l280 -283v197l86 86h34v-724h-120zM352 -146l-113 -114v244h113v-130z" />
    <glyph glyph-name="ncommaaccent" unicode="&#x146;" horiz-adv-x="596" 
d="M538 92l-88 -92h-34v358h-231l-1 -358h-35l-87 92v386h123v-61l62 61h194l97 -96v-290zM359 -166l-113 -114v244h113v-130z" />
    <glyph glyph-name="Ncaron" unicode="&#x147;" horiz-adv-x="621" 
d="M446 0v272l-271 274l-1 -546h-119v724h111l280 -283v197l86 86h34v-724h-120zM241 943l67 -85l68 85h100l-118 -170h-100l-118 170h101z" />
    <glyph glyph-name="ncaron" unicode="&#x148;" horiz-adv-x="596" 
d="M538 92l-88 -92h-34v358h-231l-1 -358h-35l-87 92v386h123v-61l62 61h194l97 -96v-290zM253 698l67 -85l68 85h100l-118 -170h-100l-118 170h101z" />
    <glyph glyph-name="napostrophe" unicode="&#x149;" horiz-adv-x="695" 
d="M637 92l-88 -92h-34v358h-231l-1 -358h-35l-87 92v386h123v-61l62 61h194l97 -96v-290zM121 471l-113 -114v244h113v-130z" />
    <glyph glyph-name="Eng" unicode="&#x14a;" horiz-adv-x="621" 
d="M566 -96l-105 -93h-137v103h123l-1 338l-271 294l-1 -546h-119v724h111l280 -303v217l86 86h34v-820z" />
    <glyph glyph-name="eng" unicode="&#x14b;" horiz-adv-x="596" 
d="M538 -96l-105 -93h-137v103h120v444h-231l-1 -358h-35l-87 92v386h123v-61l62 61h194l97 -96v-478z" />
    <glyph glyph-name="Omacron" unicode="&#x14c;" horiz-adv-x="591" 
d="M421 0h-250l-113 113v497l113 114h250l112 -114v-497zM411 604h-230v-484h230v484zM125 773v84h349v-84h-349z" />
    <glyph glyph-name="omacron" unicode="&#x14d;" horiz-adv-x="582" 
d="M416 0h-250l-113 113v252l113 114h250l112 -114v-252zM406 358h-231v-238h231v238zM120 528v92h349v-92h-349z" />
    <glyph glyph-name="Obreve" unicode="&#x14e;" horiz-adv-x="591" 
d="M421 0h-250l-113 113v497l113 114h250l112 -114v-497zM411 604h-230v-484h230v484zM349 773h-100l-98 105v45h112v-78h73v78h116v-45z" />
    <glyph glyph-name="obreve" unicode="&#x14f;" horiz-adv-x="582" 
d="M416 0h-250l-113 113v252l113 114h250l112 -114v-252zM406 358h-231v-238h231v238zM348 528h-100l-98 105v45h112v-78h73v78h116v-45z" />
    <glyph glyph-name="Ohungarumlaut" unicode="&#x150;" horiz-adv-x="591" 
d="M421 0h-250l-113 113v497l113 114h250l112 -114v-497zM411 604h-230v-484h230v484zM245 773h-92l99 145h140zM450 773h-92l99 145h140z" />
    <glyph glyph-name="ohungarumlaut" unicode="&#x151;" horiz-adv-x="582" 
d="M416 0h-250l-113 113v252l113 114h250l112 -114v-252zM406 358h-231v-238h231v238zM237 528h-92l99 145h140zM442 528h-92l99 145h140z" />
    <glyph glyph-name="OE" unicode="&#x152;" horiz-adv-x="882" 
d="M171 0l-113 113v497l113 114h250l51 -52l52 52h293v-120h-283v-169h283v-119h-283v-196h283v-120h-646zM411 604h-230v-484h230v484z" />
    <glyph glyph-name="oe" unicode="&#x153;" horiz-adv-x="935" 
d="M406 360h-231v-240h231v240zM768 172h-239v-52h328v-34l-90 -86h-248l-52 52l-51 -52h-250l-113 113v252l113 114h250l66 -68l67 67h219l113 -113v-79zM758 358h-229v-65h229v65z" />
    <glyph glyph-name="Racute" unicode="&#x154;" horiz-adv-x="599" 
d="M416 604h-230v-209h230v209zM540 0h-124v128l-110 148h-120v-276h-124v611l113 113h251l113 -113v-221l-94 -94l95 -128v-168zM319 773h-92l99 145h140z" />
    <glyph glyph-name="racute" unicode="&#x155;" horiz-adv-x="399" 
d="M148 0l-88 92v243l143 143h112v-120h-133v-358h-34zM302 528h-92l99 145h140z" />
    <glyph glyph-name="Rcommaaccent" unicode="&#x156;" horiz-adv-x="599" 
d="M416 604h-230v-209h230v209zM540 0h-124v128l-110 148h-120v-276h-124v611l113 113h251l113 -113v-221l-94 -94l95 -128v-168zM362 -146l-113 -114v244h113v-130z" />
    <glyph glyph-name="rcommaaccent" unicode="&#x157;" horiz-adv-x="325" 
d="M148 0l-88 92v243l143 143h112v-120h-133v-358h-34zM191 -166l-113 -114v244h113v-130z" />
    <glyph glyph-name="Rcaron" unicode="&#x158;" horiz-adv-x="599" 
d="M416 604h-230v-209h230v209zM540 0h-124v128l-110 148h-120v-276h-124v611l113 113h251l113 -113v-221l-94 -94l95 -128v-168zM245 943l67 -85l68 85h100l-118 -170h-100l-118 170h101z" />
    <glyph glyph-name="rcaron" unicode="&#x159;" horiz-adv-x="325" 
d="M148 0l-88 92v243l143 143h112v-120h-133v-358h-34zM175 698l67 -85l68 85h100l-118 -170h-100l-118 170h101z" />
    <glyph glyph-name="Sacute" unicode="&#x15a;" horiz-adv-x="576" 
d="M416 0h-269l-89 86v34h351v193h-246l-113 113v185l113 113h251l90 -86v-34h-335v-169h247l112 -112v-210zM326 773h-92l99 145h140z" />
    <glyph glyph-name="sacute" unicode="&#x15b;" horiz-adv-x="563" 
d="M53 86v34h351v65h-246l-113 113v67l113 113h251l90 -86v-34h-335v-51h247l112 -112v-52l-141 -143h-240zM327 528h-92l99 145h140z" />
    <glyph glyph-name="Scircumflex" unicode="&#x15c;" horiz-adv-x="576" 
d="M416 0h-269l-89 86v34h351v193h-246l-113 113v185l113 113h251l90 -86v-34h-335v-169h247l112 -112v-210zM353 773l-67 85l-68 -85h-100l118 170h100l118 -170h-101z" />
    <glyph glyph-name="scircumflex" unicode="&#x15d;" horiz-adv-x="563" 
d="M53 86v34h351v65h-246l-113 113v67l113 113h251l90 -86v-34h-335v-51h247l112 -112v-52l-141 -143h-240zM329 528l-67 85l-68 -85h-100l118 170h100l118 -170h-101z" />
    <glyph glyph-name="Scedilla" unicode="&#x15e;" horiz-adv-x="576" 
d="M250 -168h-101v77h101v91h-103l-89 86v34h351v193h-246l-113 113v185l113 113h251l90 -86v-34h-335v-169h247l112 -112v-210l-112 -113h-78v-91z" />
    <glyph glyph-name="scedilla" unicode="&#x15f;" horiz-adv-x="563" 
d="M53 86v34h351v65h-246l-113 113v67l113 113h251l90 -86v-34h-335v-51h247l112 -112v-52l-141 -143h-47v-58l-88 -77h-101v77h101v58h-105z" />
    <glyph glyph-name="Scaron" unicode="&#x160;" horiz-adv-x="576" 
d="M416 0h-269l-89 86v34h351v193h-246l-113 113v185l113 113h251l90 -86v-34h-335v-169h247l112 -112v-210zM222 943l67 -85l68 85h100l-118 -170h-100l-118 170h101z" />
    <glyph glyph-name="scaron" unicode="&#x161;" horiz-adv-x="563" 
d="M53 86v34h351v65h-246l-113 113v67l113 113h251l90 -86v-34h-335v-51h247l112 -112v-52l-141 -143h-240zM211 698l67 -85l68 85h100l-118 -170h-100l-118 170h101z" />
    <glyph glyph-name="Tcommaaccent" unicode="&#x162;" horiz-adv-x="597" 
d="M356 604v-604h-119v604h-219v34l90 86h382l89 -86v-34h-223zM353 -166l-113 -114v244h113v-130z" />
    <glyph glyph-name="tcommaaccent" unicode="&#x163;" horiz-adv-x="327" 
d="M101 0h-35v601h122v-123h148v-34l-87 -86h-61v-266zM175 -166l-113 -114v244h113v-130z" />
    <glyph glyph-name="Tcaron" unicode="&#x164;" horiz-adv-x="597" 
d="M356 604v-604h-119v604h-219v34l90 86h382l89 -86v-34h-223zM229 943l67 -85l68 85h100l-118 -170h-100l-118 170h101z" />
    <glyph glyph-name="tcaron" unicode="&#x165;" horiz-adv-x="483" 
d="M477 543l-113 -114v244h113v-130zM91 0h-35v601h122v-123h148v-34l-87 -86h-61v-266z" />
    <glyph glyph-name="Tbar" unicode="&#x166;" horiz-adv-x="597" 
d="M356 616v-207h194v-88h-194v-309h-119v309h-189v88h189v207h-219v34l90 86h382l89 -86v-34h-223z" />
    <glyph glyph-name="tbar" unicode="&#x167;" horiz-adv-x="346" 
d="M4 311h69v292h122v-125h148v-35l-86 -85h-62v-47h103v-90h-103v-129l-86 -92h-36v221h-69v90z" />
    <glyph glyph-name="Utilde" unicode="&#x168;" horiz-adv-x="595" 
d="M423 0h-250l-113 113v525l89 86h34v-604h230v604h35l87 -86v-525zM371 762l-140 55l-87 -41l-36 91l121 48l141 -55l87 41l37 -91z" />
    <glyph glyph-name="utilde" unicode="&#x169;" horiz-adv-x="593" 
d="M527 0h-123v61l-62 -61h-148l-143 143v243l87 92h35v-359h231v267l88 92h35v-478zM363 516l-140 55l-87 -41l-36 91l121 48l141 -55l87 41l37 -91z" />
    <glyph glyph-name="Umacron" unicode="&#x16a;" horiz-adv-x="595" 
d="M423 0h-250l-113 113v525l89 86h34v-604h230v604h35l87 -86v-525zM132 773v84h349v-84h-349z" />
    <glyph glyph-name="umacron" unicode="&#x16b;" horiz-adv-x="593" 
d="M527 0h-123v61l-62 -61h-148l-143 143v243l87 92h35v-359h231v267l88 92h35v-478zM118 528v92h349v-92h-349z" />
    <glyph glyph-name="Ubreve" unicode="&#x16c;" horiz-adv-x="595" 
d="M423 0h-250l-113 113v525l89 86h34v-604h230v604h35l87 -86v-525zM347 774h-100l-98 105v45h112v-78h73v78h116v-45z" />
    <glyph glyph-name="ubreve" unicode="&#x16d;" horiz-adv-x="593" 
d="M527 0h-123v61l-62 -61h-148l-143 143v243l87 92h35v-359h231v267l88 92h35v-478zM339 528h-100l-98 105v45h112v-78h73v78h116v-45z" />
    <glyph glyph-name="Uring" unicode="&#x16e;" horiz-adv-x="595" 
d="M423 0h-250l-113 113v525l89 86h34v-604h230v604h35l87 -86v-525zM222 738q-6 4 -14.5 14t-17.5 21.5t-17.5 21t-13.5 14.5v100l63 70h141l65 -70v-100l-65 -71h-141zM349 907h-111v-96h111v96z" />
    <glyph glyph-name="uring" unicode="&#x16f;" horiz-adv-x="593" 
d="M527 0h-123v61l-62 -61h-148l-143 143v243l87 92h35v-359h231v267l88 92h35v-478zM230 504q-6 4 -14.5 14t-17.5 21.5t-17.5 21t-13.5 14.5v100l63 70h141l65 -70v-100l-65 -71h-141zM357 673h-111v-96h111v96z" />
    <glyph glyph-name="Uhungarumlaut" unicode="&#x170;" horiz-adv-x="595" 
d="M423 0h-250l-113 113v525l89 86h34v-604h230v604h35l87 -86v-525zM235 773h-92l99 145h140zM440 773h-92l99 145h140z" />
    <glyph glyph-name="uhungarumlaut" unicode="&#x171;" horiz-adv-x="593" 
d="M527 0h-123v61l-62 -61h-148l-143 143v243l87 92h35v-359h231v267l88 92h35v-478zM228 528h-92l99 145h140zM433 528h-92l99 145h140z" />
    <glyph glyph-name="Uogonek" unicode="&#x172;" horiz-adv-x="595" 
d="M257 0h-84l-113 113v525l89 86h34v-604h230v604h35l87 -86v-525l-112 -113h-79l1 -93h101v-77h-101l-88 77v93z" />
    <glyph glyph-name="uogonek" unicode="&#x173;" horiz-adv-x="593" 
d="M229 0h-35l-143 143v243l87 92h35v-359h231v267l88 92h35v-478h-123v61l-62 -61h-26l1 -93h101v-77h-101l-88 77v93z" />
    <glyph glyph-name="Wcircumflex" unicode="&#x174;" horiz-adv-x="867" 
d="M708 0h-219v113l-113 -113h-201l-114 113v519l87 92h35v-605h183v480h123v-480h194v605h35l87 -92v-535zM490 773l-67 85l-68 -85h-100l118 170h100l118 -170h-101z" />
    <glyph glyph-name="wcircumflex" unicode="&#x175;" horiz-adv-x="752" 
d="M595 1l-159 -1v113l-113 -113h-151l-114 113v274l87 92h36v-360h132v225h123v-225h134v360h35l87 -92v-290zM442 527l-67 85l-68 -85h-100l118 170h100l118 -170h-101z" />
    <glyph glyph-name="Ycircumflex" unicode="&#x176;" horiz-adv-x="532" 
d="M327 305v-305h-120v306l-180 206v212h123v-170l117 -132l116 132v170h121v-212zM345 773l-67 85l-68 -85h-100l118 170h100l118 -170h-101z" />
    <glyph glyph-name="ycircumflex" unicode="&#x177;" horiz-adv-x="581" 
d="M409 -200h-282v34l92 90h178v76h-255l-97 96v290l88 92h34v-359h232v359h35l87 -92v-472zM333 527l-67 85l-68 -85h-100l118 170h100l118 -170h-101z" />
    <glyph glyph-name="Ydieresis" unicode="&#x178;" horiz-adv-x="532" 
d="M327 305v-305h-120v306l-180 206v212h123v-170l117 -132l116 132v170h121v-212zM310 773v128h115v-128h-115zM111 773v128h115v-128h-115z" />
    <glyph glyph-name="Zacute" unicode="&#x179;" horiz-adv-x="615" 
d="M62 245l365 307v51h-345v121h466v-226l-365 -308v-70h366v-120h-487v245zM321 773h-92l99 145h140z" />
    <glyph glyph-name="zacute" unicode="&#x17a;" horiz-adv-x="572" 
d="M64 140l262 218h-252v121h425v-133l-269 -227h278v-119h-444v140zM322 528h-92l99 145h140z" />
    <glyph glyph-name="Zdotaccent" unicode="&#x17b;" horiz-adv-x="615" 
d="M62 245l365 307v51h-345v121h466v-226l-365 -308v-70h366v-120h-487v245zM243 776v128h115v-128h-115z" />
    <glyph glyph-name="zdotaccent" unicode="&#x17c;" horiz-adv-x="572" 
d="M64 140l262 218h-252v121h425v-133l-269 -227h278v-119h-444v140zM238 528v128h115v-128h-115z" />
    <glyph glyph-name="Zcaron" unicode="&#x17d;" horiz-adv-x="615" 
d="M62 245l365 307v51h-345v121h466v-226l-365 -308v-70h366v-120h-487v245zM247 943l67 -85l68 85h100l-118 -170h-100l-118 170h101z" />
    <glyph glyph-name="zcaron" unicode="&#x17e;" horiz-adv-x="572" 
d="M64 140l262 218h-252v121h425v-133l-269 -227h278v-119h-444v140zM229 698l67 -85l68 85h100l-118 -170h-100l-118 170h101z" />
    <glyph glyph-name="florin" unicode="&#x192;" horiz-adv-x="430" 
d="M153 545l143 143h121v-121h-142v-89h142v-34l-87 -85h-55v-426l-143 -143h-121v121h142v634z" />
    <glyph glyph-name="Ohorn" unicode="&#x1a0;" horiz-adv-x="663" 
d="M421 5h-250l-113 113v497l113 114h250l112 -114h49v119h85v-133l-90 -80h-44v-403zM411 609h-230v-484h230v484z" />
    <glyph glyph-name="ohorn" unicode="&#x1a1;" horiz-adv-x="670" 
d="M416 0h-250l-113 113v252l113 114h250l112 -114v-1h63v131h78v-143l-82 -74h-59v-165zM406 358h-231v-238h231v238z" />
    <glyph glyph-name="Uhorn" unicode="&#x1af;" horiz-adv-x="687" 
d="M423 0h-250l-113 113v525l89 86h34v-604h230v604h35l87 -86h67v109h85v-123l-90 -80h-62v-431z" />
    <glyph glyph-name="uhorn" unicode="&#x1b0;" horiz-adv-x="668" 
d="M527 377h64v121h78v-133l-82 -74h-60v-291h-123v61l-62 -61h-148l-143 143v243l87 92h35v-359h231v267l88 92h35v-101z" />
    <glyph glyph-name="AEacute" unicode="&#x1fc;" horiz-adv-x="883" 
d="M401 0v275h-230l-1 -275h-34l-87 86l-1 451l163 187h154l72 -75l77 75h293v-120h-283v-169h283v-119h-283v-196h283v-120h-406zM171 393h230v105l-113 129l-117 -133v-101zM485 796h-92l99 145h140z" />
    <glyph glyph-name="aeacute" unicode="&#x1fd;" horiz-adv-x="909" 
d="M743 173l-239 -1v-52h327v-34l-89 -86h-248l-52 51l-51 -51h-250l-113 113v79l113 113l193 1l46 -47v99h-301v34l86 86h196l80 -82l82 82h220l113 -113v-79zM380 185h-229v-65h229v65zM733 358h-229v-65h229v65zM477 528h-92l99 145h140z" />
    <glyph glyph-name="Oslashacute" unicode="&#x1fe;" horiz-adv-x="667" 
d="M362 776h-92l99 145h140zM540 632l22 -22v-497l-112 -113h-250l-26 26l-16 -26h-107l56 93l-20 20v497l113 114h250l23 -24l15 24h107zM440 467l-210 -347h210v347zM210 263l206 342h-206v-342z" />
    <glyph glyph-name="oslashacute" unicode="&#x1ff;" horiz-adv-x="653" 
d="M371 528h-92l99 145h140zM522 403l38 -38v-252l-112 -113h-250l-37 36l-35 -36h-98l84 85l-27 28v252l113 114h250l25 -26l27 27h98zM438 317l-195 -197h195v197zM207 181l175 179h-175v-179z" />
    <glyph glyph-name="Scommaaccent" unicode="&#x218;" horiz-adv-x="576" 
d="M416 0h-269l-89 86v34h351v193h-246l-113 113v185l113 113h251l90 -86v-34h-335v-169h247l112 -112v-210zM336 -166l-113 -114v244h113v-130z" />
    <glyph glyph-name="scommaaccent" unicode="&#x219;" horiz-adv-x="563" 
d="M53 86v34h351v65h-246l-113 113v67l113 113h251l90 -86v-34h-335v-51h247l112 -112v-52l-141 -143h-240zM320 -166l-113 -114v244h113v-130z" />
    <glyph glyph-name="schwa" unicode="&#x259;" horiz-adv-x="585" 
d="M165 305l239 1v52h-327v34l89 86h248l113 -113v-222l-142 -143h-220l-113 113v79zM175 120h229v65h-229v-65z" />
    <glyph glyph-name="primemod" unicode="&#x2b9;" horiz-adv-x="122" 
d="M269 673l-184 -308h-87l140 308h131z" />
    <glyph glyph-name="circumflex" unicode="&#x2c6;" horiz-adv-x="561" 
d="M339 528l-67 85l-68 -85h-100l118 170h100l118 -170h-101z" />
    <glyph glyph-name="caron" unicode="&#x2c7;" horiz-adv-x="561" 
d="M209 698l67 -85l68 85h100l-118 -170h-100l-118 170h101z" />
    <glyph glyph-name="breve" unicode="&#x2d8;" horiz-adv-x="561" 
d="M322 528h-100l-98 105v45h112v-78h73v78h116v-45z" />
    <glyph glyph-name="dotaccent" unicode="&#x2d9;" horiz-adv-x="561" 
d="M214 528v128h115v-128h-115z" />
    <glyph glyph-name="ring" unicode="&#x2da;" horiz-adv-x="561" 
d="M204 528q-6 4 -14.5 14t-17.5 21.5t-17.5 21t-13.5 14.5v100l63 70h141l65 -70v-100l-65 -71h-141zM331 697h-111v-96h111v96z" />
    <glyph glyph-name="ogonek" unicode="&#x2db;" horiz-adv-x="561" 
d="M229 67h87l1 -160h101v-77h-101l-88 77v160z" />
    <glyph glyph-name="tilde" unicode="&#x2dc;" horiz-adv-x="561" 
d="M342 527l-140 55l-87 -41l-36 91l121 48l141 -55l87 41l37 -91z" />
    <glyph glyph-name="hungarumlaut" unicode="&#x2dd;" horiz-adv-x="561" 
d="M203 528h-92l99 145h140zM408 528h-92l99 145h140z" />
    <glyph glyph-name="tonos" unicode="&#x384;" horiz-adv-x="561" 
d="M299 528h-92l99 145h140z" />
    <glyph glyph-name="dieresistonos" unicode="&#x385;" horiz-adv-x="561" 
d="M389 534v128h115v-128h-115zM63 534v128h116v-128h-116zM274 528h-92l69 145h140z" />
    <glyph glyph-name="Alphatonos" unicode="&#x386;" 
d="M216 724h154l159 -187v-451l-86 -86h-34v275h-233l-1 -275h-34l-87 86l-1 451zM293 627l-117 -133v-101h234v101zM-46 586h-92l99 145h140z" />
    <glyph glyph-name="anoteleia" unicode="&#x387;" horiz-adv-x="245" 
d="M65 387v127h115v-127h-115z" />
    <glyph glyph-name="Epsilontonos" unicode="&#x388;" horiz-adv-x="532" 
d="M61 0v610l113 114h293v-120h-283v-169h283v-119h-283v-196h283v-120h-406zM-72 599h-92l99 145h140z" />
    <glyph glyph-name="Etatonos" unicode="&#x389;" 
d="M137 0l-86 86v552l86 86h34v-289h240v289h34l86 -86v-552l-86 -86h-34v317h-240v-317h-34zM-84 596h-92l99 145h140z" />
    <glyph glyph-name="Iotatonos" unicode="&#x38a;" horiz-adv-x="280" 
d="M80 0v724h120v-724h-120zM-86 594h-92l99 145h140z" />
    <glyph glyph-name="Omicrontonos" unicode="&#x38c;" horiz-adv-x="591" 
d="M421 0h-250l-113 113v497l113 114h250l112 -114v-497zM411 604h-230v-484h230v484zM-54 599h-92l99 145h140z" />
    <glyph glyph-name="Upsilontonos" unicode="&#x38e;" horiz-adv-x="532" 
d="M327 305v-305h-120v306l-180 206v212h123v-170l117 -132l116 132v170h121v-212zM-137 582h-92l99 145h140z" />
    <glyph glyph-name="Omegatonos" unicode="&#x38f;" horiz-adv-x="596" 
d="M412 605h-230v-317h230v317zM353 120h98l89 -86v-34h-484v34l90 86h94v48h-68l-113 113v329l113 114h250l112 -114v-329l-112 -113h-69v-48zM-60 596h-92l99 145h140z" />
    <glyph glyph-name="iotadieresistonos" unicode="&#x390;" horiz-adv-x="358" 
d="M105 478h121l1 -386l-88 -92h-34v478zM284 534v128h115v-128h-115zM-42 534v128h116v-128h-116zM169 528h-92l69 145h140z" />
    <glyph glyph-name="Alpha" unicode="&#x391;" 
d="M216 724h154l159 -187v-451l-86 -86h-34v275h-233l-1 -275h-34l-87 86l-1 451zM293 627l-117 -133v-101h234v101z" />
    <glyph glyph-name="Beta" unicode="&#x392;" horiz-adv-x="597" 
d="M429 0h-364v724h364l113 -113v-181l-68 -68l68 -67v-182zM419 604h-230v-169h230v169zM419 317h-230v-198h230v198z" />
    <glyph glyph-name="Gamma" unicode="&#x393;" horiz-adv-x="466" 
d="M59 0l-1 581l143 143h264v-120h-283v-604h-123z" />
    <glyph glyph-name="Delta" unicode="&#x394;" 
d="M528 576v-576h-474v576l143 146h188zM407 603h-232v-482h232v482z" />
    <glyph glyph-name="Epsilon" unicode="&#x395;" horiz-adv-x="532" 
d="M61 0v610l113 114h293v-120h-283v-169h283v-119h-283v-196h283v-120h-406z" />
    <glyph glyph-name="Zeta" unicode="&#x396;" horiz-adv-x="615" 
d="M62 245l365 307v51h-345v121h466v-226l-365 -308v-70h366v-120h-487v245z" />
    <glyph glyph-name="Eta" unicode="&#x397;" 
d="M137 0l-86 86v552l86 86h34v-289h240v289h34l86 -86v-552l-86 -86h-34v317h-240v-317h-34z" />
    <glyph glyph-name="Theta" unicode="&#x398;" horiz-adv-x="593" 
d="M422 0h-250l-113 113v497l113 114h250l112 -114v-497zM182 317v-197h230v197h-230zM412 435v170h-230v-170h230z" />
    <glyph glyph-name="Iota" unicode="&#x399;" horiz-adv-x="280" 
d="M80 0v724h120v-724h-120z" />
    <glyph glyph-name="Kappa" unicode="&#x39a;" horiz-adv-x="589" 
d="M531 92l-87 -92h-35v317h-222v-317h-122v724h122v-251l209 251h134v-35l-211 -253h116l97 -96z" />
    <glyph glyph-name="Lambda" unicode="&#x39b;" horiz-adv-x="584" 
d="M217 724h154l159 -187v-451l-85 -86h-34v494l-117 133l-117 -133l-1 -494h-34l-87 86l-1 451z" />
    <glyph glyph-name="Mu" unicode="&#x39c;" horiz-adv-x="869" 
d="M806 92l-87 -92h-35v603h-194v-478h-123v478h-183v-603h-35l-87 92v518l114 114h201l113 -114v113h219l97 -96v-535z" />
    <glyph glyph-name="Nu" unicode="&#x39d;" horiz-adv-x="621" 
d="M446 0v272l-271 274l-1 -546h-119v724h111l280 -283v197l86 86h34v-724h-120z" />
    <glyph glyph-name="Xi" unicode="&#x39e;" horiz-adv-x="582" 
d="M456 0h-334l-90 86v34h195v196h-148v119h148v169h-195v34l90 86h334l90 -86v-34h-196v-169h150v-119h-150v-196h196v-34z" />
    <glyph glyph-name="Omicron" unicode="&#x39f;" horiz-adv-x="591" 
d="M421 0h-250l-113 113v497l113 114h250l112 -114v-497zM411 604h-230v-484h230v484z" />
    <glyph glyph-name="Pi" unicode="&#x3a0;" horiz-adv-x="594" 
d="M56 0v638l86 86h394v-724h-120v604h-240v-604h-120z" />
    <glyph glyph-name="Rho" unicode="&#x3a1;" horiz-adv-x="547" 
d="M424 276h-240v-276h-34l-90 92v519l113 113h251l113 -113v-221zM414 604h-230v-209h230v209z" />
    <glyph glyph-name="Sigma" unicode="&#x3a3;" horiz-adv-x="610" 
d="M554 637v-34h-348l149 -232l-160 -250h362v-34l-86 -87h-337l-84 106l160 264l-160 247l87 107h331z" />
    <glyph glyph-name="Tau" unicode="&#x3a4;" horiz-adv-x="597" 
d="M356 604v-604h-119v604h-219v34l90 86h382l89 -86v-34h-223z" />
    <glyph glyph-name="Upsilon" unicode="&#x3a5;" horiz-adv-x="532" 
d="M327 305v-305h-120v306l-180 206v212h123v-170l117 -132l116 132v170h121v-212z" />
    <glyph glyph-name="Phi" unicode="&#x3a6;" horiz-adv-x="794" 
d="M629 67h-170v-67h-121v67h-173l-113 113v364l113 113h173v67h121v-67h170l113 -113v-364zM175 539v-352h163v352h-163zM619 539h-160v-352h160v352z" />
    <glyph glyph-name="Chi" unicode="&#x3a7;" horiz-adv-x="609" 
d="M422 0v144l-116 133l-117 -133v-144h-123v187l159 182l-159 184v171h123v-129l117 -132l116 132v129h121v-171l-157 -183l157 -183v-187h-121z" />
    <glyph glyph-name="Psi" unicode="&#x3a8;" horiz-adv-x="775" 
d="M619 139h-170v-139h-121v139h-173l-113 113l1 387l87 85h34v-465h164v318l88 85h32l1 -403h160v465h34l89 -85v-387z" />
    <glyph glyph-name="Omega" unicode="&#x3a9;" horiz-adv-x="596" 
d="M412 605h-230v-317h230v317zM353 120h98l89 -86v-34h-484v34l90 86h94v48h-68l-113 113v329l113 114h250l112 -114v-329l-112 -113h-69v-48z" />
    <glyph glyph-name="Iotadieresis" unicode="&#x3aa;" horiz-adv-x="280" 
d="M80 0v724h120v-724h-120zM182 773v128h115v-128h-115zM-17 773v128h115v-128h-115z" />
    <glyph glyph-name="Upsilondieresis" unicode="&#x3ab;" horiz-adv-x="532" 
d="M327 305v-305h-120v306l-180 206v212h123v-170l117 -132l116 132v170h121v-212zM309 773v128h115v-128h-115zM110 773v128h115v-128h-115z" />
    <glyph glyph-name="alphatonos" unicode="&#x3ac;" horiz-adv-x="591" 
d="M401 0v62l-61 -62h-179l-112 112l-1 222l143 144h334v-478h-124zM401 357h-230v-238h230v238zM333 528h-92l99 145h140z" />
    <glyph glyph-name="epsilontonos" unicode="&#x3ad;" horiz-adv-x="490" 
d="M359 0h-200l-113 113v222l142 143l171 1l86 -86v-35h-277v-67h197v-34l-76 -72h-121v-65h277v-34zM297 528h-92l99 145h140z" />
    <glyph glyph-name="etatonos" unicode="&#x3ae;" horiz-adv-x="596" 
d="M538 92l-88 -92h-34v358h-231l-1 -358h-35l-87 92v386h123v-61l62 61h194l97 -96v-290zM329 528h-92l99 145h140z" />
    <glyph glyph-name="iotatonos" unicode="&#x3af;" horiz-adv-x="262" 
d="M70 478h121l1 -386l-88 -92h-34v478zM176 528h-92l99 145h140z" />
    <glyph glyph-name="upsilondieresistonos" unicode="&#x3b0;" horiz-adv-x="592" 
d="M414 0h-250l-113 113v364h122v-357h231v357h122v-364zM401 534v128h115v-128h-115zM75 534v128h116v-128h-116zM286 528h-92l69 145h140z" />
    <glyph glyph-name="alpha" unicode="&#x3b1;" horiz-adv-x="591" 
d="M401 0v62l-61 -62h-179l-112 112l-1 222l143 144h334v-478h-124zM401 357h-230v-238h230v238z" />
    <glyph glyph-name="beta" unicode="&#x3b2;" horiz-adv-x="566" 
d="M174 62v-281h-34l-90 91v708l143 144h198l113 -113v-165l-63 -62l75 -73v-198l-113 -113h-168zM174 119h219v214h-219v-214zM381 451v153h-207v-153h207z" />
    <glyph glyph-name="gamma" unicode="&#x3b3;" horiz-adv-x="509" 
d="M226 -221h-34v234l-162 156v217l87 92h36v-252l101 -103l103 103v160l88 92h34v-309l-165 -162v-137z" />
    <glyph glyph-name="delta" unicode="&#x3b4;" horiz-adv-x="577" 
d="M407 358h-230v-238h230v238zM65 473v138l114 113h221l89 -86v-34h-305v-125h233l112 -114v-252l-112 -113h-250l-113 113v252l60 60z" />
    <glyph glyph-name="epsilon" unicode="&#x3b5;" horiz-adv-x="490" 
d="M359 0h-200l-113 113v222l142 143l171 1l86 -86v-35h-277v-67h197v-34l-76 -72h-121v-65h277v-34z" />
    <glyph glyph-name="zeta" unicode="&#x3b6;" horiz-adv-x="572" 
d="M64 140l272 218h-262v121h425v-133l-279 -227h288v-119h-444v140z" />
    <glyph glyph-name="eta" unicode="&#x3b7;" horiz-adv-x="596" 
d="M538 92l-88 -92h-34v358h-231l-1 -358h-35l-87 92v386h123v-61l62 61h194l97 -96v-290z" />
    <glyph glyph-name="theta" unicode="&#x3b8;" horiz-adv-x="593" 
d="M422 0h-250l-113 113v497l113 114h250l112 -114v-497zM412 604h-231v-168h231v168zM181 316v-196h231v197z" />
    <glyph glyph-name="iota" unicode="&#x3b9;" horiz-adv-x="262" 
d="M70 478h121l1 -386l-88 -92h-34v478z" />
    <glyph glyph-name="kappa" unicode="&#x3ba;" horiz-adv-x="509" 
d="M454 92l-88 -92h-34v221h-144v-221h-122v478h122v-124l134 124h126v-35l-139 -124h48l97 -96v-131z" />
    <glyph glyph-name="lambda" unicode="&#x3bb;" horiz-adv-x="579" 
d="M434 0h-35v358h-232l1 -358h-35l-87 92l-1 243l143 143l148 1l63 -62v187h-188v120h167l143 -143v-489z" />
    <glyph glyph-name="nu" unicode="&#x3bd;" horiz-adv-x="547" 
d="M498 149l-153 -149h-143l-153 149v237l87 92h35v-272l102 -103l103 103l-1 272h35l88 -92v-237z" />
    <glyph glyph-name="xi" unicode="&#x3be;" horiz-adv-x="512" 
d="M436 -200l-87 92v108h-186l-113 113v198l75 73l-69 69v158l119 113h58.5h37.5h25.5h23t30 0.5t46.5 0.5l86 -86v-35h-304v-152h247v-44l-76 -75h-176v-214l298 -1v-318h-35z" />
    <glyph glyph-name="omicron" unicode="&#x3bf;" horiz-adv-x="582" 
d="M416 0h-250l-113 113v252l113 114h250l112 -114v-252zM406 358h-231v-238h231v238z" />
    <glyph glyph-name="pi" unicode="&#x3c0;" horiz-adv-x="603" 
d="M541 92l-87 -92h-35v358h-230v-358h-123v477h475v-385z" />
    <glyph glyph-name="rho" unicode="&#x3c1;" horiz-adv-x="588" 
d="M421 0h-178l-61 62v-281h-34l-90 91l-1 462l143 144h221l113 -113v-252zM411 358h-229v-239h229v239z" />
    <glyph glyph-name="sigma1" unicode="&#x3c2;" horiz-adv-x="563" 
d="M53 86v34h351v65h-246l-113 113v67l113 113h251l90 -86v-34h-335v-51h247l112 -112v-52l-141 -143h-240z" />
    <glyph glyph-name="sigma" unicode="&#x3c3;" horiz-adv-x="621" 
d="M472 354l59 -61v-180l-112 -113h-251l-113 113l-1 251l113 114h409v-124h-104zM409 358h-232v-238h232v238z" />
    <glyph glyph-name="tau" unicode="&#x3c4;" horiz-adv-x="459" 
d="M22 479h418v-35l-87 -86h-82v-358h-35l-88 92v266h-126v121z" />
    <glyph glyph-name="upsilon" unicode="&#x3c5;" horiz-adv-x="592" 
d="M414 0h-250l-113 113v364h122v-357h231v357h122v-364z" />
    <glyph glyph-name="phi" unicode="&#x3c6;" horiz-adv-x="652" 
d="M500 358h-109v-239h109v239zM32 113v252l113 113h80v-120h-70v-239h112v215l143 144h100l112 -113v-252l-112 -113l-119 -1v-127l-90 -91h-34v219h-122z" />
    <glyph glyph-name="chi" unicode="&#x3c7;" horiz-adv-x="595" 
d="M372 239l160 -204v-35h-123l-112 143l-112 -143h-123v35l160 204l-160 205v35h121l114 -145l114 145h121v-35z" />
    <glyph glyph-name="psi" unicode="&#x3c8;" horiz-adv-x="680" 
d="M401 -130l-89 -91h-34v221h-120l-113 113v280l88 85h34v-358h111v211l88 85h32v-296h114v358h34l89 -86v-279l-113 -113h-121v-130z" />
    <glyph glyph-name="omega" unicode="&#x3c9;" horiz-adv-x="752" 
d="M595 0h-159v113l-113 -113h-151l-114 113v274l87 92h36v-360h132v225h123v-225h134v360h35l87 -92v-290z" />
    <glyph glyph-name="iotadieresis" unicode="&#x3ca;" horiz-adv-x="262" 
d="M70 478h121l1 -386l-88 -92h-34v478zM174 522v128h115v-128h-115zM-25 522v128h115v-128h-115z" />
    <glyph glyph-name="upsilondieresis" unicode="&#x3cb;" horiz-adv-x="592" 
d="M414 0h-250l-113 113v364h122v-357h231v357h122v-364zM337 522v128h115v-128h-115zM138 522v128h115v-128h-115z" />
    <glyph glyph-name="omicrontonos" unicode="&#x3cc;" horiz-adv-x="582" 
d="M416 0h-250l-113 113v252l113 114h250l112 -114v-252zM406 358h-231v-238h231v238zM317 528h-92l99 145h140z" />
    <glyph glyph-name="upsilontonos" unicode="&#x3cd;" horiz-adv-x="592" 
d="M414 0h-250l-113 113v364h122v-357h231v357h122v-364zM319 528h-92l99 145h140z" />
    <glyph glyph-name="omegatonos" unicode="&#x3ce;" horiz-adv-x="752" 
d="M595 0h-159v113l-113 -113h-151l-114 113v274l87 92h36v-360h132v225h123v-225h134v360h35l87 -92v-290zM368 528h-92l99 145h140z" />
    <glyph glyph-name="afii10023" unicode="&#x401;" horiz-adv-x="532" 
d="M61 0v610l113 114h293v-120h-283v-169h283v-119h-283v-196h283v-120h-406zM314 804v128h115v-128h-115zM115 804v128h115v-128h-115z" />
    <glyph glyph-name="afii10051" unicode="&#x402;" horiz-adv-x="751" 
d="M318 604v-183l59 58h237l97 -97v-415l-85 -88l-2 -4h-183v34l92 91h56v358h-271v-358h-125v604h-179v40l75 80h407l89 -86v-34h-267z" />
    <glyph glyph-name="afii10052" unicode="&#x403;" horiz-adv-x="466" 
d="M301 773h-92l99 145h140zM49 0l-1 581l143 143h264v-120h-283v-604h-123z" />
    <glyph glyph-name="afii10053" unicode="&#x404;" horiz-adv-x="593" 
d="M458 0h-283l-114 113v497l114 114h283l86 -86v-34h-360v-169h283v-119h-283v-196h360v-34z" />
    <glyph glyph-name="afii10054" unicode="&#x405;" horiz-adv-x="576" 
d="M416 0h-269l-89 86v34h351v193h-246l-113 113v185l113 113h251l90 -86v-34h-335v-169h247l112 -112v-210z" />
    <glyph glyph-name="afii10055" unicode="&#x406;" horiz-adv-x="280" 
d="M80 0v724h120v-724h-120z" />
    <glyph glyph-name="afii10056" unicode="&#x407;" horiz-adv-x="280" 
d="M80 0v724h120v-724h-120zM184 804v128h115v-128h-115zM-15 804v128h115v-128h-115z" />
    <glyph glyph-name="afii10057" unicode="&#x408;" horiz-adv-x="570" 
d="M377 0h-249l-114 113v97h123v-90h230v516l89 88h34v-611z" />
    <glyph glyph-name="afii10058" unicode="&#x409;" horiz-adv-x="964" 
d="M796 119v209h-249v-209h249zM135 635l87 89h325v-279h265l108 -100v-245l-108 -100h-388v603h-166v-459l-146 -154h-82v119h105v526z" />
    <glyph glyph-name="afii10059" unicode="&#x40a;" horiz-adv-x="958" 
d="M793 119v209h-249v-209h249zM421 445v279h34l89 -88v-191h266l108 -100v-245l-108 -100h-389v328h-247v-328h-35l-88 86v550l89 88h34v-279h247z" />
    <glyph glyph-name="afii10060" unicode="&#x40b;" horiz-adv-x="753" 
d="M318 603v-182l59 58h232l104 -97v-304l-83 -78h-43v358h-269v-358h-125v603h-180v40l76 80h415l77 -80v-40h-263z" />
    <glyph glyph-name="afii10061" unicode="&#x40c;" horiz-adv-x="589" 
d="M307 773h-92l99 145h140zM531 92l-87 -92h-35v317h-222v-317h-122v724h122v-251l209 251h134v-35l-211 -253h116l97 -96z" />
    <glyph glyph-name="afii10062" unicode="&#x40e;" horiz-adv-x="597" 
d="M537 636v-552l-84 -84h-305v35l88 84h179v119h-273l-102 95v302l89 89h34v-366h252v366h36zM337 748h-100l-98 105v45h112v-78h73v78h116v-45z" />
    <glyph glyph-name="afii10145" unicode="&#x40f;" horiz-adv-x="624" 
d="M557 0h-185v-99l-89 -88h-34v187h-99l-88 88v636h123v-605h249v605h123v-724z" />
    <glyph glyph-name="afii10017" unicode="&#x410;" 
d="M216 724h154l159 -187v-451l-86 -86h-34v275h-233l-1 -275h-34l-87 86l-1 451zM293 627l-117 -133v-101h234v101z" />
    <glyph glyph-name="afii10018" unicode="&#x411;" horiz-adv-x="584" 
d="M150 724h291v-120h-257v-156h240l113 -114v-221l-113 -113h-251l-113 113v519zM414 329h-230v-209h230v209z" />
    <glyph glyph-name="afii10019" unicode="&#x412;" horiz-adv-x="597" 
d="M429 0h-364v724h364l113 -113v-181l-68 -68l68 -67v-182zM419 604h-230v-169h230v169zM419 317h-230v-198h230v198z" />
    <glyph glyph-name="afii10020" unicode="&#x413;" horiz-adv-x="466" 
d="M49 0l-1 581l143 143h264v-120h-283v-604h-123z" />
    <glyph glyph-name="afii10021" unicode="&#x414;" horiz-adv-x="693" 
d="M124 -99l-78 -76h-36v250l78 44l51 84v425l104 95h350v-604l85 -71v-223h-35l-78 82v93h-441v-99zM472 119v484h-214v-403l-46 -81h260z" />
    <glyph glyph-name="afii10022" unicode="&#x415;" horiz-adv-x="532" 
d="M61 0v610l113 114h293v-120h-283v-169h283v-119h-283v-196h283v-120h-406z" />
    <glyph glyph-name="afii10024" unicode="&#x416;" horiz-adv-x="866" 
d="M283 425l-214 264v35h120l179 -237v237h123v-241l192 241h111v-35l-215 -264h134l93 -90l-1 -243l-87 -92h-35v316h-192v-316h-123v316h-188v-316h-35l-87 92l-1 243l93 90h133z" />
    <glyph glyph-name="afii10025" unicode="&#x417;" horiz-adv-x="546" 
d="M493 143l-143 -143h-243l-86 86v34h350v188h-163l-85 85v34h248v177h-350v34l86 86h243l143 -143v-159l-67 -68l67 -67v-144z" />
    <glyph glyph-name="afii10026" unicode="&#x418;" horiz-adv-x="613" 
d="M434 74v335l-251 -310v-99h-123v723h33l90 -88v-357l251 311v46l89 89h35v-724h-35z" />
    <glyph glyph-name="afii10027" unicode="&#x419;" horiz-adv-x="613" 
d="M434 74v335l-251 -310v-99h-123v723h33l90 -88v-357l251 311v46l89 89h35v-724h-35zM356 725h-100l-98 105v45h112v-78h73v78h116v-45z" />
    <glyph glyph-name="afii10028" unicode="&#x41a;" horiz-adv-x="589" 
d="M531 92l-87 -92h-35v317h-222v-317h-122v724h122v-251l209 251h134v-35l-211 -253h116l97 -96z" />
    <glyph glyph-name="afii10029" unicode="&#x41b;" horiz-adv-x="613" 
d="M25 -10v119h105v516l110 99h315v-724h-121v603h-181v-459l-146 -154h-82z" />
    <glyph glyph-name="afii10030" unicode="&#x41c;" horiz-adv-x="869" 
d="M806 92l-87 -92h-35v603h-194v-478h-123v478h-183v-603h-35l-87 92v518l114 114h201l113 -114v113h219l97 -96v-535z" />
    <glyph glyph-name="afii10031" unicode="&#x41d;" 
d="M137 0l-86 86v552l86 86h34v-289h240v289h34l86 -86v-552l-86 -86h-34v317h-240v-317h-34z" />
    <glyph glyph-name="afii10032" unicode="&#x41e;" horiz-adv-x="591" 
d="M421 0h-250l-113 113v497l113 114h250l112 -114v-497zM411 604h-230v-484h230v484z" />
    <glyph glyph-name="afii10033" unicode="&#x41f;" horiz-adv-x="594" 
d="M56 0v638l86 86h394v-724h-120v604h-240v-604h-120z" />
    <glyph glyph-name="afii10034" unicode="&#x420;" horiz-adv-x="547" 
d="M424 276h-240v-276h-34l-90 92v519l113 113h251l113 -113v-221zM414 604h-230v-209h230v209z" />
    <glyph glyph-name="afii10035" unicode="&#x421;" horiz-adv-x="593" 
d="M455 0h-283l-114 113v497l114 114h283l86 -86v-34h-360v-484h360v-34z" />
    <glyph glyph-name="afii10036" unicode="&#x422;" horiz-adv-x="597" 
d="M356 604v-604h-119v604h-219v34l90 86h382l89 -86v-34h-223z" />
    <glyph glyph-name="afii10037" unicode="&#x423;" horiz-adv-x="597" 
d="M547 636v-552l-84 -84h-305v35l88 84h179v119h-273l-102 95v302l89 89h34v-366h252v366h36z" />
    <glyph glyph-name="afii10038" unicode="&#x424;" horiz-adv-x="794" 
d="M629 67h-170v-67h-121v67h-173l-113 113v364l113 113h173v67h121v-67h170l113 -113v-364zM175 539v-352h163v352h-163zM619 539h-160v-352h160v352z" />
    <glyph glyph-name="afii10039" unicode="&#x425;" horiz-adv-x="609" 
d="M422 0v144l-116 133l-117 -133v-144h-123v187l159 182l-159 184v171h123v-129l117 -132l116 132v129h121v-171l-157 -183l157 -183v-187h-121z" />
    <glyph glyph-name="afii10040" unicode="&#x426;" horiz-adv-x="678" 
d="M551 0h-398l-88 88v636h123v-605h249v605h123l1 -604l107 -76v-219h-40l-77 65v110z" />
    <glyph glyph-name="afii10041" unicode="&#x427;" horiz-adv-x="597" 
d="M547 724v-724h-122v238h-273l-102 95v391h123v-366h252v366h122z" />
    <glyph glyph-name="afii10042" unicode="&#x428;" horiz-adv-x="851" 
d="M765 724h34v-724h-639l-108 99v538l89 87h36v-605h182v605h126v-605h189v517z" />
    <glyph glyph-name="afii10043" unicode="&#x429;" horiz-adv-x="908" 
d="M798 120l107 -76v-219h-40l-77 65v110h-628l-108 99v538l89 87h36v-605h182v605h126v-605h189v517l91 88h34z" />
    <glyph glyph-name="afii10044" unicode="&#x42a;" horiz-adv-x="728" 
d="M684 334v-221l-113 -113h-251l-113 113v491h-204v34l90 86h238v-276h240zM561 329h-230v-209h230v209z" />
    <glyph glyph-name="afii10045" unicode="&#x42b;" horiz-adv-x="787" 
d="M538 334v-221l-113 -113h-251l-112 113v522l89 89h34v-276h240zM415 329h-230v-209h230v209zM610 0v724h120v-724h-120z" />
    <glyph glyph-name="afii10046" unicode="&#x42c;" horiz-adv-x="567" 
d="M537 334v-221l-113 -113h-251l-113 113v519l90 92h34v-276h240zM414 329h-230v-209h230v209z" />
    <glyph glyph-name="afii10047" unicode="&#x42d;" horiz-adv-x="580" 
d="M42 86v34h360v196h-283v119h283v169h-360v34l86 86h283l114 -114v-497l-114 -113h-283z" />
    <glyph glyph-name="afii10048" unicode="&#x42e;" horiz-adv-x="853" 
d="M411 0l-108 99v218h-125v-317h-40l-83 72v580l83 72h40v-288h125v189l108 99h280l107 -99v-526l-107 -99h-280zM426 603v-484h248v484h-248z" />
    <glyph glyph-name="afii10049" unicode="&#x42f;" horiz-adv-x="599" 
d="M186 395h230v209h-230v-209zM62 168l95 128l-94 94v221l113 113h251l113 -113v-611h-124v276h-120l-110 -148v-128h-124v168z" />
    <glyph glyph-name="afii10065" unicode="&#x430;" horiz-adv-x="561" 
d="M89 358v40l82 79h197l143 -143v-238l-102 -96h-269l-102 96v114l102 96h216l33 -35v87h-300zM389 191h-229v-78h229v78z" />
    <glyph glyph-name="afii10066" unicode="&#x431;" horiz-adv-x="613" 
d="M186 530v-135l61 62h199l112 -114v-230l-112 -113h-271l-113 110v442l111 96h172v33l87 79h41v-141l-94 -89h-193zM184 119h253v218h-253v-218z" />
    <glyph glyph-name="afii10067" unicode="&#x432;" horiz-adv-x="572" 
d="M61 0v478h375l85 -88v-85l-60 -61l60 -57v-99l-85 -88h-375zM183 190v-76h218v76h-218zM183 363v-65h218v65h-218z" />
    <glyph glyph-name="afii10068" unicode="&#x433;" horiz-adv-x="463" 
d="M61 0v339l140 140h257v-121h-274v-358h-123z" />
    <glyph glyph-name="afii10069" unicode="&#x434;" horiz-adv-x="594" 
d="M126 -106l-80 -64h-36v251l59 37l47 82v180l109 99h283v-360l71 -39v-250h-36l-80 63v107h-337v-106zM387 119v239h-156v-165l-40 -74h196z" />
    <glyph glyph-name="afii10070" unicode="&#x435;" horiz-adv-x="567" 
d="M411 173l-239 -1v-52h327v-34l-89 -86h-248l-113 113v222l142 143h220l113 -113v-79zM401 358h-229v-65h229v65z" />
    <glyph glyph-name="afii10072" unicode="&#x436;" horiz-adv-x="735" 
d="M695 92l-88 -92h-34v209h-144v-209h-123v209h-144v-209h-34l-88 92v131l97 76h47l-143 144v35h121l144 -149v149h123v-149l144 149h121v-35l-143 -144h47l97 -76v-131z" />
    <glyph glyph-name="afii10073" unicode="&#x437;" horiz-adv-x="522" 
d="M468 94l-103 -94h-232l-82 84v35h295v63h-139l-77 77v41h216v58h-295v51l82 70h232l103 -87v-80l-67 -65l67 -64v-89z" />
    <glyph glyph-name="afii10074" unicode="&#x438;" horiz-adv-x="571" 
d="M384 0v228l-198 -165v-63h-122v486h43l79 -70v-222l199 165v57l79 70h43v-414l-79 -72h-44z" />
    <glyph glyph-name="afii10075" unicode="&#x439;" horiz-adv-x="571" 
d="M384 0v228l-198 -165v-63h-122v486h43l79 -70v-222l199 165v57l79 70h43v-414l-79 -72h-44zM337 528h-100l-98 105v45h112v-78h73v78h116v-45z" />
    <glyph glyph-name="afii10076" unicode="&#x43a;" horiz-adv-x="509" 
d="M454 92l-88 -92h-34v221h-144v-221h-122v478h122v-124l134 124h126v-35l-139 -124h48l97 -96v-131z" />
    <glyph glyph-name="afii10077" unicode="&#x43b;" horiz-adv-x="543" 
d="M8 -10v119h80v269l110 100h283v-478h-124v356h-157v-270l-108 -96h-84z" />
    <glyph glyph-name="afii10078" unicode="&#x43c;" horiz-adv-x="752" 
d="M692 92l-87 -92h-35v358h-134v-223h-123v223h-132l-1 -358h-35l-87 92v273l114 114h151l113 -114v113h159l97 -96v-290z" />
    <glyph glyph-name="afii10079" unicode="&#x43d;" horiz-adv-x="622" 
d="M435 303v176h43l80 -72v-319l-80 -88h-43v184h-249v-184h-40l-85 87v321l85 71h40v-176h249z" />
    <glyph glyph-name="afii10080" unicode="&#x43e;" horiz-adv-x="582" 
d="M416 0h-250l-113 113v252l113 114h250l112 -114v-252zM406 358h-231v-238h231v238z" />
    <glyph glyph-name="afii10081" unicode="&#x43f;" horiz-adv-x="603" 
d="M541 92l-87 -92h-35v358h-230v-358h-123v477h475v-385z" />
    <glyph glyph-name="afii10082" unicode="&#x440;" horiz-adv-x="556" 
d="M134 477h34v-62l61 62h179l112 -113l1 -221l-143 -143h-149l-61 62v-192l-90 -91h-34v606zM168 119h230v238h-230v-238z" />
    <glyph glyph-name="afii10083" unicode="&#x441;" horiz-adv-x="484" 
d="M363 0h-200l-113 113v252l113 114h200l86 -86v-35h-277v-238h277v-34z" />
    <glyph glyph-name="afii10084" unicode="&#x442;" horiz-adv-x="527" 
d="M319 358v-358h-124v358h-180v35l88 85h316l88 -85v-35h-188z" />
    <glyph glyph-name="afii10085" unicode="&#x443;" horiz-adv-x="581" 
d="M409 -200h-282v34l92 90h178v76h-255l-97 96v290l88 92h34v-359h232v359h35l87 -92v-472z" />
    <glyph glyph-name="afii10086" unicode="&#x444;" horiz-adv-x="701" 
d="M291 479v129l92 90h32v-219h119l112 -114v-253l-113 -112h-118v-129l-91 -90h-32v219h-123l-114 115l1 250l111 114h124zM415 358v-239h109v239h-109zM291 119v239h-113v-239h113z" />
    <glyph glyph-name="afii10087" unicode="&#x445;" horiz-adv-x="545" 
d="M378 0l-112 146l-112 -146h-113v35l160 204l-160 205v35h121l114 -148l114 148h111v-35l-160 -205l160 -204v-35h-123z" />
    <glyph glyph-name="afii10088" unicode="&#x446;" horiz-adv-x="637" 
d="M62 98v381h123v-360h224v360h123l1 -360l84 -43v-246h-36l-80 58v112h-331z" />
    <glyph glyph-name="afii10089" unicode="&#x447;" horiz-adv-x="561" 
d="M379 0v172h-251l-102 95v210h123v-186h230v186h122v-477h-122z" />
    <glyph glyph-name="afii10090" unicode="&#x448;" horiz-adv-x="740" 
d="M677 479v-479h-521l-94 94v309l80 76h42v-360h125v360h123v-360h123v284l80 76h42z" />
    <glyph glyph-name="afii10091" unicode="&#x449;" horiz-adv-x="766" 
d="M648 0h-500l-84 88v315l81 76h42v-360h125v360h123v-360h121l1 284l81 76h42v-360l84 -43v-246h-36l-80 58v112z" />
    <glyph glyph-name="afii10092" unicode="&#x44a;" horiz-adv-x="661" 
d="M175 90v290h-174v34l90 86h208v-196l60 62h168l108 -97v-170l-108 -99h-242zM512 119v131h-213v-131h213z" />
    <glyph glyph-name="afii10093" unicode="&#x44b;" horiz-adv-x="755" 
d="M579 0v479h122v-479h-122zM398 119v133h-214v-133h214zM61 90v345l83 65h40v-194l60 62h169l107 -97v-172l-107 -99h-242z" />
    <glyph glyph-name="afii10094" unicode="&#x44c;" horiz-adv-x="556" 
d="M398 119v133h-214v-133h214zM61 90v345l83 65h40v-194l60 62h169l107 -97v-172l-107 -99h-242z" />
    <glyph glyph-name="afii10095" unicode="&#x44d;" horiz-adv-x="495" 
d="M41 86v34h277v74h-222v97h222v67h-270v35l86 86h193l113 -114v-252l-113 -113h-200z" />
    <glyph glyph-name="afii10096" unicode="&#x44e;" horiz-adv-x="725" 
d="M565 0h-185l-103 94v95h-93v-189h-41l-83 72v336l83 71h41v-181h93v84l103 93h185l103 -93v-288zM545 358h-145v-239h145v239z" />
    <glyph glyph-name="afii10097" unicode="&#x44f;" horiz-adv-x="546" 
d="M172 255h191v103h-191v-103zM52 48l79 118l-80 69l-1 145l107 98h229l100 -90v-388h-123v146h-110l-100 -146h-101v48z" />
    <glyph glyph-name="afii10071" unicode="&#x451;" horiz-adv-x="567" 
d="M411 173l-239 -1v-52h327v-34l-89 -86h-248l-113 113v222l142 143h220l113 -113v-79zM401 358h-229v-65h229v65zM340 541v128h115v-128h-115zM141 541v128h115v-128h-115z" />
    <glyph glyph-name="afii10099" unicode="&#x452;" horiz-adv-x="614" 
d="M8 481v102h73v39l78 74h48v-113h147l67 -64v-38h-215v-120l62 62h194l97 -97v-325l-111 -97h-145v45l81 74h53v279h-231v-302h-42l-82 75v406h-74z" />
    <glyph glyph-name="afii10100" unicode="&#x453;" horiz-adv-x="463" 
d="M61 0v339l140 140h257v-121h-274v-358h-123zM318 528h-92l99 145h140z" />
    <glyph glyph-name="afii10101" unicode="&#x454;" horiz-adv-x="494" 
d="M363 0h-200l-113 113v252l113 114h200l86 -86v-35h-277v-67h222v-97h-222v-74h277v-34z" />
    <glyph glyph-name="afii10102" unicode="&#x455;" horiz-adv-x="563" 
d="M53 86v34h351v65h-246l-113 113v67l113 113h251l90 -86v-34h-335v-51h247l112 -112v-52l-141 -143h-240z" />
    <glyph glyph-name="afii10103" unicode="&#x456;" horiz-adv-x="262" 
d="M70 564v125h121v-125h-121zM70 478h122v-386l-87 -92h-35v478z" />
    <glyph glyph-name="afii10104" unicode="&#x457;" horiz-adv-x="311" 
d="M195 534v128h115v-128h-115zM-4 534v128h115v-128h-115zM92 478h122v-386l-87 -92h-35v478z" />
    <glyph glyph-name="afii10105" unicode="&#x458;" horiz-adv-x="319" 
d="M128 564v125h120v-125h-120zM106 -198h-101v120h122v556h122v-533z" />
    <glyph glyph-name="afii10106" unicode="&#x459;" horiz-adv-x="824" 
d="M452 478v-196l61 62h169l107 -97v-148l-107 -99h-242l-110 90l-1 268h-113v-272l-108 -96h-84v119h80v271l110 98h238zM667 119v109h-215v-109h215z" />
    <glyph glyph-name="afii10107" unicode="&#x45a;" horiz-adv-x="823" 
d="M452 479v-197l61 62h169l107 -97v-148l-107 -99h-242l-112 90v94h-145v-184h-41l-83 72v338l83 71h41v-178h145v105l83 71h41zM667 119v109h-215v-109h215z" />
    <glyph glyph-name="afii10108" unicode="&#x45b;" horiz-adv-x="556" 
d="M8 497v82h73v46l73 71h34v-117h155l61 -60v-22h-217v-144l58 61h197l97 -92v-249l-75 -73h-29v315h-248v-315h-28l-77 72v425h-74z" />
    <glyph glyph-name="afii10109" unicode="&#x45c;" horiz-adv-x="509" 
d="M454 92l-88 -92h-34v221h-144v-221h-122v478h122v-124l134 124h126v-35l-139 -124h48l97 -96v-131zM253 528h-92l99 145h140z" />
    <glyph glyph-name="afii10110" unicode="&#x45e;" horiz-adv-x="581" 
d="M409 -200h-282v34l92 90h178v76h-255l-97 96v290l88 92h34v-359h232v359h35l87 -92v-472zM331 512h-100l-98 105v45h112v-78h73v78h116v-45z" />
    <glyph glyph-name="afii10193" unicode="&#x45f;" horiz-adv-x="624" 
d="M557 0h-184v-107l-80 -74h-43v181h-80l-108 98v381h123v-360h249v360h123v-479z" />
    <glyph glyph-name="afii10050" unicode="&#x490;" horiz-adv-x="530" 
d="M184 603v-603h-124v575l150 148h200v42l80 73h43v-159l-80 -76h-269z" />
    <glyph glyph-name="afii10098" unicode="&#x491;" horiz-adv-x="446" 
d="M324 522l80 73h42v-161l-80 -76h-182v-358h-123v332l146 147h117v43z" />
    <glyph glyph-name="schwacyrillic" unicode="&#x4d9;" horiz-adv-x="585" 
d="M165 305l239 1v52h-327v34l89 86h248l113 -113v-222l-142 -143h-220l-113 113v79zM175 120h229v65h-229v-65z" />
    <glyph glyph-name="Wgrave" unicode="&#x1e80;" horiz-adv-x="867" 
d="M708 0h-219v113l-113 -113h-201l-114 113v519l87 92h35v-605h183v480h123v-480h194v605h35l87 -92v-535zM403 773l-147 145h140l99 -145h-92z" />
    <glyph glyph-name="wgrave" unicode="&#x1e81;" horiz-adv-x="752" 
d="M595 1l-159 -1v113l-113 -113h-151l-114 113v274l87 92h36v-360h132v225h123v-225h134v360h35l87 -92v-290zM332 528l-147 145h140l99 -145h-92z" />
    <glyph glyph-name="Wacute" unicode="&#x1e82;" horiz-adv-x="867" 
d="M708 0h-219v113l-113 -113h-201l-114 113v519l87 92h35v-605h183v480h123v-480h194v605h35l87 -92v-535zM449 773h-92l99 145h140z" />
    <glyph glyph-name="wacute" unicode="&#x1e83;" horiz-adv-x="752" 
d="M595 1l-159 -1v113l-113 -113h-151l-114 113v274l87 92h36v-360h132v225h123v-225h134v360h35l87 -92v-290zM416 528h-92l99 145h140z" />
    <glyph glyph-name="Wdieresis" unicode="&#x1e84;" horiz-adv-x="867" 
d="M708 0h-219v113l-113 -113h-201l-114 113v519l87 92h35v-605h183v480h123v-480h194v605h35l87 -92v-535zM471 773v128h115v-128h-115zM272 773v128h115v-128h-115z" />
    <glyph glyph-name="wdieresis" unicode="&#x1e85;" horiz-adv-x="752" 
d="M595 1l-159 -1v113l-113 -113h-151l-114 113v274l87 92h36v-360h132v225h123v-225h134v360h35l87 -92v-290zM433 522v128h115v-128h-115zM234 522v128h115v-128h-115z" />
    <glyph glyph-name="Ygrave" unicode="&#x1ef2;" horiz-adv-x="532" 
d="M327 305v-305h-120v306l-180 206v212h123v-170l117 -132l116 132v170h121v-212zM245 773l-147 145h140l99 -145h-92z" />
    <glyph glyph-name="ygrave" unicode="&#x1ef3;" horiz-adv-x="581" 
d="M409 -200h-282v34l92 90h178v76h-255l-97 96v290l88 92h34v-359h232v359h35l87 -92v-472zM249 528l-147 145h140l99 -145h-92z" />
    <glyph glyph-name="endash" unicode="&#x2013;" horiz-adv-x="572" 
d="M66 210v84h440v-84h-440z" />
    <glyph glyph-name="emdash" unicode="&#x2014;" horiz-adv-x="1072" 
d="M66 210v84h940v-84h-940z" />
    <glyph glyph-name="afii00208" unicode="&#x2015;" horiz-adv-x="1132" 
d="M66 210v84h1000v-84h-1000z" />
    <glyph glyph-name="quoteleft" unicode="&#x2018;" horiz-adv-x="194" 
d="M15 497v130l113 134v-264h-113z" />
    <glyph glyph-name="quoteright" unicode="&#x2019;" horiz-adv-x="194" 
d="M179 614l-113 -134v264h113v-130z" />
    <glyph glyph-name="quotesinglbase" unicode="&#x201a;" horiz-adv-x="194" 
d="M179 -2l-113 -134v264h113v-130z" />
    <glyph glyph-name="quotedblleft" unicode="&#x201c;" horiz-adv-x="387" 
d="M209 497v130l112 134v-264h-112zM42 497v130l113 134v-264h-113z" />
    <glyph glyph-name="quotedblright" unicode="&#x201d;" horiz-adv-x="387" 
d="M345 614l-112 -134v264h112v-130zM179 614l-113 -134v264h113v-130z" />
    <glyph glyph-name="quotedblbase" unicode="&#x201e;" horiz-adv-x="424" 
d="M179 -2l-113 -134v264h113v-130zM379 -2l-113 -134v264h113v-130z" />
    <glyph glyph-name="dagger" unicode="&#x2020;" horiz-adv-x="524" 
d="M324 406v-514h-124v514h-197v120h197v182h124v-182h197v-120h-197z" />
    <glyph glyph-name="daggerdbl" unicode="&#x2021;" horiz-adv-x="539" 
d="M207 194v212h-197v120h197v182h124v-182h197v-120h-197v-212h197v-120h-197v-182h-124v182h-197v120h197z" />
    <glyph glyph-name="bullet" unicode="&#x2022;" horiz-adv-x="375" 
d="M314 275q0 -26 -10 -49.5t-27.5 -41t-40.5 -27.5t-50 -10t-50 10t-40.5 27.5t-27.5 41t-10 49.5t10 49.5t27.5 41t40.5 27.5t50 10t50 -10t40.5 -27.5t27.5 -41t10 -49.5z" />
    <glyph glyph-name="trianglebullet" unicode="&#x2023;" horiz-adv-x="379" 
d="M66 51v360l303 -183z" />
    <glyph glyph-name="ellipsis" unicode="&#x2026;" horiz-adv-x="874" 
d="M693 0v127h115v-127h-115zM385 0v127h116v-127h-116zM66 0v127h116v-127h-116z" />
    <glyph glyph-name="perthousand" unicode="&#x2030;" horiz-adv-x="1146" 
d="M683 0h-134l-80 73v211l80 75h134l79 -75v-211zM193 0h-105l537 724h106zM663 265h-94v-171h94v171zM270 365h-134l-79 73v212l79 74h134l80 -74v-212zM250 630h-94v-171h94v171zM1039 0h-134l-79 73v211l79 75h134l79 -75v-211zM1019 265h-94v-171h94v171z" />
    <glyph glyph-name="guilsinglleft" unicode="&#x2039;" horiz-adv-x="271" 
d="M12 211v93l155 153l68 -67l-133 -131l133 -133l-68 -67z" />
    <glyph glyph-name="guilsinglright" unicode="&#x203a;" horiz-adv-x="302" 
d="M105 59l-68 67l133 133l-133 131l68 67l155 -153v-93z" />
    <glyph glyph-name="fraction" unicode="&#x2044;" horiz-adv-x="107" 
d="M-260 0l545 724h105l-545 -724h-105z" />
    <glyph glyph-name="fraction" unicode="&#x2215;" horiz-adv-x="107" 
d="M-260 0l545 724h105l-545 -724h-105z" />
    <glyph glyph-name="dong" unicode="&#x20ab;" horiz-adv-x="646" 
d="M336 625h81v21l80 81h41v-102h58v-66h-58v-344l-79 -82h-42v42l-41 -42h-176l-99 99v179l125 124h154l37 -36v60h-81v66zM109 103h443v-103h-443v103zM417 416h-193v-164h193v164z" />
    <glyph glyph-name="Euro" unicode="&#x20ac;" horiz-adv-x="646" 
d="M232 245v-125h360v-34l-86 -86h-283l-114 113v132h-74v76h74v65h-74v76h74v148l114 114h283l86 -86v-34h-360v-142h215v-76h-215v-65h215v-76h-215z" />
    <glyph glyph-name="afii61352" unicode="&#x2116;" horiz-adv-x="901" 
d="M386 0v232l-212 314v-546h-119v724h111l220 -323v237l86 86h34v-724h-120zM790 455h-152l-69 62v143l69 64h152l-1 1l70 -65v-143zM569 400h290v-75h-290v75zM775 648h-122v-118h122v118z" />
    <glyph glyph-name="published" unicode="&#x2117;" horiz-adv-x="824" 
d="M412 -6q-73 0 -140 25.5t-118 72.5t-81 113.5t-30 148.5t30 148.5t81 113.5t118 72.5t140 25.5t140 -25.5t118 -72.5t81 -113.5t30 -148.5t-30 -148.5t-81 -113.5t-118 -72.5t-140 -25.5zM412 638q-57 0 -107 -21t-87 -58.5t-58 -90t-21 -114.5t21 -114.5t58 -90
t87 -58.5t107 -21t106.5 21t86.5 58.5t58.5 90t21.5 114.5t-21.5 114.5t-58.5 90t-86.5 58.5t-106.5 21zM502 322h-163v-165h-23l-51 50v280l74 66h163l73 -65v-98zM339 483v-92h163v92h-163z" />
    <glyph glyph-name="trademark" unicode="&#x2122;" horiz-adv-x="936" 
d="M769 304v324h-67v-324h-104v324h-70v-324h-105v324l105 94h241l104 -94v-324h-104zM278 632v-328h-108v328h-122v90h351v-90h-121z" />
    <glyph glyph-name="minus" unicode="&#x2212;" horiz-adv-x="524" 
d="M5 203v108h514v-108h-514z" />
    <glyph glyph-name="approxequal" unicode="&#x2248;" horiz-adv-x="644" 
d="M466 93l-265 50l-81 -62l-55 101l108 73l265 -50l82 64l56 -102zM466 293l-265 50l-81 -62l-55 101l108 73l265 -50l82 64l56 -102z" />
    <glyph glyph-name="notequal" unicode="&#x2260;" horiz-adv-x="644" 
d="M55 404h335l79 97h111l-79 -97h68v-105h-152l-68 -84h220v-105h-305l-88 -110h-111l88 110h-98v105h183l68 84h-251v105z" />
    <glyph glyph-name="lessequal" unicode="&#x2264;" horiz-adv-x="644" 
d="M65 402l514 197v-113l-361 -130l361 -130v-113l-514 197v92zM65 105h514v-105h-514v105z" />
    <glyph glyph-name="greaterequal" unicode="&#x2265;" horiz-adv-x="644" 
d="M579 310l-514 -197v113l361 130l-361 130v113l514 -197v-92zM579 0h-514v105h514v-105z" />
    <glyph glyph-name="slashedzero" unicode="&#xe23f;" horiz-adv-x="579" 
d="M375 0h-190l-143 143v438l143 143h190l143 -143v-438zM395 580l-166 -461h166v461zM164 169l156 436h-156v-436z" />
    <glyph glyph-name="uniE299" unicode="&#xe299;" 
d="M229 773q-5 4 -13 13t-16 19t-16 19t-12 13v90l57 63h127l59 -63v-90l-59 -64h-127zM345 927h-103v-90h103v90z" />
    <glyph glyph-name="Circumflex" unicode="&#xf6c0;" 
d="M359 773l-67 85l-68 -85h-100l118 170h100l118 -170h-101z" />
    <glyph glyph-name="commaaccent" unicode="&#xf6c3;" horiz-adv-x="561" 
d="M347 -166l-113 -114v244h113v-130z" />
    <glyph glyph-name="Acute" unicode="&#xf6c9;" 
d="M348 773h-92l99 145h140z" />
    <glyph glyph-name="Caron" unicode="&#xf6ca;" 
d="M225 943l67 -85l68 85h100l-118 -170h-100l-118 170h101z" />
    <glyph glyph-name="Dieresis" unicode="&#xf6cb;" 
d="M336 773v128h115v-128h-115zM137 773v128h115v-128h-115z" />
    <glyph glyph-name="DieresisAcute" unicode="&#xf6cc;" 
d="M413 773v128h115v-128h-115zM54 773v128h115v-128h-115zM265 767h-92l99 145h140z" />
    <glyph glyph-name="DieresisGrave" unicode="&#xf6cd;" 
d="M403 773v128h115v-128h-115zM36 773v128h115v-128h-115zM301 767l-147 145h140l99 -145h-92z" />
    <glyph glyph-name="Grave" unicode="&#xf6ce;" 
d="M240 773l-147 145h140l99 -145h-92z" />
    <glyph glyph-name="Hungarumlaut" unicode="&#xf6cf;" 
d="M235 773h-92l99 145h140zM440 773h-92l99 145h140z" />
    <glyph glyph-name="Macron" unicode="&#xf6d0;" 
d="M120 773v84h349v-84h-349z" />
    <glyph glyph-name="cyrBreve" unicode="&#xf6d1;" 
d="M342 773h-100l-98 105v45h112v-78h73v78h116v-45z" />
    <glyph glyph-name="cyrbreve" unicode="&#xf6d4;" horiz-adv-x="561" 
d="M322 534h-100l-98 105v45h112v-78h73v78h116v-45z" />
    </font>
</defs>
</svg>
